<svg width="80" height="80" viewBox="0 0 80 80" fill="none" xmlns="http://www.w3.org/2000/svg">
<path d="M6.13534 80C4.69173 80 3.00752 79.5188 1.80451 78.3158C-0.601504 75.9098 -0.601504 72.0602 1.80451 69.8947L69.6541 1.80451C72.0602 -0.601504 75.9098 -0.601504 78.0752 1.80451C80.4812 4.21053 80.4812 8.06015 78.0752 10.2256L10.4662 78.3158C9.26316 79.5188 7.57895 80 6.13534 80Z" fill="white"/>
<path d="M73.9851 12.1502H30.6768C27.3084 12.1502 24.6618 9.50358 24.6618 6.13516C24.6618 2.76673 27.3084 0.120117 30.6768 0.120117H73.9851C77.3535 0.120117 80.0001 2.76673 80.0001 6.13516C80.0001 9.50358 77.3535 12.1502 73.9851 12.1502Z" fill="white"/>
</svg>
