<svg width="208" height="20" viewBox="0 0 208 20" fill="none" xmlns="http://www.w3.org/2000/svg">
<path d="M206.784 10.8375L192.642 19.8449C192.475 19.9503 192.29 20 192.107 20C191.779 20 191.457 19.837 191.266 19.5408C190.972 19.0796 191.109 18.4633 191.572 18.1691L202.838 10.9925H0.994049C0.445374 10.9925 7.62939e-05 10.5472 7.62939e-05 9.99856C7.62939e-05 9.44988 0.445374 9.00458 0.994049 9.00458H202.838L191.572 1.83002C191.109 1.53581 190.97 0.919538 191.266 0.45833C191.56 -0.00287684 192.18 -0.138058 192.64 0.154172L206.784 9.16163C207.068 9.34253 207.243 9.66061 207.243 9.99856C207.243 10.3365 207.068 10.6566 206.784 10.8375Z" fill="url(#paint0_linear_1_261)"/>
<defs>
<linearGradient id="paint0_linear_1_261" x1="207.243" y1="10" x2="7.47499e-05" y2="10" gradientUnits="userSpaceOnUse">
<stop stop-color="#FF4C13"/>
<stop offset="1" stop-color="#FE7524"/>
</linearGradient>
</defs>
</svg>
