<svg width="9" height="14" viewBox="0 0 9 14" fill="none" xmlns="http://www.w3.org/2000/svg">
<path d="M1.12 1.84415L6.27597 7.00012L1.12 12.1561C1.06917 12.207 1.02467 12.2618 0.986505 12.3195C0.719588 12.7239 0.764088 13.2733 1.12 13.6293C1.52675 14.036 2.18634 14.036 2.59317 13.6293L8.48568 7.7367C8.5101 7.71229 8.53318 7.68679 8.55487 7.66029C8.70675 7.47495 8.79077 7.24187 8.79077 7.00012C8.79077 6.72387 8.68103 6.45895 8.48568 6.26354L2.59317 0.371012C2.18634 -0.03578 1.52675 -0.03578 1.12 0.371012C1.06917 0.421862 1.02467 0.476662 0.986505 0.53442C0.719588 0.938745 0.764088 1.4882 1.12 1.84415Z" fill="url(#paint0_linear_1_1329)"/>
<defs>
<linearGradient id="paint0_linear_1_1329" x1="8.79077" y1="7.00013" x2="0.814922" y2="7.00013" gradientUnits="userSpaceOnUse">
<stop stop-color="#FF4C13"/>
<stop offset="1" stop-color="#FE7524"/>
</linearGradient>
</defs>
</svg>
