<svg width="161" height="116" viewBox="0 0 161 116" fill="none" xmlns="http://www.w3.org/2000/svg">
<path d="M79.4318 30.2065L62.2511 25.0736L28.4854 72.0889C38.5793 78.6691 62.0461 93.6409 75.1598 100.879C91.3515 109.815 103.592 111.734 117.665 113.942L118.19 114.024C129.627 115.818 134.734 111.515 135.859 109.14C136.277 108.357 134.617 105.104 124.627 98.3615C112.14 89.9329 115.128 80.0675 119.829 73.1719C124.53 66.2772 139.535 64.8411 144.132 72.0319C147.81 77.7845 151.902 81.8256 153.488 83.127C155.702 83.3831 159.883 81.2208 158.902 70.5174C157.922 59.814 143.207 50.5392 135.973 47.2399C140.536 44.7015 149.853 38.6536 150.61 34.7702C151.367 30.8876 145.564 30.0326 142.568 30.0903C144.085 20.7591 124.138 24.568 113.973 27.6386C115.097 25.9411 117.705 21.3401 119.153 16.5169C120.96 10.4879 114.87 7.9168 112.134 8.46963C109.399 9.02246 94.0579 22.9801 90.6934 25.4119C88.0018 27.358 82.0642 29.4189 79.4318 30.2065Z" fill="#F4E6FF"/>
<path d="M120.554 48.4674C125.372 46.8351 137.567 45.6973 147.799 54.2073C160.588 64.8449 161.611 76.7179 156.018 81.6206C150.426 86.5241 147.251 71.7426 139.274 68.3011C131.297 64.8597 123.165 67.7304 117.876 75.5313C112.587 83.3314 116.29 95.0541 125.68 99.4535C135.069 103.853 135.398 106.56 135.361 107.984C135.323 109.408 133.005 116.324 117.222 113.904C101.439 111.484 82.1049 106.243 58.4086 91.3151C39.4515 79.3732 29.6676 72.2082 21.0854 66.01" stroke="#080808" stroke-width="2.74878" stroke-linecap="round"/>
<path d="M108.793 39.3552C113.462 38.552 125.149 35.973 134.552 32.0799C146.305 27.2135 149.604 31.6239 150.343 33.5745C151.083 35.5251 149.368 41.4006 134.923 47.6513" stroke="#080808" stroke-width="2.74878" stroke-linecap="round"/>
<path d="M101.334 30.8846C115.405 26.4512 143.261 19.8946 142.111 29.1339" stroke="#080808" stroke-width="2.74878" stroke-linecap="round"/>
<path d="M50.8599 18.1931C62.3479 25.3263 75.3299 31.3469 81.9596 29.9626C90.2468 28.2318 106.442 12.4035 110.31 9.43615C114.178 6.46882 126.134 10.1238 113.789 27.1148" stroke="#080808" stroke-width="2.74878" stroke-linecap="round"/>
<path d="M63.0904 16.0735L44.1489 3.23126C41.8474 1.67088 38.7167 2.27165 37.1564 4.57313L3.05865 54.8652C1.49827 57.1667 2.09904 60.2974 4.40052 61.8577L23.3421 74.7C25.6436 76.2604 28.7742 75.6596 30.3346 73.3581L64.4323 23.066C65.9927 20.7646 65.3919 17.6339 63.0904 16.0735Z" fill="url(#paint0_linear_1_879)"/>
<defs>
<linearGradient id="paint0_linear_1_879" x1="33.7455" y1="2.36328" x2="33.7455" y2="75.5679" gradientUnits="userSpaceOnUse">
<stop stop-color="#F8B6BC"/>
<stop offset="0.0001" stop-color="#771A99"/>
<stop offset="0.4" stop-color="#89309E"/>
<stop offset="1" stop-color="#BD6FFD"/>
</linearGradient>
</defs>
</svg>
