<svg width="28" height="28" viewBox="0 0 28 28" fill="none" xmlns="http://www.w3.org/2000/svg">
<path d="M8.16667 21C7.81667 21 7.58333 20.8833 7.35 20.65C6.88333 20.1833 6.88333 19.4833 7.35 19.0167L19.0167 7.35C19.4833 6.88333 20.1833 6.88333 20.65 7.35C21.1167 7.81667 21.1167 8.51667 20.65 8.98333L8.98333 20.65C8.75 20.8833 8.51667 21 8.16667 21Z" fill="white"/>
<path d="M19.8327 19.8333C19.1327 19.8333 18.666 19.3667 18.666 18.6667V9.33333H9.33268C8.63268 9.33333 8.16602 8.86667 8.16602 8.16667C8.16602 7.46667 8.63268 7 9.33268 7H19.8327C20.5327 7 20.9993 7.46667 20.9993 8.16667V18.6667C20.9993 19.3667 20.5327 19.8333 19.8327 19.8333Z" fill="white"/>
</svg>
