<svg width="65" height="65" viewBox="0 0 65 65" fill="none" xmlns="http://www.w3.org/2000/svg">
<path d="M21.9602 20.8641C21.9139 20.2026 22.1323 19.5499 22.5673 19.0495C23.0023 18.5491 23.6183 18.242 24.2797 18.1958L44.231 16.8006C44.8924 16.7544 45.5451 16.9728 46.0455 17.4078C46.5459 17.8428 46.853 18.4587 46.8993 19.1202L48.2944 39.0714C48.3407 39.7329 48.1223 40.3856 47.6873 40.886C47.2523 41.3864 46.6363 41.6935 45.9749 41.7397C45.3135 41.786 44.6608 41.5676 44.1603 41.1326C43.6599 40.6976 43.3528 40.0816 43.3066 39.4202L42.3324 25.4892L23.0967 47.6175C22.6581 48.1046 22.0457 48.4001 21.3914 48.4401C20.7371 48.4801 20.0933 48.2616 19.5985 47.8315C19.1038 47.4015 18.7978 46.7943 18.7464 46.1408C18.695 45.4873 18.9023 44.8398 19.3237 44.3377L38.5595 22.2094L24.6285 23.1836C23.9671 23.2298 23.3143 23.0114 22.8139 22.5764C22.3135 22.1415 22.0064 21.5255 21.9602 20.8641Z" fill="white"/>
</svg>
