<svg width="18" height="18" viewBox="0 0 18 18" fill="none" xmlns="http://www.w3.org/2000/svg">
<path d="M8.9996 16.3121C8.87737 16.3121 8.75848 16.2722 8.66092 16.1986C8.56335 16.125 8.49242 16.0216 8.45885 15.9041L7.8746 13.8588C7.62344 12.969 7.14827 12.1585 6.49448 11.5047C5.8407 10.8509 5.03017 10.3757 4.14034 10.1246L2.09509 9.54034C1.97765 9.5067 1.87435 9.43573 1.80081 9.33817C1.72727 9.24061 1.6875 9.12176 1.6875 8.99959C1.6875 8.87742 1.72727 8.75858 1.80081 8.66102C1.87435 8.56346 1.97765 8.49249 2.09509 8.45884L4.14034 7.87459C5.03017 7.62344 5.8407 7.14826 6.49448 6.49448C7.14827 5.8407 7.62344 5.03017 7.8746 4.14034L8.45885 2.09509C8.49249 1.97765 8.56346 1.87435 8.66102 1.80081C8.75858 1.72727 8.87742 1.6875 8.9996 1.6875C9.12177 1.6875 9.24061 1.72727 9.33817 1.80081C9.43573 1.87435 9.5067 1.97765 9.54034 2.09509L10.1246 4.14034C10.3757 5.03017 10.8509 5.8407 11.5047 6.49448C12.1585 7.14826 12.969 7.62344 13.8588 7.87459L15.9041 8.45884C16.0215 8.49249 16.1248 8.56346 16.1984 8.66102C16.2719 8.75858 16.3117 8.87742 16.3117 8.99959C16.3117 9.12176 16.2719 9.24061 16.1984 9.33817C16.1248 9.43573 16.0215 9.5067 15.9041 9.54034L13.8588 10.1246C12.969 10.3757 12.1585 10.8509 11.5047 11.5047C10.8509 12.1585 10.3757 12.969 10.1246 13.8588L9.54034 15.9041C9.50677 16.0216 9.43584 16.125 9.33827 16.1986C9.24071 16.2722 9.12182 16.3121 8.9996 16.3121ZM4.29709 8.99959L4.44709 9.04309C5.52096 9.34626 6.49914 9.91976 7.28816 10.7088C8.07718 11.4978 8.65068 12.476 8.95385 13.5498L8.99734 13.6998L9.04085 13.5498C9.34401 12.476 9.91751 11.4978 10.7065 10.7088C11.4955 9.91976 12.4737 9.34626 13.5476 9.04309L13.6976 8.99959L13.5476 8.95609C12.4737 8.65293 11.4955 8.07943 10.7065 7.29041C9.91751 6.50139 9.34401 5.52321 9.04085 4.44934L8.9996 4.29784L8.9561 4.44784C8.65293 5.52171 8.07943 6.49989 7.29041 7.28891C6.50139 8.07793 5.52321 8.65143 4.44934 8.95459L4.29709 8.99959Z" fill="url(#paint0_linear_1_1177)"/>
<defs>
<linearGradient id="paint0_linear_1_1177" x1="1.6875" y1="8.9998" x2="16.3117" y2="8.9998" gradientUnits="userSpaceOnUse">
<stop stop-color="#FF4C13"/>
<stop offset="1" stop-color="#FE7524"/>
</linearGradient>
</defs>
</svg>
