<svg width="167" height="30" viewBox="0 0 167 30" fill="none" xmlns="http://www.w3.org/2000/svg">
<path fill-rule="evenodd" clip-rule="evenodd" d="M59.8441 9.82367H66.5716V25.1182H59.8441V9.82367ZM110.136 17.6215C110.136 13.1942 114.226 9.60442 119.272 9.60442C124.318 9.60442 128.409 13.1942 128.409 17.6215C128.409 22.0488 124.318 25.6385 119.272 25.6385C114.226 25.6385 110.136 22.0488 110.136 17.6215ZM116.362 17.6215C116.362 14.9494 117.665 12.7837 119.272 12.7837C120.879 12.7837 122.183 14.9494 122.183 17.6215C122.183 20.2911 120.879 22.4568 119.272 22.4568C117.665 22.4568 116.362 20.2911 116.362 17.6215ZM130.578 9.62664H136.324L140.815 16.3866V9.62664H146.912V25.1704H142.31L136.738 16.951V25.1704H130.578V9.62664ZM85.576 9.82408L85.5649 19.656C85.5649 22.6732 83.1199 25.1211 80.0998 25.1211H74.8157C71.7981 25.1211 69.3506 22.6736 69.3506 19.656V9.82367H75.9325V22.1063H78.9937V9.82367L85.576 9.82408ZM163.233 25.1947L155.26 25.184C152.243 25.184 149.155 22.7365 149.155 19.7189V15.0782C149.155 12.061 152.243 9.61306 155.26 9.61306H166.182V12.7232H155.293V22.219H160.405V18.7556H157.859V16.16H166.149V23.9578C166.149 23.9578 166.193 25.1926 164.698 25.1926L163.233 25.1947ZM104.775 25.3728L94.9781 25.3621C91.4845 25.3621 87.8429 22.4128 87.8429 18.7798V13.1917C87.8429 9.55548 91.4845 6.60944 94.9781 6.60944H107.545V10.3551H95.5918V21.4437H100.936V17.619H98.5596V14.492H107.508V23.8833C107.508 23.8833 107.559 25.3699 105.829 25.3699L104.775 25.3728ZM57.8289 25.1182V21.6518H50.3244V6.68307H42.6632L42.6442 23.6287C42.6442 23.6287 42.5895 25.1182 44.3225 25.1182H57.8289ZM30.4821 23.6781H11.4888C8.76159 23.6781 6.54939 21.4659 6.54939 18.7387V0H0V19.1356C0 25.1346 4.86535 30 10.8672 30H30.4821V23.6781ZM15.5158 20.7341H12.564C11.7784 20.734 11.0249 20.4218 10.4694 19.8663C9.91381 19.3107 9.60165 18.5573 9.60155 17.7716V3.95341C9.60155 1.77124 11.3703 0.00246805 13.5525 0.00246805H29.6578V5.6757H15.4916V14.9601H21.3811L27.0268 20.7345L15.5158 20.7341Z" fill="url(#paint0_linear_57_12)"/>
<defs>
<linearGradient id="paint0_linear_57_12" x1="0" y1="14.9398" x2="166.182" y2="14.9398" gradientUnits="userSpaceOnUse">
<stop stop-color="#FF6F05"/>
<stop offset="0.514669" stop-color="#FF31AB"/>
<stop offset="1" stop-color="#7512A2"/>
</linearGradient>
</defs>
</svg>
