<svg width="100" height="36" viewBox="0 0 100 36" fill="none" xmlns="http://www.w3.org/2000/svg">
<path d="M86.9916 7.6958C81.4167 7.6958 76.8974 12.2492 76.8974 17.8668C76.8974 23.4838 81.4167 28.0374 86.9916 28.0374C92.5666 28.0374 97.0859 23.4838 97.0859 17.8668C97.0859 12.2492 92.5666 7.6958 86.9916 7.6958ZM86.9916 9.98995C91.2927 9.98995 94.7917 13.5235 94.7917 17.8668C94.7917 22.2101 91.2927 25.7432 86.9916 25.7432C82.6906 25.7432 79.1915 22.2101 79.1915 17.8668C79.1915 13.5235 82.6906 9.98995 86.9916 9.98995Z" fill="url(#paint0_linear_57_36)"/>
<path d="M78.2736 23.8655C76.9117 25.0352 75.1502 25.7434 73.2268 25.7434C68.9257 25.7434 65.4267 22.2099 65.4267 17.8668C65.4267 13.5235 68.9257 9.99014 73.2268 9.99014C75.1144 9.99014 76.8475 10.671 78.1983 11.802V9.01595C76.6848 8.14936 74.9708 7.69428 73.2268 7.69599C67.6518 7.69599 63.1325 12.2494 63.1325 17.8668C63.1325 23.4838 67.6518 28.0376 73.2268 28.0376C75.0003 28.0392 76.7423 27.5684 78.2736 26.6736V23.8655ZM39.311 23.8323C37.9444 25.0216 36.1678 25.7432 34.2262 25.7432C29.9251 25.7432 26.4261 22.2101 26.4261 17.8668C26.4261 13.5235 29.9251 9.98996 34.2262 9.98996C36.1137 9.98996 37.8464 10.6707 39.197 11.8012V9.01577C37.6838 8.14929 35.97 7.6942 34.2262 7.6958C28.6514 7.6958 24.132 12.2492 24.132 17.8668C24.132 23.4838 28.6514 28.0374 34.2262 28.0374C36.0146 28.0391 37.7707 27.5605 39.311 26.6517V23.8323ZM65.1589 10.0474H53.975V8.03993H65.1587L65.1589 10.0474Z" fill="url(#paint1_linear_57_36)"/>
<path d="M58.8499 9.01507H60.8574V27.4255H58.8499V9.01507ZM53.2867 8.09741H51.222V21.9196C51.222 24.0324 49.2281 25.7512 46.777 25.7512C44.3259 25.7512 42.332 24.0324 42.332 21.9196V8.26938H40.2673V21.9196C40.2673 25.176 43.1818 27.8159 46.7772 27.8159C50.3726 27.8159 53.2867 25.176 53.2867 21.9196V8.09741ZM97.074 26.409H97.1492C97.3713 26.409 97.5332 26.3656 97.6347 26.2794C97.7365 26.1924 97.7874 26.0843 97.7874 25.9545C97.7874 25.82 97.7402 25.7068 97.646 25.615C97.5517 25.5236 97.4313 25.4777 97.2845 25.4777C97.2212 25.4777 97.1509 25.4911 97.074 25.5177V26.409ZM96.4812 25.3676H97.4471C97.6892 25.3676 97.8732 25.4223 98.0003 25.5311C98.1269 25.64 98.1904 25.7723 98.1904 25.927C98.1904 26.0533 98.1475 26.1647 98.0617 26.2605C97.9755 26.3559 97.8334 26.4299 97.6352 26.4815L98.1581 27.2255C98.2214 27.3136 98.2779 27.3745 98.328 27.4077C98.3596 27.4276 98.404 27.4399 98.4606 27.4452V27.5278H98.0003L97.2643 26.5165H97.074V27.2879C97.0841 27.343 97.1077 27.3826 97.1455 27.4076C97.183 27.4325 97.2579 27.4452 97.3695 27.4452V27.5278H96.4509V27.4452C96.5342 27.4452 96.5929 27.4342 96.6274 27.4127C96.6626 27.3898 96.6887 27.3554 96.7012 27.3154C96.7076 27.2934 96.7111 27.2218 96.7111 27.1007V25.7949C96.7111 25.6719 96.7086 25.5994 96.7038 25.5776C96.6935 25.5414 96.6709 25.51 96.6397 25.4889C96.6091 25.4682 96.556 25.4577 96.481 25.4577L96.4812 25.3676ZM97.462 24.837C97.1901 24.837 96.9249 24.9069 96.6662 25.0466C96.4076 25.187 96.2057 25.3865 96.0605 25.6455C95.9153 25.9044 95.8428 26.1748 95.8428 26.4565C95.8428 26.7364 95.9139 27.0047 96.0567 27.2613C96.1994 27.5179 96.3993 27.7175 96.6562 27.8609C96.9132 28.004 97.1819 28.0758 97.462 28.0758C97.7424 28.0758 98.0115 28.0042 98.2693 27.8611C98.5272 27.7175 98.7272 27.5179 98.8698 27.2613C99.0124 27.0047 99.084 26.7364 99.084 26.4565C99.084 26.1748 99.0112 25.9044 98.8662 25.6453C98.7261 25.3916 98.5158 25.1837 98.2605 25.0466C98.0017 24.9071 97.7354 24.837 97.462 24.837ZM97.4621 24.6819C97.7607 24.6819 98.052 24.7583 98.3358 24.9108C98.6161 25.0604 98.8469 25.2882 99.0001 25.5665C99.1594 25.851 99.2393 26.1476 99.2393 26.4565C99.2393 26.7634 99.1607 27.0579 99.0038 27.3402C98.8515 27.6174 98.6232 27.8452 98.3457 27.9969C98.0636 28.1532 97.769 28.2309 97.462 28.2309C97.1549 28.2309 96.8609 28.1532 96.5799 27.9969C96.3028 27.845 96.0748 27.6172 95.9227 27.3402C95.7659 27.0579 95.6874 26.7634 95.6874 26.4565C95.6874 26.1476 95.7672 25.8508 95.9265 25.5664C96.0858 25.2819 96.3074 25.0635 96.5911 24.9108C96.8747 24.7585 97.165 24.6819 97.4621 24.6819Z" fill="url(#paint2_linear_57_36)"/>
<path d="M11.1972 0L10.2065 1.69455L19.4721 17.5383L10.2065 33.5955L11.1972 35.3129L21.4539 17.5383L11.1972 0Z" fill="url(#paint3_linear_57_36)"/>
<path d="M8.12216 5.2583L0.940918 17.5384L8.12216 29.9837L15.3038 17.5384L8.12216 5.2583Z" fill="url(#paint4_linear_57_36)"/>
<path d="M9.65214 2.64233L8.67667 4.31046L16.4125 17.5387L8.67667 30.9444L9.65214 32.6348L18.3635 17.5387L9.65214 2.64233Z" fill="url(#paint5_linear_57_36)"/>
<path d="M25.0644 30.59H24.0776V29.9157H26.736V30.59H25.7492V34.7155H25.0644V30.59ZM27.1727 29.9157H27.7765V31.6797C27.962 31.2645 28.3915 31.0764 28.8035 31.0828C29.297 31.0828 29.6103 31.2645 29.8137 31.5762C30.011 31.8808 30.0866 32.3022 30.0866 32.7886V34.7157H29.4773V32.8214C29.4773 32.5034 29.4246 32.2244 29.297 32.0304C29.1577 31.8353 28.9487 31.7186 28.6354 31.7186C28.3161 31.7186 28.0956 31.8549 27.9677 32.0431C27.8343 32.2312 27.7765 32.4839 27.7765 32.7243V34.7157H27.1727V29.9157ZM33.3913 32.6399C33.3621 32.173 32.9442 31.6475 32.3462 31.6606C31.7312 31.6606 31.3308 32.1598 31.3016 32.6399H33.3913ZM31.29 33.1654C31.319 33.8787 31.8762 34.2418 32.3523 34.2418C32.7757 34.2418 33.0894 34.0151 33.2634 33.6453H33.8903C33.7393 34.034 33.5188 34.3262 33.2518 34.5211C32.9926 34.716 32.6766 34.8207 32.3523 34.8192C31.319 34.8192 30.6805 33.8916 30.6805 32.958C30.6805 31.946 31.3886 31.0828 32.3462 31.0828C32.799 31.0828 33.2112 31.2713 33.513 31.602C33.8842 32.0232 34.0412 32.5749 33.9887 33.1654H31.29ZM35.7724 29.9157H36.4689L37.3165 33.6714L38.158 29.9156H38.6746L39.528 33.6776L40.3638 29.9156H41.06L39.8762 34.7157H39.2434L38.4134 31.0764L37.5835 34.7157H36.9333L35.7724 29.9157ZM41.7541 32.9578C41.7541 33.6583 42.23 34.1836 42.8338 34.1836C43.4375 34.1836 43.9134 33.6583 43.9134 32.9514C43.9134 32.2444 43.4375 31.7188 42.8338 31.7188C42.23 31.7188 41.7541 32.2444 41.7541 32.9514V32.9578ZM41.1506 32.9446C41.1506 32.004 41.7715 31.0828 42.8336 31.0828C43.8957 31.0828 44.517 32.004 44.517 32.9514C44.517 33.8984 43.8959 34.8127 42.8338 34.8127C41.7715 34.8127 41.1506 33.8984 41.1506 32.9514V32.9446ZM45.1342 31.1869H45.703V31.7059C45.883 31.2908 46.2141 31.0896 46.6436 31.0828V31.7577H46.603C46.0337 31.7577 45.738 32.1082 45.738 32.8084V34.7157H45.1342V31.1869ZM47.0769 29.9157H47.6807V34.7158H47.0769V29.9157ZM48.903 32.9514C48.9089 33.6001 49.3151 34.19 50.0119 34.19C50.3195 34.19 50.6038 34.0472 50.8011 33.8204C51.0043 33.5932 51.1205 33.2819 51.1087 32.9319C51.1087 32.5814 50.9869 32.2767 50.7896 32.0625C50.5921 31.8417 50.3195 31.7125 50.0119 31.7125C49.3443 31.7125 48.903 32.2833 48.903 32.9448V32.9514ZM51.6777 34.7155H51.097V34.0992C50.9232 34.4626 50.5691 34.8192 49.9189 34.8192C48.9265 34.8192 48.2996 33.9628 48.2996 32.9448C48.2996 31.8485 49.0075 31.0828 49.9073 31.0828C50.5515 31.0828 50.9461 31.4851 51.074 31.7641V29.9157H51.6777V34.7155ZM52.8218 29.9157H53.3675L52.8569 31.2581H52.3868L52.8218 29.9157ZM54.9302 32.108C54.9302 31.8355 54.7796 31.6279 54.4718 31.6343C54.1757 31.6343 54.0129 31.8548 54.019 32.0884C54.0304 32.3674 54.2569 32.4971 54.5936 32.6004C55.0752 32.7502 55.6036 32.9062 55.621 33.6644C55.6324 34.3523 55.1218 34.819 54.4951 34.819C53.9959 34.819 53.3746 34.5018 53.3458 33.6972H53.9436C53.9669 34.125 54.2745 34.2682 54.5008 34.2682C54.7909 34.2682 55.0174 34.0412 55.0174 33.7426C55.0114 33.3926 54.7733 33.2758 54.2106 33.0681C53.7694 32.9185 53.421 32.6852 53.4152 32.1532C53.4152 31.4851 53.9028 31.0828 54.4773 31.0828C54.913 31.0828 55.4818 31.3231 55.5278 32.108H54.9302ZM58.0506 29.9157H60.291V30.5899H58.7354V31.9911H60.2679V32.6594H58.7354V34.7157H58.0506V29.9157ZM60.8469 31.1869H61.4508V34.7158H60.8469V31.1869ZM60.8469 29.9157H61.4508V30.6289H60.8469V29.9157ZM62.2746 31.1869H62.8434V31.732C62.9944 31.3686 63.3485 31.0764 63.9116 31.0828C64.9215 31.096 65.1884 31.9131 65.1884 32.6461V34.7157H64.5791V32.802C64.5791 32.1662 64.3585 31.7123 63.7431 31.7186C63.151 31.725 62.8785 32.14 62.8785 32.75V34.7157H62.2746V31.1869ZM68.5505 32.6399C68.5212 32.173 68.1032 31.6475 67.5053 31.6606C66.8905 31.6606 66.4898 32.1598 66.4606 32.6399H68.5505ZM66.4491 33.1654C66.4781 33.8787 67.0353 34.2418 67.5114 34.2418C67.9348 34.2418 68.2484 34.0151 68.4226 33.6453H69.0494C68.8987 34.034 68.6779 34.3262 68.4108 34.5211C68.1516 34.716 67.8357 34.8207 67.5114 34.8192C66.4781 34.8192 65.8396 33.8916 65.8396 32.958C65.8396 31.946 66.5478 31.0828 67.5053 31.0828C67.9581 31.0828 68.3703 31.2713 68.6722 31.602C69.0437 32.0232 69.2 32.5749 69.1479 33.1654H66.4491ZM71.1515 32.108C71.1515 31.8355 71.0003 31.6279 70.6927 31.6343C70.3967 31.6343 70.2339 31.8548 70.2397 32.0884C70.2515 32.3674 70.478 32.4971 70.8144 32.6004C71.2967 32.7502 71.8245 32.9062 71.842 33.6644C71.8539 34.3523 71.3428 34.819 70.7162 34.819C70.2166 34.819 69.5955 34.5018 69.5669 33.6972H70.1645C70.188 34.125 70.4956 34.2682 70.7217 34.2682C71.0122 34.2682 71.2383 34.0412 71.2383 33.7426C71.2327 33.3926 70.9946 33.2758 70.4315 33.0681C69.9901 32.9185 69.642 32.6852 69.6365 32.1532C69.6365 31.4851 70.1239 31.0828 70.6986 31.0828C71.1341 31.0828 71.7025 31.3231 71.7491 32.108H71.1515ZM72.7699 31.7125H72.2013V31.1869H72.7699V29.9156H73.3736V31.1869H73.9829V31.7123H73.3736V34.7157H72.7697L72.7699 31.7125ZM80.2656 33.2562C79.9985 34.1318 79.2031 34.8063 78.2282 34.8063C76.9337 34.8063 75.9819 33.6715 75.9819 32.3092C75.9819 30.9923 76.8931 29.8247 78.2227 29.8247C79.3774 29.8308 80.0624 30.7392 80.2711 31.4007H79.5457C79.4063 31.0896 78.9709 30.5056 78.2162 30.4992C77.3052 30.4992 76.6665 31.3357 76.6665 32.3092C76.6665 33.3081 77.3169 34.1318 78.2227 34.1318C79.0524 34.1318 79.4527 33.4311 79.5457 33.2564L80.2656 33.2562ZM83.7213 34.7157H83.1523V34.1706C83.0015 34.534 82.6474 34.8258 82.0847 34.8192C81.0687 34.8127 80.8077 33.9889 80.8077 33.2564V31.1867H81.4113V33.1004C81.4113 33.7363 81.6321 34.19 82.253 34.19C82.8453 34.1836 83.1178 33.7622 83.1178 33.1586V31.1867H83.7213V34.7157ZM84.7331 31.7125H84.1647V31.1869H84.7331V29.9156H85.3367V31.1869H85.9462V31.7123H85.3367V34.7157H84.7331V31.7125ZM86.3852 29.9157H86.9889V34.7158H86.3852V29.9157ZM90.2888 32.6399C90.2594 32.173 89.8417 31.6475 89.2436 31.6606C88.6286 31.6606 88.2283 32.1598 88.1993 32.6399H90.2888ZM88.1875 33.1654C88.2163 33.8787 88.7737 34.2418 89.2496 34.2418C89.6732 34.2418 89.9869 34.0151 90.161 33.6453H90.7878C90.6371 34.034 90.4163 34.3262 90.1493 34.5211C89.89 34.716 89.574 34.8207 89.2496 34.8192C88.2163 34.8192 87.5777 33.8916 87.5777 32.958C87.5777 31.946 88.2861 31.0828 89.2436 31.0828C89.6965 31.0828 90.1087 31.2713 90.4107 31.602C90.7821 32.0232 90.9385 32.5749 90.8864 33.1654H88.1875ZM91.4803 31.1869H92.0492V31.7059C92.2287 31.2908 92.5595 31.0896 92.9889 31.0828V31.7577H92.9485C92.38 31.7577 92.0837 32.1082 92.0837 32.8084V34.7157H91.4803V31.1869ZM94.4476 34.612L93.2402 31.1867H93.8904L94.7609 33.7686L95.6435 31.1867H96.2934L94.5699 36H93.9257L94.4476 34.612Z" fill="url(#paint6_linear_57_36)"/>
<defs>
<linearGradient id="paint0_linear_57_36" x1="76.8974" y1="17.8258" x2="97.0859" y2="17.8258" gradientUnits="userSpaceOnUse">
<stop stop-color="#FF6F05"/>
<stop offset="0.514669" stop-color="#FF31AB"/>
<stop offset="1" stop-color="#7512A2"/>
</linearGradient>
<linearGradient id="paint1_linear_57_36" x1="24.132" y1="17.8258" x2="78.2736" y2="17.8258" gradientUnits="userSpaceOnUse">
<stop stop-color="#FF6F05"/>
<stop offset="0.514669" stop-color="#FF31AB"/>
<stop offset="1" stop-color="#7512A2"/>
</linearGradient>
<linearGradient id="paint2_linear_57_36" x1="40.2673" y1="18.1237" x2="99.2393" y2="18.1237" gradientUnits="userSpaceOnUse">
<stop stop-color="#FF6F05"/>
<stop offset="0.514669" stop-color="#FF31AB"/>
<stop offset="1" stop-color="#7512A2"/>
</linearGradient>
<linearGradient id="paint3_linear_57_36" x1="10.2065" y1="17.5855" x2="21.4539" y2="17.5855" gradientUnits="userSpaceOnUse">
<stop stop-color="#FF6F05"/>
<stop offset="0.514669" stop-color="#FF31AB"/>
<stop offset="1" stop-color="#7512A2"/>
</linearGradient>
<linearGradient id="paint4_linear_57_36" x1="0.940918" y1="17.5714" x2="15.3038" y2="17.5714" gradientUnits="userSpaceOnUse">
<stop stop-color="#FF6F05"/>
<stop offset="0.514669" stop-color="#FF31AB"/>
<stop offset="1" stop-color="#7512A2"/>
</linearGradient>
<linearGradient id="paint5_linear_57_36" x1="8.67667" y1="17.5783" x2="18.3635" y2="17.5783" gradientUnits="userSpaceOnUse">
<stop stop-color="#FF6F05"/>
<stop offset="0.514669" stop-color="#FF31AB"/>
<stop offset="1" stop-color="#7512A2"/>
</linearGradient>
<linearGradient id="paint6_linear_57_36" x1="24.0776" y1="32.9" x2="96.2934" y2="32.9" gradientUnits="userSpaceOnUse">
<stop stop-color="#FF6F05"/>
<stop offset="0.514669" stop-color="#FF31AB"/>
<stop offset="1" stop-color="#7512A2"/>
</linearGradient>
</defs>
</svg>
