<svg width="187" height="34" viewBox="0 0 187 34" fill="none" xmlns="http://www.w3.org/2000/svg">
<path d="M35.0625 0C44.4514 0 52.0625 7.61115 52.0625 17C52.0625 26.3889 44.4514 34 35.0625 34C25.6736 34 18.0625 26.3889 18.0625 17C18.0625 7.61115 25.6736 0 35.0625 0ZM38.3683 10.3884C32.8915 10.3884 28.4509 14.829 28.4509 20.3058C28.4511 25.7825 32.8915 30.2221 38.3683 30.2221C43.8449 30.222 48.2845 25.7824 48.2846 20.3058C48.2846 14.829 43.845 10.3886 38.3683 10.3884Z" fill="#0072DE"/>
<path d="M68.9427 7.70081C70.8127 7.70081 72.4532 8.06631 73.8642 8.79731C75.2922 9.52831 76.3887 10.5738 77.1537 11.9338C77.9357 13.2768 78.3267 14.8408 78.3267 16.6258C78.3267 18.4108 77.9357 19.9748 77.1537 21.3178C76.3887 22.6438 75.2922 23.6723 73.8642 24.4033C72.4532 25.1343 70.8127 25.4998 68.9427 25.4998H62.7207V7.70081H68.9427ZM68.8152 22.4653C70.6852 22.4653 72.1302 21.9553 73.1502 20.9353C74.1702 19.9153 74.6802 18.4788 74.6802 16.6258C74.6802 14.7728 74.1702 13.3278 73.1502 12.2908C72.1302 11.2368 70.6852 10.7098 68.8152 10.7098H66.2907V22.4653H68.8152ZM82.8095 9.68981C82.1805 9.68981 81.6535 9.49431 81.2285 9.10331C80.8205 8.69531 80.6165 8.19381 80.6165 7.59881C80.6165 7.00381 80.8205 6.51081 81.2285 6.11981C81.6535 5.71181 82.1805 5.50781 82.8095 5.50781C83.4385 5.50781 83.957 5.71181 84.365 6.11981C84.79 6.51081 85.0025 7.00381 85.0025 7.59881C85.0025 8.19381 84.79 8.69531 84.365 9.10331C83.957 9.49431 83.4385 9.68981 82.8095 9.68981ZM84.569 11.3728V25.4998H80.999V11.3728H84.569ZM93.6297 11.1433C94.6837 11.1433 95.6102 11.3558 96.4092 11.7808C97.2082 12.1888 97.8372 12.7243 98.2962 13.3873V11.3728H101.892V25.6018C101.892 26.9108 101.628 28.0753 101.101 29.0953C100.574 30.1323 99.7837 30.9483 98.7297 31.5433C97.6757 32.1553 96.4007 32.4613 94.9047 32.4613C92.8987 32.4613 91.2497 31.9938 89.9577 31.0588C88.6827 30.1238 87.9602 28.8488 87.7902 27.2338H91.3347C91.5217 27.8798 91.9212 28.3898 92.5332 28.7638C93.1622 29.1548 93.9187 29.3503 94.8027 29.3503C95.8397 29.3503 96.6812 29.0358 97.3272 28.4068C97.9732 27.7948 98.2962 26.8598 98.2962 25.6018V23.4088C97.8372 24.0718 97.1997 24.6243 96.3837 25.0663C95.5847 25.5083 94.6667 25.7293 93.6297 25.7293C92.4397 25.7293 91.3517 25.4233 90.3657 24.8113C89.3797 24.1993 88.5977 23.3408 88.0197 22.2358C87.4587 21.1138 87.1782 19.8303 87.1782 18.3853C87.1782 16.9573 87.4587 15.6908 88.0197 14.5858C88.5977 13.4808 89.3712 12.6308 90.3402 12.0358C91.3262 11.4408 92.4227 11.1433 93.6297 11.1433ZM98.2962 18.4363C98.2962 17.5693 98.1262 16.8298 97.7862 16.2178C97.4462 15.5888 96.9872 15.1128 96.4092 14.7898C95.8312 14.4498 95.2107 14.2798 94.5477 14.2798C93.8847 14.2798 93.2727 14.4413 92.7117 14.7643C92.1507 15.0873 91.6917 15.5633 91.3347 16.1923C90.9947 16.8043 90.8247 17.5353 90.8247 18.3853C90.8247 19.2353 90.9947 19.9833 91.3347 20.6293C91.6917 21.2583 92.1507 21.7428 92.7117 22.0828C93.2897 22.4228 93.9017 22.5928 94.5477 22.5928C95.2107 22.5928 95.8312 22.4313 96.4092 22.1083C96.9872 21.7683 97.4462 21.2923 97.7862 20.6803C98.1262 20.0513 98.2962 19.3033 98.2962 18.4363ZM107.188 9.68981C106.559 9.68981 106.033 9.49431 105.608 9.10331C105.2 8.69531 104.996 8.19381 104.996 7.59881C104.996 7.00381 105.2 6.51081 105.608 6.11981C106.033 5.71181 106.559 5.50781 107.188 5.50781C107.817 5.50781 108.336 5.71181 108.744 6.11981C109.169 6.51081 109.381 7.00381 109.381 7.59881C109.381 8.19381 109.169 8.69531 108.744 9.10331C108.336 9.49431 107.817 9.68981 107.188 9.68981ZM108.948 11.3728V25.4998H105.378V11.3728H108.948ZM116.632 14.3053V21.1393C116.632 21.6153 116.742 21.9638 116.963 22.1848C117.201 22.3888 117.592 22.4908 118.136 22.4908H119.794V25.4998H117.55C114.541 25.4998 113.036 24.0378 113.036 21.1138V14.3053H111.353V11.3728H113.036V7.87931H116.632V11.3728H119.794V14.3053H116.632ZM135.495 18.1303C135.495 18.6403 135.461 19.0993 135.393 19.5073H125.065C125.15 20.5273 125.507 21.3263 126.136 21.9043C126.765 22.4823 127.539 22.7713 128.457 22.7713C129.783 22.7713 130.726 22.2018 131.287 21.0628H135.138C134.73 22.4228 133.948 23.5448 132.792 24.4288C131.636 25.2958 130.216 25.7293 128.533 25.7293C127.173 25.7293 125.949 25.4318 124.861 24.8368C123.79 24.2248 122.949 23.3663 122.337 22.2613C121.742 21.1563 121.444 19.8813 121.444 18.4363C121.444 16.9743 121.742 15.6908 122.337 14.5858C122.932 13.4808 123.765 12.6308 124.836 12.0358C125.907 11.4408 127.139 11.1433 128.533 11.1433C129.876 11.1433 131.075 11.4323 132.129 12.0103C133.2 12.5883 134.024 13.4128 134.602 14.4838C135.197 15.5378 135.495 16.7533 135.495 18.1303ZM131.797 17.1103C131.78 16.1923 131.449 15.4613 130.803 14.9173C130.157 14.3563 129.366 14.0758 128.431 14.0758C127.547 14.0758 126.799 14.3478 126.187 14.8918C125.592 15.4188 125.227 16.1583 125.091 17.1103H131.797ZM137.182 18.4363C137.182 16.9743 137.479 15.6993 138.074 14.6113C138.669 13.5063 139.494 12.6563 140.548 12.0613C141.602 11.4493 142.809 11.1433 144.169 11.1433C145.92 11.1433 147.365 11.5853 148.504 12.4693C149.66 13.3363 150.433 14.5603 150.824 16.1413H146.974C146.77 15.5293 146.421 15.0533 145.928 14.7133C145.452 14.3563 144.857 14.1778 144.143 14.1778C143.123 14.1778 142.316 14.5518 141.721 15.2998C141.126 16.0308 140.828 17.0763 140.828 18.4363C140.828 19.7793 141.126 20.8248 141.721 21.5728C142.316 22.3038 143.123 22.6693 144.143 22.6693C145.588 22.6693 146.532 22.0233 146.974 20.7313H150.824C150.433 22.2613 149.66 23.4768 148.504 24.3778C147.348 25.2788 145.903 25.7293 144.169 25.7293C142.809 25.7293 141.602 25.4318 140.548 24.8368C139.494 24.2248 138.669 23.3748 138.074 22.2868C137.479 21.1818 137.182 19.8983 137.182 18.4363ZM161.396 11.1688C162.467 11.1688 163.419 11.4068 164.252 11.8828C165.085 12.3418 165.731 13.0303 166.19 13.9483C166.666 14.8493 166.904 15.9373 166.904 17.2123V25.4998H163.334V17.6968C163.334 16.5748 163.054 15.7163 162.493 15.1213C161.932 14.5093 161.167 14.2033 160.198 14.2033C159.212 14.2033 158.43 14.5093 157.852 15.1213C157.291 15.7163 157.01 16.5748 157.01 17.6968V25.4998H153.44V6.62981H157.01V13.1323C157.469 12.5203 158.081 12.0443 158.846 11.7043C159.611 11.3473 160.461 11.1688 161.396 11.1688Z" fill="#5B5F60" fill-opacity="0.64"/>
</svg>
