<svg width="187" height="34" viewBox="0 0 187 34" fill="none" xmlns="http://www.w3.org/2000/svg">
<path d="M22.297 2.125C18.198 2.125 14.875 5.448 14.875 9.54693C14.8751 13.6458 18.1981 16.9689 22.297 16.9689H29.7511V2.125H22.297Z" stroke="#A855F7" stroke-width="4"/>
<path d="M22.297 31.8751C18.198 31.8751 14.875 28.5521 14.875 24.4531C14.8751 20.3543 18.1981 17.0312 22.297 17.0312H29.7511V31.8751H22.297Z" stroke="#A855F7" stroke-width="4"/>
<path d="M37.2021 2.125C41.3011 2.125 44.6241 5.448 44.6241 9.54693C44.624 13.6458 41.301 16.9689 37.2021 16.9689H29.748V2.125H37.2021Z" stroke="#7C3AED" stroke-width="4"/>
<path d="M37.2021 31.8751C41.3011 31.8751 44.6241 28.5521 44.6241 24.4531C44.624 20.3543 41.301 17.0312 37.2021 17.0312H29.748V31.8751H37.2021Z" stroke="#7C3AED" stroke-width="4"/>
<path d="M67.5454 18.3174C67.4434 18.3684 67.4434 18.4194 67.5454 18.4704C69.1604 19.3034 69.9679 20.6889 69.9679 22.6269C69.9679 24.2759 69.4069 25.5254 68.2849 26.3754C67.1629 27.2084 65.6924 27.6249 63.8734 27.6249H57.2689C57.1839 27.6249 57.1074 27.5994 57.0394 27.5484C56.9884 27.4804 56.9629 27.4039 56.9629 27.3189V10.0809C56.9629 9.9959 56.9884 9.9279 57.0394 9.8769C57.1074 9.8089 57.1839 9.7749 57.2689 9.7749H63.6694C67.6984 9.7749 69.7129 11.4069 69.7129 14.6709C69.7129 16.3709 68.9904 17.5864 67.5454 18.3174ZM60.6859 12.8604C60.6009 12.8604 60.5584 12.9029 60.5584 12.9879V16.9659C60.5584 17.0509 60.6009 17.0934 60.6859 17.0934H63.6694C64.4684 17.0934 65.0889 16.9064 65.5309 16.5324C65.9729 16.1584 66.1939 15.6484 66.1939 15.0024C66.1939 14.3394 65.9729 13.8209 65.5309 13.4469C65.0889 13.0559 64.4684 12.8604 63.6694 12.8604H60.6859ZM63.8734 24.5139C64.6554 24.5139 65.2674 24.3184 65.7094 23.9274C66.1514 23.5194 66.3724 22.9669 66.3724 22.2699C66.3724 21.5729 66.1514 21.0289 65.7094 20.6379C65.2674 20.2299 64.6469 20.0259 63.8479 20.0259H60.6859C60.6009 20.0259 60.5584 20.0684 60.5584 20.1534V24.3864C60.5584 24.4714 60.6009 24.5139 60.6859 24.5139H63.8734ZM72.3952 32.6994C72.3442 32.6994 72.3017 32.6654 72.2677 32.5974C72.2337 32.5464 72.2167 32.4784 72.2167 32.3934V30.0474C72.2167 29.9624 72.2422 29.8859 72.2932 29.8179C72.3612 29.7669 72.4377 29.7414 72.5227 29.7414C73.2367 29.7244 73.7977 29.6649 74.2057 29.5629C74.6307 29.4609 74.9622 29.2654 75.2002 28.9764C75.4552 28.6874 75.6507 28.2624 75.7867 27.7014C75.8037 27.6674 75.8037 27.6164 75.7867 27.5484L71.6047 14.8494C71.5877 14.8154 71.5792 14.7729 71.5792 14.7219C71.5792 14.5689 71.6727 14.4924 71.8597 14.4924H75.0472C75.2342 14.4924 75.3532 14.5774 75.4042 14.7474L77.5462 23.0094C77.5632 23.0604 77.5887 23.0859 77.6227 23.0859C77.6567 23.0859 77.6822 23.0604 77.6992 23.0094L79.8412 14.7474C79.8922 14.5774 80.0112 14.4924 80.1982 14.4924H83.3092C83.4112 14.4924 83.4792 14.5264 83.5132 14.5944C83.5642 14.6454 83.5727 14.7304 83.5387 14.8494L79.1272 28.1094C78.7022 29.3504 78.2687 30.2769 77.8267 30.8889C77.3847 31.5179 76.7642 31.9769 75.9652 32.2659C75.1662 32.5549 74.0357 32.6994 72.5737 32.6994H72.3952ZM92.8438 17.0934C92.8438 17.1784 92.8098 17.2549 92.7418 17.3229C92.6908 17.3739 92.6228 17.3994 92.5378 17.3994H90.0898C90.0048 17.3994 89.9623 17.4419 89.9623 17.5269V22.9329C89.9623 23.4939 90.0728 23.9104 90.2938 24.1824C90.5318 24.4544 90.9058 24.5904 91.4158 24.5904H92.2573C92.3423 24.5904 92.4103 24.6244 92.4613 24.6924C92.5293 24.7434 92.5633 24.8114 92.5633 24.8964V27.3189C92.5633 27.5059 92.4613 27.6164 92.2573 27.6504C91.5433 27.6844 91.0333 27.7014 90.7273 27.7014C89.3163 27.7014 88.2623 27.4719 87.5653 27.0129C86.8683 26.5369 86.5113 25.6529 86.4943 24.3609V17.5269C86.4943 17.4419 86.4518 17.3994 86.3668 17.3994H84.9133C84.8283 17.3994 84.7518 17.3739 84.6838 17.3229C84.6328 17.2549 84.6073 17.1784 84.6073 17.0934V14.8239C84.6073 14.7389 84.6328 14.6709 84.6838 14.6199C84.7518 14.5519 84.8283 14.5179 84.9133 14.5179H86.3668C86.4518 14.5179 86.4943 14.4754 86.4943 14.3904V11.3559C86.4943 11.2709 86.5198 11.2029 86.5708 11.1519C86.6388 11.0839 86.7153 11.0499 86.8003 11.0499H89.6563C89.7413 11.0499 89.8093 11.0839 89.8603 11.1519C89.9283 11.2029 89.9623 11.2709 89.9623 11.3559V14.3904C89.9623 14.4754 90.0048 14.5179 90.0898 14.5179H92.5378C92.6228 14.5179 92.6908 14.5519 92.7418 14.6199C92.8098 14.6709 92.8438 14.7389 92.8438 14.8239V17.0934ZM106.437 19.7199C106.539 20.3659 106.573 21.0884 106.539 21.8874C106.522 22.0914 106.411 22.1934 106.207 22.1934H98.3275C98.2255 22.1934 98.1915 22.2359 98.2255 22.3209C98.2765 22.6609 98.37 23.0009 98.506 23.3409C98.948 24.2929 99.849 24.7689 101.209 24.7689C102.297 24.7519 103.156 24.3099 103.785 23.4429C103.853 23.3409 103.929 23.2899 104.014 23.2899C104.065 23.2899 104.125 23.3239 104.193 23.3919L106.029 25.2024C106.114 25.2874 106.156 25.3639 106.156 25.4319C106.156 25.4659 106.122 25.5339 106.054 25.6359C105.493 26.3329 104.771 26.8769 103.887 27.2679C103.003 27.6419 102.034 27.8289 100.98 27.8289C99.5175 27.8289 98.2765 27.4974 97.2565 26.8344C96.2535 26.1714 95.531 25.2449 95.089 24.0549C94.732 23.2049 94.5535 22.0914 94.5535 20.7144C94.5535 19.7794 94.681 18.9549 94.936 18.2409C95.327 17.0339 96.007 16.0734 96.976 15.3594C97.962 14.6454 99.1265 14.2884 100.47 14.2884C102.17 14.2884 103.53 14.7814 104.55 15.7674C105.587 16.7534 106.216 18.0709 106.437 19.7199ZM100.495 17.3994C99.424 17.3994 98.7185 17.9009 98.3785 18.9039C98.3105 19.1249 98.251 19.3969 98.2 19.7199C98.2 19.8049 98.2425 19.8474 98.3275 19.8474H102.739C102.841 19.8474 102.875 19.8049 102.841 19.7199C102.756 19.2269 102.714 18.9889 102.714 19.0059C102.561 18.4959 102.289 18.1049 101.898 17.8329C101.524 17.5439 101.056 17.3994 100.495 17.3994ZM119.566 18.3174C119.464 18.3684 119.464 18.4194 119.566 18.4704C121.181 19.3034 121.989 20.6889 121.989 22.6269C121.989 24.2759 121.428 25.5254 120.306 26.3754C119.184 27.2084 117.713 27.6249 115.894 27.6249H109.29C109.205 27.6249 109.128 27.5994 109.06 27.5484C109.009 27.4804 108.984 27.4039 108.984 27.3189V10.0809C108.984 9.9959 109.009 9.9279 109.06 9.8769C109.128 9.8089 109.205 9.7749 109.29 9.7749H115.69C119.719 9.7749 121.734 11.4069 121.734 14.6709C121.734 16.3709 121.011 17.5864 119.566 18.3174ZM112.707 12.8604C112.622 12.8604 112.579 12.9029 112.579 12.9879V16.9659C112.579 17.0509 112.622 17.0934 112.707 17.0934H115.69C116.489 17.0934 117.11 16.9064 117.552 16.5324C117.994 16.1584 118.215 15.6484 118.215 15.0024C118.215 14.3394 117.994 13.8209 117.552 13.4469C117.11 13.0559 116.489 12.8604 115.69 12.8604H112.707ZM115.894 24.5139C116.676 24.5139 117.288 24.3184 117.73 23.9274C118.172 23.5194 118.393 22.9669 118.393 22.2699C118.393 21.5729 118.172 21.0289 117.73 20.6379C117.288 20.2299 116.668 20.0259 115.869 20.0259H112.707C112.622 20.0259 112.579 20.0684 112.579 20.1534V24.3864C112.579 24.4714 112.622 24.5139 112.707 24.5139H115.894ZM130.356 27.8289C128.928 27.8289 127.704 27.4549 126.684 26.7069C125.664 25.9589 124.967 24.9389 124.593 23.6469C124.355 22.8479 124.236 21.9809 124.236 21.0459C124.236 20.0429 124.355 19.1419 124.593 18.3429C124.984 17.0849 125.689 16.0989 126.709 15.3849C127.729 14.6709 128.953 14.3139 130.381 14.3139C131.775 14.3139 132.965 14.6709 133.951 15.3849C134.937 16.0819 135.634 17.0594 136.042 18.3174C136.314 19.1674 136.45 20.0599 136.45 20.9949C136.45 21.9129 136.331 22.7714 136.093 23.5704C135.719 24.8964 135.022 25.9419 134.002 26.7069C132.999 27.4549 131.784 27.8289 130.356 27.8289ZM130.356 24.7434C130.917 24.7434 131.393 24.5734 131.784 24.2334C132.175 23.8934 132.455 23.4259 132.625 22.8309C132.761 22.2869 132.829 21.6919 132.829 21.0459C132.829 20.3319 132.761 19.7284 132.625 19.2354C132.438 18.6574 132.149 18.2069 131.758 17.8839C131.367 17.5609 130.891 17.3994 130.33 17.3994C129.752 17.3994 129.268 17.5609 128.877 17.8839C128.503 18.2069 128.231 18.6574 128.061 19.2354C127.925 19.6434 127.857 20.2469 127.857 21.0459C127.857 21.8109 127.916 22.4059 128.035 22.8309C128.205 23.4259 128.486 23.8934 128.877 24.2334C129.285 24.5734 129.778 24.7434 130.356 24.7434ZM144.551 27.8289C143.123 27.8289 141.899 27.4549 140.879 26.7069C139.859 25.9589 139.162 24.9389 138.788 23.6469C138.55 22.8479 138.431 21.9809 138.431 21.0459C138.431 20.0429 138.55 19.1419 138.788 18.3429C139.179 17.0849 139.884 16.0989 140.904 15.3849C141.924 14.6709 143.148 14.3139 144.576 14.3139C145.97 14.3139 147.16 14.6709 148.146 15.3849C149.132 16.0819 149.829 17.0594 150.237 18.3174C150.509 19.1674 150.645 20.0599 150.645 20.9949C150.645 21.9129 150.526 22.7714 150.288 23.5704C149.914 24.8964 149.217 25.9419 148.197 26.7069C147.194 27.4549 145.979 27.8289 144.551 27.8289ZM144.551 24.7434C145.112 24.7434 145.588 24.5734 145.979 24.2334C146.37 23.8934 146.65 23.4259 146.82 22.8309C146.956 22.2869 147.024 21.6919 147.024 21.0459C147.024 20.3319 146.956 19.7284 146.82 19.2354C146.633 18.6574 146.344 18.2069 145.953 17.8839C145.562 17.5609 145.086 17.3994 144.525 17.3994C143.947 17.3994 143.463 17.5609 143.072 17.8839C142.698 18.2069 142.426 18.6574 142.256 19.2354C142.12 19.6434 142.052 20.2469 142.052 21.0459C142.052 21.8109 142.111 22.4059 142.23 22.8309C142.4 23.4259 142.681 23.8934 143.072 24.2334C143.48 24.5734 143.973 24.7434 144.551 24.7434ZM158.184 27.8034C157.045 27.8034 156.05 27.6419 155.2 27.3189C154.35 26.9959 153.687 26.5454 153.211 25.9674C152.752 25.3894 152.523 24.7349 152.523 24.0039V23.7489C152.523 23.6639 152.548 23.5959 152.599 23.5449C152.667 23.4769 152.744 23.4429 152.829 23.4429H155.659C155.744 23.4429 155.812 23.4769 155.863 23.5449C155.931 23.5959 155.965 23.6639 155.965 23.7489V23.7744C155.965 24.1484 156.169 24.4714 156.577 24.7434C157.002 24.9984 157.529 25.1259 158.158 25.1259C158.736 25.1259 159.204 25.0154 159.561 24.7944C159.918 24.5564 160.096 24.2674 160.096 23.9274C160.096 23.6214 159.943 23.3919 159.637 23.2389C159.331 23.0859 158.83 22.9244 158.133 22.7544C157.334 22.5504 156.705 22.3549 156.246 22.1679C155.158 21.7939 154.291 21.3349 153.645 20.7909C152.999 20.2469 152.676 19.4649 152.676 18.4449C152.676 17.1869 153.16 16.1924 154.129 15.4614C155.115 14.7134 156.416 14.3394 158.031 14.3394C159.119 14.3394 160.071 14.5179 160.887 14.8749C161.703 15.2149 162.332 15.6994 162.774 16.3284C163.233 16.9574 163.462 17.6714 163.462 18.4704C163.462 18.5554 163.428 18.6319 163.36 18.6999C163.309 18.7509 163.241 18.7764 163.156 18.7764H160.428C160.343 18.7764 160.266 18.7509 160.198 18.6999C160.147 18.6319 160.122 18.5554 160.122 18.4704C160.122 18.0964 159.926 17.7819 159.535 17.5269C159.161 17.2719 158.66 17.1444 158.031 17.1444C157.47 17.1444 157.011 17.2464 156.654 17.4504C156.297 17.6544 156.118 17.9349 156.118 18.2919C156.118 18.6319 156.288 18.8869 156.628 19.0569C156.985 19.2269 157.572 19.4054 158.388 19.5924C158.575 19.6434 158.787 19.7029 159.025 19.7709C159.263 19.8219 159.518 19.8899 159.79 19.9749C160.997 20.3319 161.949 20.7909 162.646 21.3519C163.343 21.9129 163.692 22.7289 163.692 23.7999C163.692 25.0579 163.19 26.0439 162.187 26.7579C161.201 27.4549 159.867 27.8034 158.184 27.8034ZM173.253 17.0934C173.253 17.1784 173.219 17.2549 173.151 17.3229C173.1 17.3739 173.032 17.3994 172.947 17.3994H170.499C170.414 17.3994 170.372 17.4419 170.372 17.5269V22.9329C170.372 23.4939 170.482 23.9104 170.703 24.1824C170.941 24.4544 171.315 24.5904 171.825 24.5904H172.667C172.752 24.5904 172.82 24.6244 172.871 24.6924C172.939 24.7434 172.973 24.8114 172.973 24.8964V27.3189C172.973 27.5059 172.871 27.6164 172.667 27.6504C171.953 27.6844 171.443 27.7014 171.137 27.7014C169.726 27.7014 168.672 27.4719 167.975 27.0129C167.278 26.5369 166.921 25.6529 166.904 24.3609V17.5269C166.904 17.4419 166.861 17.3994 166.776 17.3994H165.323C165.238 17.3994 165.161 17.3739 165.093 17.3229C165.042 17.2549 165.017 17.1784 165.017 17.0934V14.8239C165.017 14.7389 165.042 14.6709 165.093 14.6199C165.161 14.5519 165.238 14.5179 165.323 14.5179H166.776C166.861 14.5179 166.904 14.4754 166.904 14.3904V11.3559C166.904 11.2709 166.929 11.2029 166.98 11.1519C167.048 11.0839 167.125 11.0499 167.21 11.0499H170.066C170.151 11.0499 170.219 11.0839 170.27 11.1519C170.338 11.2029 170.372 11.2709 170.372 11.3559V14.3904C170.372 14.4754 170.414 14.5179 170.499 14.5179H172.947C173.032 14.5179 173.1 14.5519 173.151 14.6199C173.219 14.6709 173.253 14.7389 173.253 14.8239V17.0934Z" fill="#5B5F60" fill-opacity="0.64"/>
</svg>
