<svg width="187" height="34" viewBox="0 0 187 34" fill="none" xmlns="http://www.w3.org/2000/svg">
<path d="M48.875 0C54.743 0 59.5 4.75697 59.5 10.625V23.375C59.5 29.243 54.743 34 48.875 34H36.125C30.257 34 25.5 29.243 25.5 23.375V10.625C25.5 4.75697 30.257 0 36.125 0H48.875ZM35.1548 8.16278V25.8372H38.7854V11.398L44.0336 25.8372H49.8452V8.16278H46.227V22.7773L40.9302 8.16278H35.1548Z" fill="#0072DE"/>
<path d="M73.7636 24.4375H69.9004V5.63128H76.0459L82.3444 23.0095L81.6814 23.1753V5.63128H85.5319V24.4375H79.3481L73.0496 7.11028L73.7636 6.94453V24.4375ZM90.1564 18.853V16.2393H99.1324L98.7499 16.9023C98.7499 16.8343 98.7499 16.7705 98.7499 16.711C98.7499 16.643 98.7499 16.5793 98.7499 16.5198C98.7499 16.0353 98.6352 15.572 98.4057 15.13C98.1762 14.6795 97.8192 14.314 97.3347 14.0335C96.8587 13.7445 96.2467 13.6 95.4987 13.6C94.7507 13.6 94.1047 13.7615 93.5607 14.0845C93.0252 14.399 92.6129 14.8538 92.3239 15.4488C92.0434 16.0438 91.9032 16.762 91.9032 17.6035C91.9032 18.4705 92.0392 19.2143 92.3112 19.8348C92.5917 20.4468 93.0039 20.9185 93.5479 21.25C94.1004 21.5815 94.7847 21.7473 95.6007 21.7473C96.1277 21.7473 96.5824 21.7005 96.9649 21.607C97.3474 21.505 97.6577 21.3775 97.8957 21.2245C98.1422 21.0715 98.3292 20.9015 98.4567 20.7145C98.5842 20.5275 98.6607 20.3448 98.6862 20.1663H102.588C102.537 20.7358 102.341 21.2968 102.001 21.8493C101.661 22.3933 101.189 22.8863 100.586 23.3283C99.9824 23.7618 99.2472 24.106 98.3802 24.361C97.5217 24.616 96.5399 24.7435 95.4349 24.7435C93.9389 24.7435 92.6342 24.446 91.5207 23.851C90.4072 23.2475 89.5444 22.4188 88.9324 21.3648C88.3204 20.3023 88.0144 19.0783 88.0144 17.6928C88.0144 16.2903 88.3247 15.062 88.9452 14.008C89.5742 12.9455 90.4454 12.121 91.5589 11.5345C92.6809 10.9395 93.9772 10.642 95.4477 10.642C96.9522 10.642 98.2527 10.9438 99.3492 11.5473C100.446 12.1423 101.291 12.9795 101.886 14.059C102.481 15.13 102.779 16.3795 102.779 17.8075C102.779 18.02 102.775 18.224 102.766 18.4195C102.758 18.615 102.745 18.7595 102.728 18.853H90.1564ZM111.805 24.718C111.287 24.718 110.751 24.6713 110.199 24.5778C109.655 24.4928 109.145 24.3185 108.669 24.055C108.201 23.783 107.823 23.3878 107.534 22.8693C107.245 22.3508 107.1 21.6665 107.1 20.8165C107.1 20.6295 107.1 20.4383 107.1 20.2428C107.1 20.0473 107.1 19.8518 107.1 19.6563V13.957H103.976V10.897H104.856C105.366 10.897 105.77 10.8758 106.067 10.8333C106.374 10.7908 106.599 10.6845 106.743 10.5145C106.896 10.336 106.994 10.0598 107.037 9.68578C107.079 9.31178 107.1 8.79753 107.1 8.14303V6.43453H111.066V10.897H115.005V13.957H111.066V18.8275C111.066 18.9805 111.066 19.1293 111.066 19.2738C111.066 19.4183 111.066 19.5585 111.066 19.6945C111.066 20.281 111.134 20.757 111.27 21.1225C111.414 21.488 111.767 21.6708 112.328 21.6708C112.608 21.6708 112.872 21.6453 113.118 21.5943C113.373 21.5433 113.565 21.4923 113.692 21.4413V24.412C113.514 24.4885 113.263 24.5565 112.94 24.616C112.617 24.684 112.239 24.718 111.805 24.718ZM122.738 24.7435C121.608 24.7435 120.567 24.4758 119.615 23.9403C118.663 23.3963 117.898 22.593 117.32 21.5305C116.742 20.468 116.453 19.159 116.453 17.6035C116.453 16.116 116.746 14.8538 117.332 13.8168C117.927 12.7798 118.701 11.9935 119.653 11.458C120.613 10.914 121.642 10.642 122.738 10.642C123.809 10.642 124.787 10.914 125.671 11.458C126.563 12.002 127.277 12.7458 127.813 13.6893C128.348 14.6243 128.616 15.7038 128.616 16.9278C128.616 16.9703 128.616 17.0128 128.616 17.0553C128.616 17.0893 128.616 17.1275 128.616 17.17L126.908 17.1955C126.908 17.17 126.908 17.1445 126.908 17.119C126.908 17.085 126.908 17.0553 126.908 17.0298C126.908 16.3923 126.755 15.844 126.449 15.385C126.143 14.926 125.747 14.5733 125.263 14.3268C124.778 14.0718 124.273 13.9443 123.746 13.9443C122.87 13.9443 122.114 14.2375 121.476 14.824C120.839 15.402 120.52 16.3285 120.52 17.6035C120.52 18.8785 120.839 19.8178 121.476 20.4213C122.122 21.0163 122.879 21.3138 123.746 21.3138C124.29 21.3138 124.804 21.1863 125.288 20.9313C125.773 20.6678 126.164 20.298 126.461 19.822C126.759 19.346 126.908 18.785 126.908 18.139L128.616 18.2283C128.616 19.4438 128.353 20.5445 127.826 21.5305C127.307 22.508 126.602 23.29 125.709 23.8765C124.825 24.4545 123.835 24.7435 122.738 24.7435ZM126.908 24.4375V4.50928H130.873V24.4375H126.908ZM140.67 24.7308C139.208 24.7308 137.92 24.429 136.807 23.8255C135.693 23.222 134.822 22.3933 134.193 21.3393C133.573 20.2768 133.262 19.0528 133.262 17.6673C133.262 16.2903 133.573 15.0748 134.193 14.0208C134.822 12.9583 135.693 12.1338 136.807 11.5473C137.92 10.9523 139.208 10.6548 140.67 10.6548C142.132 10.6548 143.42 10.9523 144.533 11.5473C145.647 12.1338 146.514 12.9583 147.134 14.0208C147.763 15.0748 148.078 16.2903 148.078 17.6673C148.078 19.0528 147.763 20.2768 147.134 21.3393C146.514 22.3933 145.647 23.222 144.533 23.8255C143.42 24.429 142.132 24.7308 140.67 24.7308ZM140.67 21.5943C141.359 21.5943 141.958 21.4328 142.468 21.1098C142.978 20.7868 143.373 20.332 143.654 19.7455C143.934 19.1505 144.074 18.4578 144.074 17.6673C144.074 16.8768 143.934 16.1925 143.654 15.6145C143.373 15.028 142.978 14.5775 142.468 14.263C141.958 13.9485 141.359 13.7913 140.67 13.7913C139.99 13.7913 139.391 13.9485 138.872 14.263C138.362 14.5775 137.967 15.028 137.687 15.6145C137.406 16.1925 137.266 16.8768 137.266 17.6673C137.266 18.4578 137.406 19.1505 137.687 19.7455C137.967 20.332 138.362 20.7868 138.872 21.1098C139.391 21.4328 139.99 21.5943 140.67 21.5943ZM157.103 24.718C156.584 24.718 156.049 24.6713 155.496 24.5778C154.952 24.4928 154.442 24.3185 153.966 24.055C153.499 23.783 153.12 23.3878 152.831 22.8693C152.542 22.3508 152.398 21.6665 152.398 20.8165C152.398 20.6295 152.398 20.4383 152.398 20.2428C152.398 20.0473 152.398 19.8518 152.398 19.6563V13.957H149.274V10.897H150.154C150.664 10.897 151.068 10.8758 151.365 10.8333C151.671 10.7908 151.896 10.6845 152.041 10.5145C152.194 10.336 152.292 10.0598 152.334 9.68578C152.377 9.31178 152.398 8.79753 152.398 8.14303V6.43453H156.363V10.897H160.303V13.957H156.363V18.8275C156.363 18.9805 156.363 19.1293 156.363 19.2738C156.363 19.4183 156.363 19.5585 156.363 19.6945C156.363 20.281 156.431 20.757 156.567 21.1225C156.712 21.488 157.064 21.6708 157.625 21.6708C157.906 21.6708 158.169 21.6453 158.416 21.5943C158.671 21.5433 158.862 21.4923 158.99 21.4413V24.412C158.811 24.4885 158.56 24.5565 158.237 24.616C157.914 24.684 157.536 24.718 157.103 24.718Z" fill="#5B5F60" fill-opacity="0.64"/>
</svg>
