<svg width="139" height="32" viewBox="0 0 139 32" fill="none" xmlns="http://www.w3.org/2000/svg">
<path fill-rule="evenodd" clip-rule="evenodd" d="M16.2315 3.59975C14.4316 3.64983 12.6818 4.00036 11.0322 4.75007L13.1819 8.55012C14.1319 8.15023 15.2321 7.90056 16.2315 7.90056C16.582 7.90056 16.8818 7.94992 17.2316 7.99928C21.3314 8.29974 24.6314 12.5505 24.3324 16.5995C23.9818 21.0491 20.4314 23.8498 16.2315 24.0501H15.431C12.6818 23.4499 10.3819 22.3003 9.03199 19.6999L4.5323 11.8995C3.93139 13.7001 3.7318 15.4005 3.88131 17.2505C4.58238 23.1509 9.08207 27.6498 14.9817 28.3502C15.3816 28.4002 15.8323 28.4002 16.2315 28.4002C23.0819 28.3001 28.5817 22.8497 28.6818 16.0501C28.5817 9.29983 23.431 4.09979 16.8818 3.59975H16.2315ZM16.2315 32C7.43242 32 0.182129 24.8005 0.182129 16.0501C0.182129 11.7507 1.88114 7.84977 4.68182 4.95037L12.3313 18.1504C12.6811 18.7492 13.1811 19.3 13.7806 19.75C14.4817 20.1506 15.2808 20.4496 16.1306 20.4496H16.2308C19.3312 20.5498 21.4802 17.1997 20.4307 14.4498C19.8305 12.7 18.0807 11.5504 16.2315 11.5504C15.9811 11.5504 15.7307 11.5504 15.4811 11.6005C14.1312 11.7507 12.7813 12.8996 12.1811 14.1L6.13188 3.59975C8.98272 1.27133 12.5506 -0.000355046 16.2315 7.43558e-08C25.0821 7.43558e-08 32.2816 7.20021 32.2816 16.0501C32.2816 24.8005 25.0821 32 16.2315 32ZM57.0821 17.9501L54.6326 13.7995C54.5325 14.2001 54.4824 14.6 54.4824 15.05V26.5009H58.8819V21.0999L57.0821 17.9501ZM83.1323 17.0995L85.4823 21.15V26.4501H85.4322V26.5002H80.4819V12.5505L83.1323 17.0995ZM83.1323 14.9005L85.4823 18.8994V16.3005C85.4823 14.4004 88.6822 14.2509 88.6822 16.3005V26.4501H91.6324V26.5002H94.182V16.3005C94.182 14.4004 97.3825 14.2509 97.3825 16.3005V26.5002H102.333V16.0501C102.333 10.4001 95.2321 9.35062 92.6325 12.8996C91.0322 10.7005 87.7322 10.2498 85.4315 11.5504V10.85H80.7816L83.1323 14.9005ZM110.732 19.8001L105.332 10.4501V26.4509H109.732V25.8006C110.788 26.3286 111.952 26.6025 113.132 26.6004C117.382 26.6004 120.882 23.1008 120.882 18.8007C120.882 14.5514 117.382 11.0511 113.132 11.0511C111.882 11.0511 110.732 11.3515 109.733 11.8508V5.40105H105.332V8.2003L110.832 17.6504C111.233 16.8506 112.132 16.2511 113.132 16.2511C114.533 16.2511 115.682 17.4007 115.682 18.8007C115.682 20.2007 114.533 21.351 113.132 21.351C112.032 21.351 111.132 20.7508 110.732 19.8008V19.8001ZM128.332 19.9496L124.733 13.7502C123.532 15.1001 122.833 16.8499 122.833 18.8C122.833 23.0993 126.333 26.5997 130.632 26.5997C134.882 26.5997 138.382 23.1001 138.382 18.8C138.382 14.5507 134.882 11.0503 130.632 11.0503C128.682 11.0503 126.932 11.75 125.532 12.9504L128.332 17.7004C128.541 17.2675 128.867 16.9021 129.274 16.6457C129.681 16.3893 130.151 16.2523 130.632 16.2504C132.032 16.2504 133.183 17.4 133.183 18.8C133.183 20.1999 132.032 21.3503 130.632 21.3503C129.632 21.3503 128.732 20.7994 128.332 19.9496ZM71.6313 22.4505C72.4325 22.1501 72.9819 21.3996 73.1321 20.5498H78.232C77.8647 22.0987 77.0379 23.5004 75.86 24.5712C74.6821 25.642 73.2081 26.3318 71.6313 26.5503C71.3316 26.5503 70.9817 26.5997 70.6319 26.5997C66.3826 26.5997 62.8823 23.1001 62.8823 18.8C62.8823 17.0995 63.4317 15.6001 64.3324 14.3003L68.332 21.15C68.7326 22.0499 69.5818 22.6494 70.6319 22.6494C70.9817 22.6494 71.3316 22.6 71.6313 22.4505ZM71.6313 17.4501H73.1822C73.0821 16.5008 72.4812 15.7496 71.6313 15.4005C71.3316 15.2503 70.9817 15.2002 70.6319 15.2002C69.2827 15.2002 68.2318 16.1502 68.1317 17.4501H71.6313ZM71.6313 11.1004C71.3316 11.1004 70.9817 11.0503 70.6319 11.0503C68.5323 11.0503 66.5321 11.9503 65.1321 13.3996L68.832 19.8001V19.4495H78.3823C78.3823 19.1991 78.4323 19.0003 78.4323 18.8C78.4323 14.9005 75.4313 11.6005 71.6313 11.1004ZM57.0821 15.7489L55.2321 12.5991C55.7138 12.0219 56.3586 11.6038 57.0821 11.3994C57.4827 11.2492 57.9319 11.1991 58.3325 11.1991H61.8822V15.2997H60.8814C59.7318 15.2997 58.8819 16.0987 58.8819 17.2991V18.85L57.0821 15.7489ZM41.7831 19.8001L36.332 10.4501V26.4509H40.733V25.8006C41.7831 26.3013 42.9327 26.6004 44.1324 26.6004C48.3824 26.6004 51.9328 23.1008 51.9328 18.8007C51.9328 14.5514 48.3824 11.0511 44.1324 11.0511C42.9327 11.0511 41.7831 11.3515 40.733 11.8508V5.40105H36.332V8.2003L41.8318 17.6504C42.2324 16.8506 43.1316 16.2511 44.1317 16.2511C45.5324 16.2511 46.682 17.4007 46.682 18.8007C46.682 20.2007 45.5317 21.3503 44.1317 21.3503C43.0822 21.3503 42.183 20.7501 41.7831 19.8001Z" fill="url(#paint0_linear_57_13)"/>
<defs>
<linearGradient id="paint0_linear_57_13" x1="0.182129" y1="15.9357" x2="138.382" y2="15.9357" gradientUnits="userSpaceOnUse">
<stop stop-color="#FF6F05"/>
<stop offset="0.514669" stop-color="#FF31AB"/>
<stop offset="1" stop-color="#7512A2"/>
</linearGradient>
</defs>
</svg>
