<svg width="122" height="36" viewBox="0 0 122 36" fill="none" xmlns="http://www.w3.org/2000/svg">
<path d="M0.381836 18C0.381836 27.9257 8.45886 36 18.3883 36C28.3154 36 36.3921 27.9257 36.3921 18C36.3921 8.07429 28.3154 0 18.3883 0C8.45886 0 0.381836 8.07429 0.381836 18Z" fill="white"/>
<path d="M35.5797 18C35.5797 27.4886 27.8794 35.1902 18.3885 35.1902C8.89749 35.1902 1.19727 27.4882 1.19727 18C1.19727 8.51176 8.89681 0.809814 18.3881 0.809814C27.8794 0.809814 35.5797 8.51142 35.5797 18Z" fill="url(#paint0_linear_57_14)"/>
<path d="M18.3782 0.810303C8.88961 0.822988 1.19727 8.51156 1.19727 18.0001C1.19727 23.6446 3.92161 28.6589 8.12572 31.796L18.3782 0.810303Z" fill="#A234FD"/>
<path d="M14.6504 12.0087H2.49268L12.3052 19.1058L14.6504 12.0087ZM18.3879 0.810303L14.6617 12.0087H22.5601L18.3879 0.810303Z" fill="white"/>
<path d="M12.3032 19.1057L8.21973 31.4873L18.3885 23.9016L29.4302 31.3073L25.2299 19.093L34.4637 12.0085L12.3032 19.1057Z" fill="white"/>
<path d="M56.9727 25.1404L62.8699 9.41968H66.2962L72.0734 25.1404H68.5451L64.5885 13.4134L60.6913 25.1404H56.9727Z" fill="#A234FD"/>
<path d="M61.1552 25.1405L64.5883 22.3872L67.9634 25.1405H61.1552ZM73.8865 9.4197H77.3436V22.2684H82.799V25.1405H73.8865V9.4197ZM81.4647 9.4197H92.5885V12.2577H88.6981V25.1744H85.163V12.2577H81.4647V9.4197ZM94.8115 9.45369H103.568V12.2577H98.2329V15.7249H103.26V18.5634H98.2333V22.2344H105.067L102.728 25.1744H94.8115V9.45369ZM106.343 9.45369H110.878L113.398 13.8553L115.863 9.45369H120.383L115.46 16.5919L121.998 25.1744H117.613L113.524 19.5831L109.336 25.1744H104.914L111.342 16.6259L106.343 9.45369ZM55.9187 13.6174V10.1843C52.108 8.39996 48.1039 9.65764 45.6497 13.4307C43.9062 16.4219 44.1373 19.3792 46.3431 22.3364C48.2503 24.6986 51.4146 25.8883 55.9187 24.7838V21.1635C53.0788 22.6763 49.7559 22.0132 48.427 19.6851C46.95 16.1328 48.9999 12.8356 51.8687 12.5637C53.3576 12.4449 54.86 12.7336 55.9187 13.6174Z" fill="#A234FD"/>
<defs>
<linearGradient id="paint0_linear_57_14" x1="1.19727" y1="17.9309" x2="35.58" y2="17.9309" gradientUnits="userSpaceOnUse">
<stop stop-color="#7512A2"/>
<stop offset="0.485331" stop-color="#FF31AB"/>
<stop offset="1" stop-color="#FF6F05"/>
</linearGradient>
</defs>
</svg>
