<svg width="121" height="32" viewBox="0 0 121 32" fill="none" xmlns="http://www.w3.org/2000/svg">
<path d="M22.1641 6.36941C21.742 6.06856 21.1354 5.76286 20.6502 6.2481C20.3493 6.54895 19.3789 7.76205 19.1945 8.12598C18.8936 8.61122 19.2527 9.15469 19.5584 9.39731C21.0724 10.6686 25.6142 13.8809 31.0635 20.6015C31.3061 20.9024 32.0339 21.145 32.2135 20.422C32.2717 20.1794 32.5774 18.7285 32.6987 17.8793C32.8783 16.7293 32.3979 16.1227 32.1553 15.8219C31.67 15.3318 26.2208 9.51862 22.1641 6.36941Z" fill="url(#paint0_linear_57_23)"/>
<path d="M17.1369 0.192211C15.6811 0.920072 12.595 2.91926 12.4106 3.04057C11.6827 3.46273 11.0762 4.13236 12.2311 4.79714C14.2885 5.94716 16.5303 7.46111 17.1369 7.70373C18.2286 8.2472 18.5295 7.76196 19.3156 6.73325C20.223 5.58323 21.0722 4.61275 21.9213 3.46273C22.1639 3.16188 22.95 2.37094 22.2222 1.82747C21.8582 1.58485 19.6795 0.434831 18.9517 0.192211C18.5295 0.0709008 17.8647 -0.171719 17.1369 0.192211Z" fill="url(#paint1_linear_57_23)"/>
<path d="M8.53869 28.2924C6.60258 27.1424 6.8452 25.0801 7.4469 24.294C7.99037 23.5662 16.9576 11.3332 17.1372 11.0324C17.8019 10.0619 18.5298 10.3045 18.952 10.6102C20.0437 11.3381 23.193 14.0603 24.1586 15.1521C24.8234 15.88 24.1586 16.8456 23.8577 17.7578C23.3143 19.3882 18.6511 27.7489 16.5937 30.8982C16.5937 30.8982 15.565 32.713 13.9879 31.6842C13.3814 31.3203 8.71823 28.4137 8.53869 28.2924Z" fill="url(#paint2_linear_57_23)"/>
<path d="M4.05495 3.46265C2.90493 4.0692 1.26967 4.9766 0.4205 5.70446C-0.428671 6.24793 0.119651 6.97579 1.02705 7.33972C4.17626 8.66928 10.9599 12.5464 12.3526 13.3907C12.896 13.7546 13.5657 14.0554 14.2887 13.3324C14.5895 13.0316 16.1666 11.0324 16.5305 10.5472C17.137 9.76107 16.7731 9.09144 16.4092 8.79059C13.5657 6.73317 9.01896 4.37005 6.11237 3.22003C5.5689 3.03564 4.84104 3.03564 4.05495 3.46265Z" fill="url(#paint3_linear_57_23)"/>
<path d="M54.2629 22.4794C54.2629 22.7803 54.0834 22.9016 53.6564 22.9016H51.3564C50.7498 22.9016 50.449 22.659 50.2646 22.1155L49.0515 18.7237H41.603L40.3899 22.1155C40.2104 22.659 39.9047 22.9016 39.2981 22.9016H37.2989C36.8768 22.9016 36.6924 22.7803 36.6924 22.4794C36.6924 22.3581 36.7506 22.2368 36.8137 22.1155L43.1121 5.64159C43.2917 5.15635 43.5974 4.8555 44.1408 4.8555H46.8048C47.29 4.8555 47.5909 5.15635 47.8335 5.70467L54.1416 22.1737C54.1999 22.2368 54.2629 22.4164 54.2629 22.4794ZM45.4219 8.30556H45.3005L42.5735 15.8753H48.0858L45.4219 8.30556ZM57.8974 16.6614V10.7269C57.8974 10.1834 57.6548 9.94082 57.1113 9.94082H55.2334C54.7482 9.94082 54.5056 10.1834 54.5056 10.7269V17.5688C54.5056 20.4754 55.5343 23.1394 59.29 23.1394C61.1048 23.1394 62.4392 22.5328 63.468 20.9606H63.5893V22.0524C63.5893 22.5959 63.8319 22.8385 64.3171 22.8385H66.1319C66.6172 22.8385 66.8598 22.5959 66.8598 22.0524V10.79C66.8598 10.2465 66.6172 10.0039 66.1319 10.0039H64.254C63.7688 10.0039 63.5262 10.2465 63.5262 10.79V15.8171C63.5262 18.5441 62.3762 20.3589 60.3139 20.3589C58.5039 20.3589 57.8974 19.0245 57.8974 16.6614ZM76.8509 11.0908C76.9722 10.6687 76.8509 10.4843 76.3657 10.3048C75.3952 9.88259 74.1869 9.6982 73.2164 9.6982C70.4312 9.6982 68.2524 10.9113 68.2524 13.5122C68.2524 15.5114 69.4024 16.6032 71.2803 17.3893C73.3377 18.1754 74.1869 18.6024 74.1869 19.4467C74.1869 20.4754 73.1582 20.7811 72.1295 20.7811C70.3729 20.7811 69.5868 19.9319 69.1016 19.9319C68.7377 19.9319 68.5581 20.1115 68.495 20.5385L68.3737 21.7516C68.3155 22.1155 68.432 22.4164 68.859 22.659C69.7081 23.0811 71.0377 23.3238 72.2508 23.3238C74.9148 23.3238 77.5788 22.232 77.5788 19.2671C77.5788 17.4523 76.7296 16.2975 74.5508 15.3901C72.7943 14.6622 71.6443 14.2401 71.6443 13.3327C71.6443 12.6679 72.3721 12.2409 73.4008 12.2409C74.8565 12.2409 75.5796 12.8474 76.0648 12.8474C76.3656 12.8474 76.55 12.7261 76.6083 12.3622L76.8509 11.0908ZM91.6895 21.9942C91.6895 26.5991 89.2051 28.6565 84.4206 28.6565C83.0862 28.6565 81.514 28.3557 80.4853 27.9287C79.7575 27.6278 79.6362 27.4434 79.7575 26.8369L79.937 25.6238C79.9952 25.2599 80.1796 25.0803 80.5436 25.0803C81.1501 25.0803 82.1206 25.9877 84.4789 25.9877C87.0846 25.9877 88.4142 24.6533 88.4142 21.9311V21.0237H88.3559C87.4485 22.4794 85.9928 22.9598 84.2993 22.9598C80.5436 22.9598 78.6075 19.9319 78.6075 16.2975C78.6075 13.0269 80.4853 9.6982 84.2411 9.6982C86.0559 9.6982 87.4534 10.3048 88.419 11.5761H88.5403V10.8482C88.5403 10.3048 88.783 10.0621 89.3264 10.0621H91.083C91.5682 10.0621 91.8108 10.3048 91.8108 10.8482V21.9942H91.6895ZM88.2977 16.4236C88.2977 13.9392 86.9633 12.367 85.0854 12.367C83.028 12.367 81.9944 14.3031 81.9944 16.3654C81.9944 18.4859 83.0231 20.3638 85.0223 20.3638C87.1477 20.2959 88.2977 18.6024 88.2977 16.4236ZM94.0527 22.9016H95.9305C96.474 22.9016 96.7166 22.659 96.7166 22.1155V17.0884C96.7166 14.604 97.5658 12.6048 99.6863 12.6048C100.351 12.6048 100.715 12.7261 101.021 12.7261C101.443 12.7261 101.686 12.5466 101.686 12.0613V10.5474C101.686 10.0621 101.506 9.88259 101.263 9.81951C101.021 9.76128 100.599 9.6982 100.113 9.6982C98.5994 9.6982 97.6289 10.363 96.7846 11.8187H96.6633V10.8482C96.6633 10.3048 96.4206 10.0621 95.8772 10.0621H94.0624C93.5771 10.0621 93.3345 10.3048 93.3345 10.8482V22.1737C93.3248 22.659 93.5674 22.9016 94.0527 22.9016ZM104.408 3.52109C105.499 3.52109 106.344 4.42849 106.344 5.4572C106.344 6.54899 105.495 7.39331 104.408 7.39331C103.379 7.39331 102.472 6.48591 102.472 5.4572C102.472 4.42849 103.321 3.52109 104.408 3.52109ZM102.714 10.79C102.714 10.2465 102.957 10.0039 103.442 10.0039H105.32C105.805 10.0039 106.048 10.2465 106.048 10.79V22.1155C106.048 22.659 105.805 22.9016 105.32 22.9016H103.442C102.957 22.9016 102.714 22.659 102.714 22.1155V10.79ZM117.553 21.2081C116.645 22.6007 115.19 23.2655 113.433 23.2655C109.556 23.2655 107.678 19.995 107.678 16.3023C107.678 13.0318 109.614 9.70305 113.249 9.70305C115.127 9.70305 116.461 10.3096 117.427 11.5809H117.485V4.30718C117.485 3.76371 117.728 3.45801 118.271 3.45801H120.149C120.634 3.45801 120.877 3.75886 120.877 4.30718V22.1107C120.877 22.6541 120.634 22.8967 120.149 22.8967H118.392C117.849 22.8967 117.606 22.6541 117.606 22.1107V21.2033H117.553V21.2081ZM117.49 16.4819C117.49 13.9974 116.218 12.3622 114.277 12.3622C112.22 12.3622 111.187 14.2983 111.187 16.3606C111.187 18.4811 112.215 20.4802 114.214 20.4802C116.282 20.4802 117.49 18.7237 117.49 16.4819Z" fill="url(#paint4_linear_57_23)"/>
<defs>
<linearGradient id="paint0_linear_57_23" x1="19.0811" y1="13.4151" x2="32.738" y2="13.4151" gradientUnits="userSpaceOnUse">
<stop stop-color="#FF6F05"/>
<stop offset="0.514669" stop-color="#FF31AB"/>
<stop offset="1" stop-color="#7512A2"/>
</linearGradient>
<linearGradient id="paint1_linear_57_23" x1="11.5857" y1="3.94856" x2="22.524" y2="3.94856" gradientUnits="userSpaceOnUse">
<stop stop-color="#FF6F05"/>
<stop offset="0.514669" stop-color="#FF31AB"/>
<stop offset="1" stop-color="#7512A2"/>
</linearGradient>
<linearGradient id="paint2_linear_57_23" x1="7.01331" y1="21.1266" x2="24.444" y2="21.1266" gradientUnits="userSpaceOnUse">
<stop stop-color="#FF6F05"/>
<stop offset="0.514669" stop-color="#FF31AB"/>
<stop offset="1" stop-color="#7512A2"/>
</linearGradient>
<linearGradient id="paint3_linear_57_23" x1="-0.0020752" y1="8.417" x2="16.8549" y2="8.417" gradientUnits="userSpaceOnUse">
<stop stop-color="#FF6F05"/>
<stop offset="0.514669" stop-color="#FF31AB"/>
<stop offset="1" stop-color="#7512A2"/>
</linearGradient>
<linearGradient id="paint4_linear_57_23" x1="36.6924" y1="16.0067" x2="120.877" y2="16.0067" gradientUnits="userSpaceOnUse">
<stop stop-color="#FF6F05"/>
<stop offset="0.514669" stop-color="#FF31AB"/>
<stop offset="1" stop-color="#7512A2"/>
</linearGradient>
</defs>
</svg>
