<svg width="108" height="28" viewBox="0 0 108 28" fill="none" xmlns="http://www.w3.org/2000/svg">
<path d="M12.797 5.9611V27.4134H9.49079V5.9611H0.876709V2.8121H21.4196V5.9611H12.797ZM25.3506 27.4134V2.8121H28.6568V27.4134H25.3506ZM51.9875 20.444C51.9875 24.6171 49.1954 27.4092 42.8592 27.4092H34.4746V2.8121H42.6212C48.5622 2.8121 51.2013 5.48514 51.2013 9.34384C51.2013 11.8596 49.7437 13.7167 46.9856 14.7622C50.2791 15.5611 51.9875 17.6859 51.9875 20.444ZM42.8974 5.88036H37.8191V13.5935H42.3832C45.9232 13.5935 47.8568 12.0211 47.8568 9.62007C47.8568 7.219 46.1229 5.88036 42.8974 5.88036ZM42.6595 16.6278H37.8446V24.3409H43.1737C46.8326 24.3409 48.6472 23.0405 48.6472 20.4822C48.6472 17.6519 46.1229 16.6278 42.6595 16.6278ZM73.7968 7.321C71.8292 5.9356 69.4791 5.19616 67.0696 5.21316C61.715 5.21316 58.1028 8.91462 58.1028 15.0171C58.1028 21.1197 61.715 25.0124 67.1333 25.0124C69.6534 24.9699 72.0927 24.1242 74.0985 22.6028L74.6467 25.9515C72.3476 27.3029 69.7214 28.0084 67.0526 27.9999C59.8281 27.9999 54.7328 23.0023 54.7328 15.1701C54.7328 7.33799 59.9046 2.22564 67.0653 2.22564C69.7978 2.20864 72.4836 2.91409 74.8549 4.27398L73.7968 7.321ZM95.1259 3.95951C94.7562 3.73852 94.3779 3.53454 93.987 3.35605C90.77 9.52232 84.9564 16.853 77.2008 21.0262C77.63 22.0036 78.1952 22.913 78.8751 23.7375C85.5216 19.1521 91.6751 11.5367 95.1259 3.95951Z" fill="url(#paint0_linear_57_29)"/>
<path d="M93.6934 3.21582C92.0063 2.49763 90.1874 2.13216 88.3515 2.14916C81.1271 2.14916 76.0148 7.72897 76.0148 15.0766C76.0105 16.2538 76.138 17.4267 76.393 18.5741C83.7874 15.5611 90.3659 8.91463 93.6934 3.21582ZM95.4315 4.1295C91.6365 13.4618 87.0044 20.0615 81.1059 25.7391C83.2519 27.184 85.7932 27.9361 88.377 27.8894C95.6015 27.8894 100.714 22.2713 100.714 14.9194C100.688 10.0535 98.674 6.27134 95.4315 4.1295ZM100.688 3.31782C100.612 1.5627 101.972 0.0795692 103.727 0.00307518C105.482 -0.0734189 106.965 1.28648 107.042 3.04159C107.046 3.13508 107.046 3.22432 107.042 3.31782C107.118 5.07293 105.758 6.55607 104.003 6.63256C102.248 6.70905 100.765 5.34916 100.688 3.59405C100.684 3.50055 100.684 3.40706 100.688 3.31782ZM106.68 3.31782C106.68 1.76669 105.422 0.504536 103.871 0.504536C102.32 0.504536 101.058 1.76244 101.058 3.31357V3.31782C101.062 4.86895 102.324 6.12685 103.88 6.1226C105.431 6.11835 106.689 4.8562 106.685 3.30082V3.31782H106.68ZM102.63 1.63495H104.092C104.802 1.63495 105.333 1.98342 105.333 2.65912C105.35 3.12233 105.04 3.5388 104.585 3.64504L105.448 4.8477H104.7L103.922 3.70454H103.259V4.8477H102.656V1.61795L102.63 1.63495ZM104.037 3.24557C104.343 3.30082 104.632 3.09683 104.687 2.79086C104.692 2.76536 104.696 2.73986 104.696 2.71436C104.696 2.41689 104.454 2.17041 104.156 2.17041C104.118 2.17041 104.08 2.17466 104.041 2.18316H103.264V3.22432H104.046L104.037 3.24557Z" fill="url(#paint1_linear_57_29)"/>
<defs>
<linearGradient id="paint0_linear_57_29" x1="0.876709" y1="15.0609" x2="95.1259" y2="15.0609" gradientUnits="userSpaceOnUse">
<stop stop-color="#FF6F05"/>
<stop offset="0.514669" stop-color="#FF31AB"/>
<stop offset="1" stop-color="#7512A2"/>
</linearGradient>
<linearGradient id="paint1_linear_57_29" x1="76.0146" y1="13.8897" x2="107.045" y2="13.8897" gradientUnits="userSpaceOnUse">
<stop stop-color="#FF6F05"/>
<stop offset="0.514669" stop-color="#FF31AB"/>
<stop offset="1" stop-color="#7512A2"/>
</linearGradient>
</defs>
</svg>
