<svg width="110" height="26" viewBox="0 0 110 26" fill="none" xmlns="http://www.w3.org/2000/svg">
<path d="M25.6477 24.2721H19.6018L17.7523 19.811H7.67616L5.99108 24.2721H0.0447998L9.1293 1.74095H15.6375L25.6477 24.2721ZM12.4662 7.12485L9.16269 15.8792H16.1004L12.4662 7.12485ZM47.6096 1.74095H52.4988V24.2721H46.8821V10.1985L40.8035 17.2676H39.9448L33.8667 10.1985V24.2719H28.2499V1.74095H33.1391L40.3738 10.099L47.6096 1.74095ZM66.7304 1.74095C74.956 1.74095 79.184 6.8609 79.184 13.0387C79.184 19.5137 75.0881 24.2721 66.1024 24.2721H56.7859V1.74095H66.7304ZM62.4023 20.1426H66.0687C71.7179 20.1426 73.403 16.3095 73.403 13.0053C73.403 9.1397 71.3214 5.86997 66.0026 5.86997H62.4022V20.1426H62.4023ZM90.3583 7.08329L83.2762 0H109.058V25.7831L101.976 18.7006V7.08329H90.3583ZM90.35 8.50265L83.0586 15.7937V26H93.2635L100.554 18.7089H90.35V8.50265Z" fill="url(#paint0_linear_57_32)"/>
<defs>
<linearGradient id="paint0_linear_57_32" x1="0.0447998" y1="12.9478" x2="109.058" y2="12.9478" gradientUnits="userSpaceOnUse">
<stop stop-color="#FF6F05"/>
<stop offset="0.514669" stop-color="#FF31AB"/>
<stop offset="1" stop-color="#7512A2"/>
</linearGradient>
</defs>
</svg>
