<svg width="149" height="32" viewBox="0 0 149 32" fill="none" xmlns="http://www.w3.org/2000/svg">
<path d="M68.0637 6.97118C68.0637 6.97118 67.9632 16.7613 68.0716 26.4954L61.7977 26.4798C61.9438 16.7718 61.8107 6.97118 61.8107 6.97118C61.8107 6.97118 64.9072 7.00905 68.0637 6.97118ZM123.816 6.97118C123.816 6.97118 123.715 16.7613 123.823 26.4954L117.549 26.4798C117.694 16.7718 117.559 6.97118 117.559 6.97118C117.559 6.97118 120.659 7.00905 123.816 6.97118ZM113.574 26.4954C113.574 26.4954 110.322 26.4198 107.329 26.4798L107.381 18.1173C103.621 18.0325 99.1786 18.1173 99.1786 18.1173L99.2163 26.4954C97.1785 26.4198 92.9451 26.4798 92.9451 26.4798C93.1656 16.3351 93.0012 6.95678 93.0012 6.95678C93.0012 6.95678 96.1356 7.01943 99.2217 6.97118L99.1681 14.8005C99.1681 14.8005 103.369 14.9112 107.385 14.7964L107.331 6.97118C107.331 6.97118 110.673 7.05076 113.58 6.97118C113.58 6.97118 113.484 16.3128 113.574 26.4954ZM126.25 26.4771C126.25 26.4771 127.627 26.4223 129.808 26.4927L133.291 16.2711L134.956 10.7743L135.059 9.58653L135.173 10.7743C135.198 11.005 136.16 14.5006 136.734 16.3324L140.189 26.481C140.189 26.481 144.811 26.3845 148.463 26.4627C148.463 26.4627 145.966 19.8852 142.411 9.45619C141.924 8.0325 140.7 6.90987 138.974 6.8968L136.233 6.86681C134.506 6.86681 133.112 7.40141 132.22 9.44061L126.25 26.4771ZM53.4641 20.1107L54.6754 22.8147L54.9557 23.6401L54.8069 22.8149L54.5579 19.056L54.5514 6.95678C54.5514 6.95678 55.0222 7.065 57.8853 6.9685C57.8853 6.9685 57.833 15.2959 57.833 23.7484C57.833 25.391 56.601 26.6075 54.8576 26.6075H52.1771C50.2098 26.6075 48.7769 25.2345 47.8213 23.412L42.2215 13.3714L41.0116 10.6674L40.73 9.8395L40.8813 10.6674L41.1289 14.4262L41.1329 26.5227C41.1329 26.5227 40.6662 26.4172 37.803 26.5162C37.803 26.5162 37.8551 18.1851 37.8551 9.73396C37.8551 8.09499 39.086 6.87083 40.8305 6.87083H43.5097C45.477 6.87083 46.9126 8.24627 47.8669 10.0677L53.4641 20.1107ZM70.7405 16.7822C70.7405 24.1799 76.9439 26.5788 82.3117 26.5788C82.3117 26.5788 86.2855 26.6324 89.7811 26.4954V23.7026C84.0652 23.936 83.24 23.5736 83.24 23.5736C80.695 23.1173 77.4107 21.2372 77.4107 16.734C77.4107 12.232 80.695 10.3493 83.24 9.89563C83.24 9.89563 84.0939 9.54364 89.7811 9.76663V6.97102C86.2763 6.80549 82.3117 6.88222 82.3117 6.88222C76.9412 6.88222 70.7405 9.13135 70.7405 16.7013V16.7822ZM6.51085 21.5788L17.7756 3.6517L20.709 13.2568L20.6739 13.3754L27.0885 7.51097L27.0493 7.51349C24.7521 5.01022 21.4551 3.44078 17.7898 3.44078C10.8563 3.44078 5.23577 9.06266 5.23577 15.9923C5.23577 17.9792 5.69598 19.8554 6.51605 21.5229L6.51085 21.5788ZM8.54738 24.4915C10.8394 26.9856 14.1329 28.5488 17.79 28.5488C24.7221 28.5488 30.344 22.9281 30.344 15.9921C30.344 14.009 29.885 12.1329 29.0637 10.4627L29.0664 10.3872L17.7952 28.352L14.8928 18.7222L14.9816 18.5554L8.48087 24.481L8.54738 24.4915ZM7.46126 25.4146L0.238279 32L0.0583496 31.8501L5.65677 22.9373L5.60987 22.9595C4.43262 20.906 3.75729 18.5266 3.75729 15.9921C3.75729 8.24242 10.0389 1.96197 17.7873 1.96197C21.889 1.96197 25.576 3.71821 28.1419 6.5227L28.1302 6.56056L35.309 0L35.4874 0.151114L29.9255 9.01424H29.9634C31.1433 11.0704 31.82 13.4537 31.82 15.992C31.82 23.7378 25.5358 30.0208 17.7873 30.0208C13.6961 30.0208 10.0141 28.2711 7.44954 25.4758L7.46126 25.4146Z" fill="url(#paint0_linear_57_33)"/>
<defs>
<linearGradient id="paint0_linear_57_33" x1="0.0583496" y1="15.9357" x2="148.463" y2="15.9357" gradientUnits="userSpaceOnUse">
<stop stop-color="#FF6F05"/>
<stop offset="0.514669" stop-color="#FF31AB"/>
<stop offset="1" stop-color="#7512A2"/>
</linearGradient>
</defs>
</svg>
