<svg width="106" height="32" viewBox="0 0 106 32" fill="none" xmlns="http://www.w3.org/2000/svg">
<path d="M0.462891 22.6352V0.468825H4.35668V22.6352H0.462891ZM14.324 6.55438C9.33164 6.55438 5.87681 10.3929 5.87681 14.7863C5.87681 19.6898 9.63522 23.0677 14.3627 23.0677C18.8494 23.0677 22.7428 19.7519 22.7428 14.7758C22.7428 10.5913 19.5166 6.55438 14.3239 6.55438H14.324ZM14.2781 10.3106C16.8908 10.3106 18.8138 12.3443 18.8138 14.8004C18.8138 17.4047 16.6936 19.3044 14.3486 19.3044C11.5778 19.3044 9.83412 17.1083 9.83412 14.8075C9.83412 12.2856 11.8028 10.3106 14.2781 10.3106ZM32.526 6.55438C27.5336 6.55438 24.0789 10.3929 24.0789 14.7863C24.0789 19.6898 27.8373 23.0677 32.5648 23.0677C37.0515 23.0677 40.9449 19.7519 40.9449 14.7758C40.9449 11.8455 39.6759 10.5452 39.6759 10.5452L40.7552 10.1751V7.01497H35.2249C35.2249 7.01497 34.026 6.55438 32.526 6.55438ZM32.4802 10.3106C35.0929 10.3106 37.0159 12.3443 37.0159 14.8004C37.0159 17.4047 34.8957 19.3044 32.5507 19.3044C29.7799 19.3044 28.0361 17.1083 28.0361 14.8075C28.0361 12.2856 30.0049 10.3106 32.4802 10.3106ZM36.9883 23.7188C36.9883 26.323 34.8681 28.2368 32.5231 28.2368C29.7524 28.2368 28.0016 26.0195 28.0016 23.7188H24.0514C24.0514 28.6222 27.8098 32 32.5373 32C37.024 32 40.9174 28.6949 40.9174 23.7188H36.9883ZM42.5045 22.6352V7.01497H46.3983V22.6351L42.5045 22.6352ZM50.1793 22.6352V10.5137H48.0912V7.01497H50.1793V2.21824H54.073V7.01497H56.2174V10.5137H54.0731V22.6352H50.1793ZM47.0218 2.57849C47.0218 4.00248 45.8674 5.15687 44.4433 5.15687C43.0192 5.15687 41.8648 4.00248 41.8648 2.57849C41.8648 1.15449 43.0192 0 44.4433 0C45.8674 0 47.0218 1.15439 47.0218 2.57849ZM64.9715 6.54372C59.9554 6.54372 56.7218 10.3842 56.7218 14.9274C56.7218 19.6223 59.9661 23.0783 65.0526 23.0783C69.7972 23.0783 72.1312 20.1156 72.1312 20.1156L69.5283 17.5093C69.5283 17.5093 67.5631 19.6288 65.1019 19.6288C63.0504 19.6288 61.4101 18.4838 60.8378 16.3841H72.9705V15.3119C72.9705 11.0336 70.4944 6.54382 64.9714 6.54382L64.9715 6.54372ZM64.848 9.97206C66.6417 9.97206 68.4761 10.9317 68.8863 13.2239H60.732C61.0549 11.6126 62.4646 9.97196 64.8479 9.97196L64.848 9.97206ZM82.7101 23.0803C77.68 23.0803 74.2525 19.2492 74.2525 14.732C74.2525 10.0701 78.1261 6.54087 82.6941 6.54087C87.1098 6.54087 89.3701 9.65814 89.3701 9.65814L86.6538 12.3621C86.6538 12.3621 85.0804 10.3291 82.6756 10.3291C80.0102 10.3291 78.1878 12.3681 78.1878 14.7917C78.1878 17.3509 80.1265 19.3143 82.6457 19.3143C85.0893 19.3143 86.6502 17.2846 86.6502 17.2846L89.3937 19.987C89.3937 19.987 87.1552 23.0803 82.7101 23.0803ZM90.8102 22.6465V0.412372H94.7039V8.58131C94.7039 8.58131 96.1949 6.54087 99.438 6.54087C103.515 6.54087 105.877 9.57172 105.877 13.4482V22.6465H101.984V14.0367C101.984 11.4325 100.362 10.3519 98.566 10.3519C96.5195 10.3519 94.704 11.5166 94.704 14.2382V22.6465H90.8102Z" fill="url(#paint0_linear_57_34)"/>
<defs>
<linearGradient id="paint0_linear_57_34" x1="0.462891" y1="15.9357" x2="105.877" y2="15.9357" gradientUnits="userSpaceOnUse">
<stop stop-color="#FF6F05"/>
<stop offset="0.514669" stop-color="#FF31AB"/>
<stop offset="1" stop-color="#7512A2"/>
</linearGradient>
</defs>
</svg>
