<svg width="184" height="18" viewBox="0 0 184 18" fill="none" xmlns="http://www.w3.org/2000/svg">
<path d="M14.9525 0.00030693C14.4742 1.24045e-07 13.8471 0.312328 13.559 0.693995L1.02233 17.3011C0.733929 17.6825 0.889787 17.9948 1.3681 17.9948H15.9279C16.4059 17.9948 17.0333 17.6825 17.3217 17.3011L29.8698 0.699824C30.1582 0.318158 30.0026 0.00582921 29.5243 0.0055224L14.9525 0.00030693ZM41.0458 0.693995C41.3339 0.312328 41.178 0 40.6997 0H33.8582C33.3799 0 32.7528 0.312328 32.4644 0.693995L19.9222 17.3011C19.6338 17.6825 19.7893 17.9948 20.2677 17.9948H27.1156C27.5936 17.9948 28.221 17.6825 28.5091 17.3011L41.0458 0.693995ZM45.1597 0C44.6811 0 44.054 0.312328 43.7659 0.693995L31.2237 17.3011C30.9353 17.6825 31.0908 17.9948 31.5692 17.9948H36.787C37.2653 17.9948 37.8927 17.6825 38.1808 17.3011L50.7231 0.693995C51.0115 0.312328 50.8559 0 50.3776 0H45.1597ZM41.6622 17.3066C41.3738 17.6886 41.5293 18.0006 42.0079 18L45.6019 17.996C46.0802 17.9954 46.707 17.6825 46.9954 17.3011L59.5315 0.699824C59.8199 0.318158 59.6646 0.00552244 59.1863 0.00490883L55.5921 0.00122713C55.1141 0.000306717 54.487 0.312328 54.1992 0.694609L41.6622 17.3066ZM51.0115 17.302C50.7231 17.6831 50.8774 17.9948 51.356 17.9948H53.9669C54.4452 17.9948 55.073 17.6831 55.3617 17.3017L67.8959 0.759345C68.1846 0.377985 68.0297 0.0659633 67.5514 0.0659633H64.9527C64.4741 0.0659633 63.8461 0.377985 63.5574 0.758731L51.0115 17.302ZM74.1324 9.15601C73.6544 9.15601 73.4985 8.84368 73.7863 8.46171L76.1073 5.38046C76.3951 4.99848 77.0216 4.68585 77.5002 4.68585H93.648C93.8786 4.68657 94.0995 4.77841 94.2626 4.94133C94.4258 5.10426 94.5179 5.32507 94.519 5.55564L94.5227 8.28069C94.5224 8.51101 94.4308 8.73183 94.2681 8.89483C94.1054 9.05784 93.8847 9.14976 93.6544 9.15049L74.1324 9.15601ZM73.2037 0.0659633C72.7253 0.0659633 72.0979 0.377985 71.8092 0.759345L59.2747 17.3078C58.986 17.6889 59.1409 18.0006 59.6189 18L65.7059 17.9957C66.1845 17.9954 66.8117 17.6828 67.1004 17.3017L69.1007 14.6613C69.3891 14.28 70.0172 13.968 70.4952 13.968L93.648 13.9624C93.8784 13.9629 94.0993 14.0546 94.2623 14.2175C94.4253 14.3804 94.5171 14.6012 94.5178 14.8316V17.1253C94.5184 17.3558 94.6103 17.5768 94.7732 17.7398C94.9362 17.9029 95.157 17.9949 95.3876 17.9957L100.168 18C100.398 17.9996 100.619 17.908 100.782 17.7451C100.945 17.5823 101.037 17.3615 101.037 17.1311V0.941894C101.037 0.711434 100.945 0.490621 100.782 0.327661C100.619 0.1647 100.398 0.0728275 100.168 0.0720993L73.2037 0.0659633ZM104.261 17.1253C104.262 17.3557 104.354 17.5765 104.517 17.7394C104.68 17.9023 104.901 17.9941 105.131 17.9948H109.911C110.142 17.9942 110.363 17.9024 110.526 17.7395C110.689 17.5766 110.781 17.3558 110.781 17.1253L110.786 7.98248C110.786 7.50417 111.124 7.3118 111.536 7.55479L120.584 12.8908C120.996 13.1341 121.725 13.3326 122.203 13.3319L125.677 13.328C126.155 13.3273 126.884 13.1285 127.296 12.8855L136.343 7.56001C136.756 7.31732 137.093 7.5103 137.093 7.98861L137.087 17.1253C137.088 17.3557 137.18 17.5766 137.343 17.7395C137.506 17.9024 137.726 17.9942 137.957 17.9948H142.743C142.974 17.9941 143.194 17.9023 143.357 17.7394C143.52 17.5765 143.612 17.3557 143.613 17.1253V0.941281C143.612 0.710842 143.52 0.49009 143.357 0.327115C143.194 0.164141 142.974 0.0721487 142.743 0.0711791L137.963 0.0665769C137.484 0.0665769 136.764 0.278273 136.363 0.537831L124.676 8.09109C124.275 8.35065 123.617 8.35065 123.215 8.09109L111.518 0.537524C111.116 0.278273 110.395 0.0662701 109.917 0.0665769L105.131 0.0711791C104.901 0.0721492 104.68 0.164184 104.517 0.327225C104.354 0.490265 104.262 0.711096 104.261 0.941588V17.1253ZM146.873 17.1253C146.873 17.3557 146.965 17.5765 147.128 17.7394C147.291 17.9023 147.512 17.9941 147.742 17.9948H183.071C183.302 17.9941 183.522 17.9023 183.685 17.7394C183.848 17.5765 183.94 17.3557 183.941 17.1253V8.1684C183.94 7.93791 183.848 7.71707 183.685 7.55406C183.522 7.39105 183.302 7.29911 183.071 7.2983L165.677 7.29308C165.447 7.29357 165.226 7.38533 165.063 7.54826C164.901 7.71118 164.809 7.93198 164.809 8.16227L164.812 9.89879C164.813 10.1294 164.905 10.3503 165.068 10.5132C165.232 10.6762 165.453 10.7681 165.683 10.7689L176.552 10.7793C176.782 10.7803 177.003 10.8723 177.166 11.0354C177.329 11.1984 177.421 11.4192 177.421 11.6497V12.5711C177.421 12.8015 177.329 13.0224 177.166 13.1853C177.003 13.3482 176.782 13.44 176.552 13.4406L154.268 13.4353C154.037 13.4345 153.817 13.3425 153.654 13.1795C153.491 13.0165 153.399 12.7957 153.398 12.5652V5.50164C153.399 5.27124 153.491 5.0505 153.654 4.88761C153.817 4.72471 154.038 4.63288 154.268 4.63216L183.071 4.62602C183.302 4.62537 183.522 4.53357 183.685 4.37066C183.848 4.20775 183.94 3.98696 183.941 3.75653V0.935451C183.94 0.705045 183.848 0.48431 183.685 0.321416C183.522 0.158522 183.302 0.066691 183.071 0.0659633L147.742 0.0720993C147.512 0.0728275 147.291 0.164668 147.128 0.327571C146.965 0.490474 146.873 0.711209 146.873 0.941588V17.1253Z" fill="url(#paint0_linear_57_35)"/>
<defs>
<linearGradient id="paint0_linear_57_35" x1="0.877441" y1="8.96386" x2="183.941" y2="8.96385" gradientUnits="userSpaceOnUse">
<stop stop-color="#FF6F05"/>
<stop offset="0.514669" stop-color="#FF31AB"/>
<stop offset="1" stop-color="#7512A2"/>
</linearGradient>
</defs>
</svg>
