<svg width="9" height="14" viewBox="0 0 9 14" fill="none" xmlns="http://www.w3.org/2000/svg">
<path d="M1.12 1.84403L6.27597 7L1.12 12.156C1.06917 12.2068 1.02467 12.2617 0.986505 12.3194C0.719588 12.7237 0.764088 13.2732 1.12 13.6292C1.52675 14.0359 2.18634 14.0359 2.59317 13.6292L8.48568 7.73658C8.5101 7.71216 8.53318 7.68666 8.55487 7.66016C8.70675 7.47483 8.79077 7.24175 8.79077 7C8.79077 6.72375 8.68103 6.45883 8.48568 6.26342L2.59317 0.37089C2.18634 -0.035902 1.52675 -0.035902 1.12 0.37089C1.06917 0.42174 1.02467 0.476539 0.986505 0.534298C0.719588 0.938623 0.764088 1.48808 1.12 1.84403Z" fill="url(#paint0_linear_1_1052)"/>
<defs>
<linearGradient id="paint0_linear_1_1052" x1="8.79077" y1="7.23913" x2="0.814922" y2="7.23913" gradientUnits="userSpaceOnUse">
<stop stop-color="#EC04FB"/>
<stop offset="1" stop-color="#5259EB"/>
</linearGradient>
</defs>
</svg>
