<svg width="164" height="44" viewBox="0 0 164 44" fill="none" xmlns="http://www.w3.org/2000/svg">
<path d="M154.275 31.1469L148.008 16.0374H152.413L156.571 27.579H155.082L159.394 16.0374H163.831L157.16 31.1469H154.275ZM150.118 37.29L154.678 27.641L157.16 31.1469L154.43 37.29H150.118Z" fill="#07000E"/>
<path d="M138.91 31.0228V14.4241C138.91 13.2244 139.169 12.1696 139.686 11.2595C140.203 10.3287 140.937 9.59444 141.889 9.05667C142.84 8.51889 143.957 8.25 145.24 8.25C146.212 8.25 147.05 8.41547 147.753 8.74641C148.456 9.07735 149.087 9.53239 149.645 10.1115L147.07 12.7177C146.843 12.4902 146.594 12.3144 146.326 12.1903C146.057 12.0662 145.715 12.0041 145.302 12.0041C144.557 12.0041 143.978 12.2109 143.564 12.6246C143.171 13.0176 142.975 13.5864 142.975 14.331V31.0228H138.91ZM135.436 19.6054V16.0374H147.412V19.6054H135.436Z" fill="#07000E"/>
<path d="M129.767 31.0228V22.4287C129.767 21.5393 129.488 20.8154 128.93 20.2569C128.371 19.6985 127.647 19.4192 126.758 19.4192C126.179 19.4192 125.661 19.5433 125.206 19.7915C124.751 20.0397 124.389 20.3914 124.121 20.8464C123.872 21.3014 123.748 21.8289 123.748 22.4287L122.166 21.622C122.166 20.4431 122.414 19.4192 122.911 18.5505C123.407 17.6611 124.09 16.9682 124.958 16.4718C125.848 15.9754 126.861 15.7272 127.999 15.7272C129.136 15.7272 130.14 15.9754 131.008 16.4718C131.898 16.9682 132.591 17.6508 133.087 18.5195C133.583 19.3882 133.832 20.3914 133.832 21.529V31.0228H129.767ZM119.684 31.0228V8.59127H123.748V31.0228H119.684Z" fill="#07000E"/>
<path d="M111.488 31.3331C109.958 31.3331 108.582 30.9918 107.362 30.3092C106.142 29.6267 105.18 28.6959 104.477 27.5169C103.773 26.3379 103.422 25.0142 103.422 23.5456C103.422 22.0564 103.773 20.7223 104.477 19.5433C105.18 18.3643 106.142 17.4336 107.362 16.751C108.603 16.0478 109.978 15.6961 111.488 15.6961C112.667 15.6961 113.753 15.9133 114.746 16.3477C115.739 16.782 116.597 17.4026 117.321 18.2092L114.715 20.8464C114.322 20.412 113.846 20.0811 113.288 19.8536C112.75 19.6261 112.15 19.5123 111.488 19.5123C110.744 19.5123 110.071 19.6881 109.472 20.0397C108.893 20.3707 108.427 20.8361 108.076 21.4359C107.745 22.015 107.579 22.7079 107.579 23.5146C107.579 24.3006 107.745 25.0038 108.076 25.6244C108.427 26.2242 108.893 26.6999 109.472 27.0515C110.071 27.3825 110.744 27.5479 111.488 27.5479C112.171 27.5479 112.781 27.4342 113.319 27.2067C113.877 26.9585 114.353 26.6068 114.746 26.1518L117.383 28.789C116.618 29.6163 115.739 30.2472 114.746 30.6815C113.753 31.1159 112.667 31.3331 111.488 31.3331Z" fill="#07000E"/>
<path d="M94.7945 31.3331C93.2226 31.3331 91.8264 31.0021 90.6061 30.3402C89.3857 29.6577 88.4136 28.7269 87.6896 27.5479C86.9864 26.369 86.6348 25.0245 86.6348 23.5146C86.6348 22.0254 86.976 20.7016 87.6586 19.5433C88.3619 18.3643 89.3133 17.4336 90.513 16.751C91.7127 16.0478 93.0468 15.6961 94.5153 15.6961C95.9632 15.6961 97.2352 16.0271 98.3315 16.689C99.4484 17.3302 100.317 18.2196 100.938 19.3572C101.579 20.4741 101.899 21.7461 101.899 23.1733C101.899 23.4422 101.879 23.7214 101.837 24.011C101.817 24.2799 101.765 24.5902 101.682 24.9418L89.0858 24.9728V21.9323L99.7897 21.9013L98.1453 23.1733C98.104 22.2839 97.9385 21.5393 97.6489 20.9395C97.38 20.3396 96.9767 19.8846 96.4389 19.5743C95.9218 19.2434 95.2806 19.0779 94.5153 19.0779C93.7086 19.0779 93.0054 19.2641 92.4056 19.6364C91.8057 19.988 91.3403 20.4948 91.0094 21.1566C90.6991 21.7978 90.544 22.5631 90.544 23.4525C90.544 24.3626 90.7095 25.159 91.0404 25.8415C91.3921 26.5034 91.8885 27.0205 92.5297 27.3928C93.1709 27.7444 93.9155 27.9202 94.7635 27.9202C95.5288 27.9202 96.2217 27.7961 96.8423 27.5479C97.4628 27.279 98.0005 26.8861 98.4556 26.369L100.845 28.7579C100.121 29.606 99.2312 30.2472 98.1764 30.6815C97.1422 31.1159 96.0149 31.3331 94.7945 31.3331Z" fill="#07000E"/>
<path d="M78.1368 31.0228V9.80129H82.2012V31.0228H78.1368ZM74.6309 19.6054V16.0374H85.7071V19.6054H74.6309Z" fill="#07000E"/>
<path d="M68.2365 31.0228V16.0374H72.3319V31.0228H68.2365ZM70.2842 13.6174C69.6223 13.6174 69.0742 13.4003 68.6398 12.9659C68.2055 12.5109 67.9883 11.9524 67.9883 11.2905C67.9883 10.6493 68.2055 10.1012 68.6398 9.64616C69.0742 9.19111 69.6223 8.96359 70.2842 8.96359C70.9668 8.96359 71.5149 9.19111 71.9286 9.64616C72.3629 10.1012 72.5801 10.6493 72.5801 11.2905C72.5801 11.9524 72.3629 12.5109 71.9286 12.9659C71.5149 13.4003 70.9668 13.6174 70.2842 13.6174Z" fill="#07000E"/>
<path d="M44.8789 31.0228L53.6592 9.21179H57.1031L65.8524 31.0228H61.3536L54.59 13.121H56.1413L49.2846 31.0228H44.8789ZM49.5328 26.9585V23.4215H61.2605V26.9585H49.5328Z" fill="#07000E"/>
<path d="M40.2939 31.2342V18.1357L34.9334 14.9477L23.9442 8.18055L25.5407 7.25332L35.8606 13.3397C35.8591 13.3679 35.8572 13.3946 35.8572 13.4212C35.8622 13.9539 36.3035 14.3884 36.8411 14.3884C37.101 14.3884 37.3456 14.2852 37.5302 14.097C37.7133 13.9105 37.8133 13.6659 37.8115 13.4061C37.8049 12.87 37.3636 12.4355 36.826 12.4355C36.6145 12.437 36.4098 12.507 36.2434 12.6352L25.5908 6.35089L25.5177 6.29919L25.1863 6.50052L23.1303 7.68913L21.1058 6.46892L25.4258 3.9802L37.3422 11.057C37.3388 11.0986 37.3373 11.1385 37.3373 11.1785C37.3456 11.4398 37.4537 11.6811 37.6436 11.861C37.825 12.0326 38.0632 12.1258 38.3178 12.1258H38.3428C38.8805 12.1091 39.3066 11.6579 39.2917 11.1202C39.275 10.599 38.834 10.1747 38.3078 10.1747H38.2846C38.0898 10.1797 37.8984 10.2463 37.742 10.3596L25.5174 3.10806L25.4292 3.0548L20.2736 6.00805L9.75544 12.0161V10.2598L20.2867 4.26169C20.4582 4.3865 20.6679 4.45648 20.8794 4.45152C21.1392 4.44812 21.3821 4.34342 21.5654 4.15515C21.7468 3.96714 21.8466 3.72065 21.8416 3.46084C21.8382 3.19946 21.7335 2.95635 21.5471 2.77488C21.3606 2.59183 21.116 2.49182 20.8546 2.49679C20.3151 2.50514 19.8824 2.948 19.889 3.48564C19.889 3.51071 19.8905 3.53734 19.8939 3.56398L8.98801 9.77337L8.91803 9.81489V12.4984L6.72384 13.7654V8.25053L18.4089 1.86618L18.5588 1.77636C18.7286 1.89282 18.9301 1.95627 19.133 1.95288C19.6725 1.94609 20.1036 1.5001 20.0953 0.962453C20.0869 0.42481 19.6409 -0.0115184 19.1048 0.000231891C18.845 0.00362643 18.6003 0.108335 18.4189 0.296601C18.2374 0.48304 18.1392 0.729536 18.1426 0.990915C18.1426 1.02747 18.146 1.06246 18.1491 1.09589L6.64576 7.38153L5.92324 7.7578V26.17L4.37506 25.2809V13.3995C4.70303 13.2382 4.92106 12.8901 4.92106 12.5237C4.92106 11.9843 4.4816 11.5466 3.94395 11.5466C3.40448 11.5466 2.96684 11.9845 2.96684 12.5237C2.96684 12.9183 3.20995 13.2763 3.5729 13.4262V25.7802L5.9235 27.1487V29.4844L1.39046 26.8208V13.4094C1.72835 13.2496 1.95318 12.8984 1.95318 12.5237C1.95318 11.9843 1.51528 11.5466 0.976066 11.5466C0.437898 11.5466 0 11.9845 0 12.524C0 12.9037 0.239708 13.2666 0.589347 13.4196V27.2822L5.94988 30.4302L16.4563 36.6764L14.9462 37.5104L4.62626 31.4708C4.63122 31.4308 4.63462 31.3909 4.63462 31.3543C4.63462 30.8148 4.19515 30.3772 3.65751 30.3772C3.11803 30.3772 2.6804 30.8151 2.6804 31.3543C2.6804 31.8919 3.11829 32.3298 3.65751 32.3298C3.8523 32.3298 4.04866 32.2682 4.21186 32.1567L14.8747 38.3995L14.9596 38.446L17.3052 37.1691L19.4976 38.4494L14.828 41.0099L11.3953 38.8758L2.85326 33.7219C2.85822 33.6853 2.86005 33.6519 2.86005 33.6203C2.86005 33.0808 2.42215 32.6432 1.88294 32.6432C1.34529 32.6432 0.907391 33.0811 0.907391 33.6203C0.907391 34.1579 1.34529 34.5958 1.88294 34.5958C2.08426 34.5958 2.28402 34.5308 2.44904 34.4143L10.9777 39.5602L14.7285 41.8925L14.8 41.9408L22.6892 37.6159L31.1644 33.008V34.7642L22.0132 39.8151C21.8435 39.6868 21.6369 39.6169 21.4238 39.6169C20.8862 39.6169 20.4483 40.0548 20.4483 40.594C20.4483 40.6689 20.4567 40.7371 20.4715 40.8005C20.5081 40.982 20.5997 41.1483 20.7345 41.2833C20.916 41.4682 21.1622 41.5698 21.4236 41.5698C21.9631 41.5698 22.4025 41.1319 22.4025 40.5942C22.4025 40.5692 22.4009 40.5444 22.3976 40.5193L31.8752 35.287L31.965 35.2353V32.5716L34.1573 31.3796V36.7367L23.7243 42.2422C23.5546 42.1173 23.348 42.0474 23.1384 42.0474C22.5989 42.0474 22.1612 42.4853 22.1612 43.0229C22.1612 43.5624 22.5991 44 23.1384 44C23.676 44 24.1139 43.5621 24.1139 43.0229C24.1139 42.9963 24.1123 42.9696 24.1105 42.9446L34.8666 37.2694L34.9598 37.2195V19.158L36.5079 20.0818V31.2274C36.1468 31.3773 35.9053 31.7353 35.9053 32.128C35.9053 32.6675 36.3447 33.1051 36.8842 33.1051C37.4219 33.1051 37.8598 32.6672 37.8598 32.128C37.8598 31.7585 37.6399 31.4104 37.3104 31.2506V19.5974L34.9598 18.1642V15.8966L39.4912 18.5919V31.2423C39.1515 31.3987 38.927 31.7502 38.927 32.128C38.927 32.6675 39.3649 33.1051 39.9025 33.1051C40.442 33.1051 40.8796 32.6672 40.8796 32.128C40.8799 31.7502 40.6402 31.3872 40.2939 31.2342ZM36.8346 13.0449C37.0378 13.0449 37.2025 13.2097 37.2025 13.4113C37.2025 13.6144 37.0378 13.7808 36.8346 13.7808C36.6315 13.7808 36.4667 13.6142 36.4667 13.4113C36.4667 13.2097 36.6315 13.0449 36.8346 13.0449ZM38.3162 10.7826C38.5175 10.7826 38.6826 10.9474 38.6826 11.1505C38.6826 11.3537 38.5178 11.5169 38.3162 11.5169C38.1115 11.5169 37.9467 11.3537 37.9467 11.1505C37.9467 10.9474 38.1115 10.7826 38.3162 10.7826ZM20.6047 3.218C20.6729 3.14802 20.7645 3.10806 20.8611 3.1065C20.9593 3.10493 21.0525 3.14149 21.1241 3.21147C21.1941 3.27962 21.234 3.37127 21.2356 3.46945C21.2371 3.67077 21.0742 3.83893 20.871 3.84076C20.771 3.84233 20.6812 3.80577 20.6112 3.73762C20.5397 3.66764 20.4997 3.57625 20.4997 3.47781C20.4982 3.38093 20.5347 3.28771 20.6047 3.218ZM19.1132 0.60916C19.3114 0.60916 19.4827 0.767398 19.4861 0.970287C19.4861 1.06847 19.4495 1.16169 19.3811 1.23167C19.3129 1.30165 19.2213 1.3416 19.1231 1.34316C19.0249 1.3416 18.9333 1.30661 18.8617 1.23819C18.7918 1.17004 18.7518 1.07839 18.7518 0.98021C18.7487 0.779148 18.91 0.610988 19.1132 0.60916ZM3.94395 12.8919C3.7408 12.8919 3.57604 12.7271 3.57604 12.5256C3.57604 12.3224 3.7408 12.1576 3.94395 12.1576C4.14711 12.1576 4.31187 12.3224 4.31187 12.5256C4.31161 12.7269 4.14684 12.8919 3.94395 12.8919ZM0.975544 12.8919C0.77422 12.8919 0.609193 12.7271 0.609193 12.5256C0.609193 12.3224 0.773959 12.1576 0.975544 12.1576C1.17869 12.1576 1.34346 12.3224 1.34346 12.5256C1.34346 12.7269 1.17869 12.8919 0.975544 12.8919ZM3.65751 31.7201C3.45435 31.7201 3.28959 31.5554 3.28959 31.3538C3.28959 31.1506 3.45435 30.9859 3.65751 30.9859C3.85883 30.9859 4.02386 31.1506 4.02386 31.3538C4.02386 31.5554 3.85883 31.7201 3.65751 31.7201ZM1.8845 33.9843C1.68135 33.9843 1.51502 33.8195 1.51502 33.6179C1.51502 33.4148 1.68161 33.25 1.8845 33.25C2.08583 33.25 2.25085 33.4148 2.25085 33.6179C2.25085 33.8195 2.08583 33.9843 1.8845 33.9843ZM21.4254 40.9614C21.2241 40.9614 21.0591 40.7966 21.0591 40.5935C21.0591 40.3903 21.2238 40.2255 21.4254 40.2255C21.6286 40.2255 21.7933 40.3903 21.7933 40.5935C21.7933 40.7963 21.6286 40.9614 21.4254 40.9614ZM23.1386 43.39C22.9355 43.39 22.7691 43.2253 22.7691 43.0221C22.7691 42.8208 22.9357 42.6558 23.1386 42.6558C23.3418 42.6558 23.505 42.8205 23.505 43.0221C23.5047 43.2253 23.3418 43.39 23.1386 43.39ZM34.1576 30.5098L20.3966 37.9846L6.72384 29.9539V14.7579L20.3799 6.88854L34.1573 15.402V30.5098H34.1576ZM36.8845 31.7635C37.0858 31.7635 37.2508 31.9282 37.2508 32.1314C37.2508 32.3327 37.0861 32.4977 36.8845 32.4977C36.6813 32.4977 36.5166 32.333 36.5166 32.1314C36.5166 31.9282 36.6813 31.7635 36.8845 31.7635ZM39.9043 32.4977C39.7012 32.4977 39.5349 32.333 39.5349 32.1314C39.5349 31.9282 39.7014 31.7635 39.9043 31.7635C40.1057 31.7635 40.2707 31.9282 40.2707 32.1314C40.2707 32.3327 40.1059 32.4977 39.9043 32.4977Z" fill="url(#paint0_linear_1_1008)"/>
<path d="M20.5447 17.2534L23.2384 24.1704H17.7778L20.5447 17.2534Z" fill="url(#paint1_linear_1_1008)"/>
<path d="M22.9444 9.60235L20.2841 7.99908L10.507 13.5844L7.65845 15.2308V29.4278L17.4074 35.2246L17.4606 35.2512L20.334 36.9276L33.226 29.9124V15.9316L22.9444 9.60235ZM25.6645 30.6031L24.5725 27.8112H16.3203L15.2283 30.6031H11.3442L18.6257 12.3974H22.2665L29.5366 30.5916L25.6645 30.6031Z" fill="url(#paint2_linear_1_1008)"/>
<defs>
<linearGradient id="paint0_linear_1_1008" x1="1.68857e-08" y1="22.7586" x2="40.8796" y2="22.7586" gradientUnits="userSpaceOnUse">
<stop stop-color="#EC04FB"/>
<stop offset="1" stop-color="#5259EB"/>
</linearGradient>
<linearGradient id="paint1_linear_1_1008" x1="17.7778" y1="20.8311" x2="23.2384" y2="20.8311" gradientUnits="userSpaceOnUse">
<stop stop-color="#EC04FB"/>
<stop offset="1" stop-color="#5259EB"/>
</linearGradient>
<linearGradient id="paint2_linear_1_1008" x1="7.65845" y1="22.9621" x2="33.226" y2="22.9621" gradientUnits="userSpaceOnUse">
<stop stop-color="#EC04FB"/>
<stop offset="1" stop-color="#5259EB"/>
</linearGradient>
</defs>
</svg>
