<svg width="53" height="93" viewBox="0 0 53 93" fill="none" xmlns="http://www.w3.org/2000/svg">
<path d="M40.894 91.535C52.9036 84.3363 52.7609 63.6741 52.2732 51.2438C51.5273 39.5401 49.4083 27.9642 45.9599 16.7548C44.2061 11.1866 42.1868 5.69905 39.6347 0.467201C39.5787 0.316677 39.3219 0.400631 39.3874 0.562649C47.8608 24.7688 53.2128 51.7277 47.6413 77.1415C39.6614 105.967 15.6491 81.6588 5.06688 68.4377C8.64125 69.5482 16.7677 72.0287 20.2627 73.1099C20.0938 72.9337 26.8514 75.3992 26.1339 74.604C21.7502 72.0453 17.0494 70.0453 12.3244 68.2321C10.5146 67.5352 8.49148 66.8284 6.65065 66.2079C5.11332 65.8623 3.52612 64.6741 1.9499 65.4384C-1.3454 67.4185 3.04408 71.6613 3.9733 74.0566C4.69175 75.2833 5.61032 76.8113 6.36163 78.0176C8.8571 81.9496 11.5009 85.8629 14.5801 89.3743C14.6019 89.3961 14.6306 89.4095 14.6613 89.4122C14.692 89.4148 14.7227 89.4066 14.7479 89.3889C14.7731 89.3712 14.7913 89.3451 14.7992 89.3153C14.8071 89.2855 14.8043 89.2539 14.7912 89.226L11.9507 83.761C10.1382 80.3508 5.47854 71.506 3.61099 67.9901L4.39107 68.2301C11.6476 78.3079 26.6649 98.1775 40.894 91.535Z" fill="url(#paint0_linear_1_1264)"/>
<defs>
<linearGradient id="paint0_linear_1_1264" x1="12.871" y1="8.6795" x2="38.9095" y2="92.2929" gradientUnits="userSpaceOnUse">
<stop stop-color="#6C1AFC"/>
<stop offset="1" stop-color="#EC736C"/>
</linearGradient>
</defs>
</svg>
