<svg width="187" height="34" viewBox="0 0 187 34" fill="none" xmlns="http://www.w3.org/2000/svg">
<path d="M53.3157 6.57358C54.2004 4.032 52.9471 1.22174 50.5164 0.296674C48.0857 -0.628384 45.398 0.682064 44.5133 3.22365L36.0884 27.4264C35.2038 29.968 36.457 32.7782 38.8878 33.7034C41.3184 34.6284 44.0061 33.3179 44.8909 30.7764L53.3157 6.57358Z" fill="#818CF8"/>
<path d="M13.6216 6.57358C12.7369 4.032 13.9902 1.22173 16.4209 0.296675C18.8517 -0.628384 21.5393 0.682064 22.424 3.22364L30.8489 27.4264C31.7337 29.968 30.4803 32.7782 28.0496 33.7033C25.6189 34.6283 22.9312 33.318 22.0465 30.7764L13.6216 6.57358Z" fill="#4F46E5"/>
<path d="M27.6763 6.57358C26.7916 4.032 28.0449 1.22173 30.4757 0.296675C32.9063 -0.628384 35.594 0.682064 36.4788 3.22364L44.9036 27.4264C45.7883 29.968 44.535 32.7782 42.1043 33.7033C39.6736 34.6283 36.9859 33.318 36.1012 30.7764L27.6763 6.57358Z" fill="#4F46E5"/>
<path d="M70.9144 25.7295C70.3704 25.7295 69.9284 25.602 69.5884 25.347C69.2484 25.075 68.9764 24.667 68.7724 24.123L63.6214 9.63897C63.4004 8.99297 63.4429 8.44047 63.7489 7.98147C64.0719 7.52247 64.6244 7.29297 65.4064 7.29297C65.9504 7.29297 66.3669 7.42047 66.6559 7.67547C66.9619 7.93047 67.2084 8.32997 67.3954 8.87397L71.6029 21.3945H70.5064L74.9434 8.89947C75.1474 8.35547 75.3939 7.95597 75.6829 7.70097C75.9889 7.42897 76.3884 7.29297 76.8814 7.29297C77.3574 7.29297 77.7399 7.42897 78.0289 7.70097C78.3179 7.95597 78.5644 8.36397 78.7684 8.92497L83.0014 21.3945H82.0579L86.3419 8.87397C86.5119 8.34697 86.7499 7.95597 87.0559 7.70097C87.3619 7.42897 87.7784 7.29297 88.3054 7.29297C88.9684 7.29297 89.4529 7.52247 89.7589 7.98147C90.0649 8.44047 90.0989 8.99297 89.8609 9.63897L84.6589 24.1485C84.4719 24.6755 84.2169 25.075 83.8939 25.347C83.5709 25.602 83.1289 25.7295 82.5679 25.7295C82.0239 25.7295 81.5904 25.602 81.2674 25.347C80.9444 25.075 80.6809 24.667 80.4769 24.123L76.4479 12.7245H77.0599L72.9799 24.1485C72.7759 24.6755 72.5124 25.075 72.1894 25.347C71.8834 25.602 71.4584 25.7295 70.9144 25.7295ZM97.3493 25.7805C95.8703 25.7805 94.5953 25.517 93.5243 24.99C92.4703 24.446 91.6543 23.6895 91.0763 22.7205C90.5153 21.7345 90.2348 20.5785 90.2348 19.2525C90.2348 17.9605 90.5068 16.83 91.0508 15.861C91.5948 14.875 92.3513 14.11 93.3203 13.566C94.3063 13.005 95.4198 12.7245 96.6608 12.7245C97.5618 12.7245 98.3778 12.8775 99.1088 13.1835C99.8398 13.4725 100.469 13.8975 100.996 14.4585C101.523 15.0025 101.922 15.674 102.194 16.473C102.466 17.255 102.602 18.1305 102.602 19.0995C102.602 19.4225 102.5 19.669 102.296 19.839C102.092 19.992 101.795 20.0685 101.404 20.0685H93.3968V18.0795H99.8228L99.4148 18.4365C99.4148 17.7395 99.3128 17.1615 99.1088 16.7025C98.9048 16.2265 98.6073 15.8695 98.2163 15.6315C97.8423 15.3935 97.3748 15.2745 96.8138 15.2745C96.1848 15.2745 95.6493 15.419 95.2073 15.708C94.7653 15.997 94.4253 16.4135 94.1873 16.9575C93.9493 17.5015 93.8303 18.156 93.8303 18.921V19.125C93.8303 20.417 94.1278 21.369 94.7228 21.981C95.3348 22.593 96.2358 22.899 97.4258 22.899C97.8338 22.899 98.3013 22.848 98.8283 22.746C99.3553 22.644 99.8483 22.4825 100.307 22.2615C100.698 22.0745 101.047 22.015 101.353 22.083C101.659 22.134 101.897 22.27 102.067 22.491C102.237 22.712 102.33 22.967 102.347 23.256C102.381 23.545 102.322 23.834 102.169 24.123C102.016 24.395 101.761 24.6245 101.404 24.8115C100.826 25.1345 100.171 25.3725 99.4403 25.5255C98.7263 25.6955 98.0293 25.7805 97.3493 25.7805ZM112.568 25.7805C111.565 25.7805 110.673 25.534 109.891 25.041C109.126 24.531 108.616 23.8595 108.361 23.0265L108.641 22.185V23.766C108.641 24.395 108.48 24.8795 108.157 25.2195C107.834 25.5595 107.366 25.7295 106.754 25.7295C106.142 25.7295 105.666 25.5595 105.326 25.2195C105.003 24.8795 104.842 24.395 104.842 23.766V9.25647C104.842 8.61047 105.003 8.12597 105.326 7.80297C105.666 7.46297 106.151 7.29297 106.78 7.29297C107.392 7.29297 107.859 7.46297 108.182 7.80297C108.522 8.12597 108.692 8.61047 108.692 9.25647V15.3H108.386C108.658 14.535 109.177 13.9145 109.942 13.4385C110.707 12.9625 111.582 12.7245 112.568 12.7245C113.673 12.7245 114.634 12.988 115.45 13.515C116.266 14.042 116.903 14.79 117.362 15.759C117.821 16.728 118.051 17.884 118.051 19.227C118.051 20.57 117.821 21.7345 117.362 22.7205C116.903 23.7065 116.257 24.463 115.424 24.99C114.608 25.517 113.656 25.7805 112.568 25.7805ZM111.421 22.899C111.965 22.899 112.441 22.763 112.849 22.491C113.274 22.219 113.597 21.8195 113.818 21.2925C114.056 20.7485 114.175 20.06 114.175 19.227C114.175 17.986 113.92 17.0765 113.41 16.4985C112.9 15.9035 112.237 15.606 111.421 15.606C110.877 15.606 110.392 15.7335 109.967 15.9885C109.559 16.2435 109.236 16.643 108.998 17.187C108.76 17.714 108.641 18.394 108.641 19.227C108.641 20.468 108.896 21.3945 109.406 22.0065C109.916 22.6015 110.588 22.899 111.421 22.899ZM126.424 30.3705C125.506 30.3705 124.622 30.294 123.772 30.141C122.939 29.988 122.2 29.7585 121.554 29.4525C121.163 29.2825 120.882 29.0615 120.712 28.7895C120.559 28.5175 120.491 28.2285 120.508 27.9225C120.542 27.6165 120.644 27.3445 120.814 27.1065C121.001 26.8685 121.231 26.6985 121.503 26.5965C121.775 26.5115 122.064 26.537 122.37 26.673C123.118 27.013 123.806 27.234 124.435 27.336C125.081 27.438 125.634 27.489 126.093 27.489C127.181 27.489 127.997 27.2425 128.541 26.7495C129.085 26.2565 129.357 25.5 129.357 24.48V22.542H129.586C129.331 23.324 128.804 23.9615 128.005 24.4545C127.206 24.9475 126.322 25.194 125.353 25.194C124.231 25.194 123.254 24.939 122.421 24.429C121.588 23.902 120.942 23.171 120.483 22.236C120.024 21.284 119.794 20.1875 119.794 18.9465C119.794 18.0115 119.922 17.1615 120.177 16.3965C120.449 15.6315 120.823 14.977 121.299 14.433C121.792 13.889 122.378 13.4725 123.058 13.1835C123.755 12.8775 124.52 12.7245 125.353 12.7245C126.356 12.7245 127.24 12.971 128.005 13.464C128.787 13.94 129.306 14.569 129.561 15.351L129.306 16.167V14.7135C129.306 14.0845 129.467 13.6085 129.79 13.2855C130.13 12.9455 130.606 12.7755 131.218 12.7755C131.83 12.7755 132.298 12.9455 132.621 13.2855C132.944 13.6085 133.105 14.0845 133.105 14.7135V24.0465C133.105 26.1375 132.527 27.71 131.371 28.764C130.232 29.835 128.583 30.3705 126.424 30.3705ZM126.501 22.3125C127.079 22.3125 127.572 22.1765 127.98 21.9045C128.405 21.6325 128.736 21.25 128.974 20.757C129.212 20.247 129.331 19.6435 129.331 18.9465C129.331 17.8925 129.068 17.0765 128.541 16.4985C128.031 15.9035 127.351 15.606 126.501 15.606C125.923 15.606 125.421 15.742 124.996 16.014C124.571 16.269 124.24 16.6515 124.002 17.1615C123.781 17.6545 123.67 18.2495 123.67 18.9465C123.67 20.0005 123.925 20.825 124.435 21.42C124.945 22.015 125.634 22.3125 126.501 22.3125ZM142.597 25.7805C141.118 25.7805 139.843 25.517 138.772 24.99C137.718 24.446 136.902 23.6895 136.324 22.7205C135.763 21.7345 135.482 20.5785 135.482 19.2525C135.482 17.9605 135.754 16.83 136.298 15.861C136.842 14.875 137.599 14.11 138.568 13.566C139.554 13.005 140.667 12.7245 141.908 12.7245C142.809 12.7245 143.625 12.8775 144.356 13.1835C145.087 13.4725 145.716 13.8975 146.243 14.4585C146.77 15.0025 147.17 15.674 147.442 16.473C147.714 17.255 147.85 18.1305 147.85 19.0995C147.85 19.4225 147.748 19.669 147.544 19.839C147.34 19.992 147.042 20.0685 146.651 20.0685H138.644V18.0795H145.07L144.662 18.4365C144.662 17.7395 144.56 17.1615 144.356 16.7025C144.152 16.2265 143.855 15.8695 143.464 15.6315C143.09 15.3935 142.622 15.2745 142.061 15.2745C141.432 15.2745 140.897 15.419 140.455 15.708C140.013 15.997 139.673 16.4135 139.435 16.9575C139.197 17.5015 139.078 18.156 139.078 18.921V19.125C139.078 20.417 139.375 21.369 139.97 21.981C140.582 22.593 141.483 22.899 142.673 22.899C143.081 22.899 143.549 22.848 144.076 22.746C144.603 22.644 145.096 22.4825 145.555 22.2615C145.946 22.0745 146.294 22.015 146.6 22.083C146.906 22.134 147.144 22.27 147.314 22.491C147.484 22.712 147.578 22.967 147.595 23.256C147.629 23.545 147.569 23.834 147.416 24.123C147.263 24.395 147.008 24.6245 146.651 24.8115C146.073 25.1345 145.419 25.3725 144.688 25.5255C143.974 25.6955 143.277 25.7805 142.597 25.7805ZM154.322 25.7805C153.404 25.7805 152.58 25.602 151.849 25.245C151.118 24.888 150.548 24.4035 150.14 23.7915C149.732 23.1795 149.528 22.491 149.528 21.726C149.528 20.808 149.766 20.0855 150.242 19.5585C150.718 19.0145 151.492 18.632 152.563 18.411C153.634 18.173 155.053 18.054 156.821 18.054H158.173V20.043H156.847C155.98 20.043 155.274 20.094 154.73 20.196C154.203 20.281 153.821 20.434 153.583 20.655C153.362 20.876 153.251 21.182 153.251 21.573C153.251 22.049 153.413 22.44 153.736 22.746C154.076 23.052 154.56 23.205 155.189 23.205C155.682 23.205 156.116 23.0945 156.49 22.8735C156.881 22.6355 157.187 22.321 157.408 21.93C157.629 21.522 157.739 21.063 157.739 20.553V17.6205C157.739 16.8725 157.569 16.3455 157.229 16.0395C156.889 15.7165 156.311 15.555 155.495 15.555C155.036 15.555 154.535 15.6145 153.991 15.7335C153.464 15.8355 152.877 16.014 152.231 16.269C151.857 16.439 151.526 16.4815 151.237 16.3965C150.948 16.2945 150.727 16.1245 150.574 15.8865C150.421 15.6315 150.344 15.3595 150.344 15.0705C150.344 14.7645 150.429 14.4755 150.599 14.2035C150.769 13.9145 151.05 13.702 151.441 13.566C152.24 13.243 152.988 13.022 153.685 12.903C154.399 12.784 155.053 12.7245 155.648 12.7245C156.957 12.7245 158.028 12.92 158.861 13.311C159.711 13.685 160.349 14.2715 160.774 15.0705C161.199 15.8525 161.411 16.864 161.411 18.105V23.766C161.411 24.395 161.258 24.8795 160.952 25.2195C160.646 25.5595 160.204 25.7295 159.626 25.7295C159.048 25.7295 158.598 25.5595 158.275 25.2195C157.969 24.8795 157.816 24.395 157.816 23.766V22.8225L157.994 22.9755C157.892 23.5535 157.671 24.055 157.331 24.48C157.008 24.888 156.592 25.211 156.082 25.449C155.572 25.67 154.985 25.7805 154.322 25.7805ZM166.273 25.7295C165.627 25.7295 165.134 25.5595 164.794 25.2195C164.454 24.8795 164.284 24.395 164.284 23.766V14.7135C164.284 14.0845 164.446 13.6085 164.769 13.2855C165.109 12.9455 165.576 12.7755 166.171 12.7755C166.783 12.7755 167.251 12.9455 167.574 13.2855C167.897 13.6085 168.058 14.0845 168.058 14.7135V16.0395H167.803C168.007 15.0195 168.458 14.229 169.155 13.668C169.852 13.107 170.753 12.7925 171.858 12.7245C172.283 12.6905 172.606 12.801 172.827 13.056C173.065 13.294 173.192 13.6935 173.209 14.2545C173.243 14.7815 173.133 15.198 172.878 15.504C172.64 15.81 172.232 15.997 171.654 16.065L171.067 16.116C170.098 16.201 169.376 16.4815 168.9 16.9575C168.441 17.4335 168.211 18.122 168.211 19.023V23.766C168.211 24.395 168.041 24.8795 167.701 25.2195C167.378 25.5595 166.902 25.7295 166.273 25.7295Z" fill="#5B5F60" fill-opacity="0.64"/>
</svg>
