<svg width="187" height="34" viewBox="0 0 187 34" fill="none" xmlns="http://www.w3.org/2000/svg">
<path d="M53.9595 7.9897C52.6976 7.40788 51.2927 7.08333 49.8119 7.08333C44.3351 7.08333 39.8953 11.5231 39.8953 17C39.8953 22.4769 44.3351 26.9166 49.8119 26.9166C51.2927 26.9166 52.6976 26.5921 53.9596 26.0103C50.9545 30.8089 45.6204 34 39.541 34C30.1522 34 22.541 26.3889 22.541 17C22.541 7.61115 30.1522 0 39.541 0C45.6204 0 50.9545 3.19112 53.9595 7.9897Z" fill="#EF4444"/>
<path d="M53.9592 17.0001C53.9592 19.2908 52.1023 21.1477 49.8116 21.1477C47.521 21.1477 45.6641 19.2908 45.6641 17.0001C45.6641 14.7095 47.521 12.8525 49.8116 12.8525C52.1023 12.8525 53.9592 14.7095 53.9592 17.0001Z" fill="#EF4444"/>
<path d="M72.3384 25.8315C71.1314 25.8315 69.9967 25.5935 68.9342 25.1175C67.8717 24.633 66.9367 23.9657 66.1292 23.1158C65.3302 22.2658 64.7012 21.284 64.2422 20.1705C63.7917 19.0485 63.5664 17.85 63.5664 16.575C63.5664 15.2915 63.7917 14.093 64.2422 12.9795C64.7012 11.8575 65.3302 10.8758 66.1292 10.0343C66.9367 9.18425 67.8717 8.52125 68.9342 8.04525C69.9967 7.56075 71.1314 7.3185 72.3384 7.3185C73.7834 7.3185 75.1137 7.65425 76.3292 8.32575C77.5447 8.98875 78.5519 9.877 79.3509 10.9905L76.2144 12.6862C75.7384 12.1252 75.1647 11.679 74.4932 11.3475C73.8217 11.0075 73.1034 10.8375 72.3384 10.8375C71.6159 10.8375 70.9359 10.9862 70.2984 11.2838C69.6609 11.5812 69.0999 11.9935 68.6154 12.5205C68.1394 13.0475 67.7654 13.6553 67.4934 14.3438C67.2214 15.0323 67.0854 15.776 67.0854 16.575C67.0854 17.3655 67.2214 18.1093 67.4934 18.8063C67.7654 19.4948 68.1394 20.1025 68.6154 20.6295C69.0999 21.148 69.6609 21.5603 70.2984 21.8663C70.9359 22.1637 71.6159 22.3125 72.3384 22.3125C73.1119 22.3125 73.8302 22.1425 74.4932 21.8025C75.1647 21.4625 75.7384 21.012 76.2144 20.451L79.3509 22.1595C78.5519 23.2645 77.5447 24.1528 76.3292 24.8243C75.1137 25.4958 73.7834 25.8315 72.3384 25.8315ZM86.6449 25.8315C85.4719 25.8315 84.4009 25.5297 83.4319 24.9262C82.4714 24.3227 81.7021 23.5153 81.1241 22.5037C80.5546 21.4838 80.2699 20.3575 80.2699 19.125C80.2699 18.19 80.4356 17.3188 80.7671 16.5112C81.0986 15.6952 81.5534 14.9812 82.1314 14.3693C82.7179 13.7488 83.3979 13.2643 84.1714 12.9158C84.9449 12.5673 85.7694 12.393 86.6449 12.393C87.8179 12.393 88.8846 12.6947 89.8451 13.2982C90.8141 13.9017 91.5834 14.7135 92.1529 15.7335C92.7309 16.7535 93.0199 17.884 93.0199 19.125C93.0199 20.0515 92.8541 20.9185 92.5226 21.726C92.1911 22.5335 91.7321 23.2475 91.1456 23.868C90.5676 24.48 89.8919 24.9602 89.1184 25.3088C88.3534 25.6572 87.5289 25.8315 86.6449 25.8315ZM86.6449 22.3125C87.1889 22.3125 87.6776 22.168 88.1111 21.879C88.5446 21.5815 88.8846 21.1905 89.1311 20.706C89.3776 20.2215 89.5009 19.6945 89.5009 19.125C89.5009 18.5385 89.3691 18.003 89.1056 17.5185C88.8506 17.0255 88.5064 16.6345 88.0729 16.3455C87.6394 16.0565 87.1634 15.912 86.6449 15.912C86.1094 15.912 85.6249 16.0608 85.1914 16.3582C84.7579 16.6558 84.4136 17.0468 84.1586 17.5312C83.9121 18.0157 83.7889 18.547 83.7889 19.125C83.7889 19.7285 83.9164 20.2725 84.1714 20.757C84.4349 21.233 84.7834 21.6112 85.2169 21.8918C85.6504 22.1722 86.1264 22.3125 86.6449 22.3125ZM104.426 6.375H107.945V25.5H104.426V24.1485C104.035 24.6415 103.551 25.0452 102.973 25.3598C102.395 25.6742 101.736 25.8315 100.996 25.8315C100.07 25.8315 99.2029 25.6572 98.3954 25.3088C97.5879 24.9602 96.8739 24.48 96.2534 23.868C95.6414 23.2475 95.1611 22.5335 94.8126 21.726C94.4641 20.9185 94.2899 20.0515 94.2899 19.125C94.2899 18.1985 94.4641 17.3315 94.8126 16.524C95.1611 15.7165 95.6414 15.0068 96.2534 14.3948C96.8739 13.7743 97.5879 13.2898 98.3954 12.9413C99.2029 12.5928 100.07 12.4185 100.996 12.4185C101.736 12.4185 102.395 12.5757 102.973 12.8903C103.551 13.1962 104.035 13.6 104.426 14.1015V6.375ZM101.047 22.4527C101.625 22.4527 102.148 22.304 102.616 22.0065C103.083 21.709 103.453 21.3095 103.725 20.808C103.997 20.298 104.133 19.737 104.133 19.125C104.133 18.5045 103.997 17.9435 103.725 17.442C103.453 16.9405 103.083 16.541 102.616 16.2435C102.148 15.946 101.625 15.7972 101.047 15.7972C100.461 15.7972 99.9296 15.946 99.4536 16.2435C98.9776 16.541 98.5994 16.9447 98.3189 17.4547C98.0384 17.9562 97.8981 18.513 97.8981 19.125C97.8981 19.737 98.0384 20.298 98.3189 20.808C98.6079 21.3095 98.9904 21.709 99.4664 22.0065C99.9424 22.304 100.469 22.4527 101.047 22.4527ZM116.379 25.8315C115.206 25.8315 114.135 25.5297 113.166 24.9262C112.205 24.3227 111.436 23.511 110.858 22.491C110.289 21.471 110.004 20.3448 110.004 19.1123C110.004 18.1858 110.17 17.3188 110.501 16.5112C110.833 15.6952 111.287 14.9812 111.865 14.3693C112.452 13.7488 113.132 13.2643 113.905 12.9158C114.679 12.5673 115.503 12.393 116.379 12.393C117.39 12.393 118.313 12.6097 119.146 13.0433C119.987 13.4767 120.697 14.0675 121.275 14.8155C121.861 15.5635 122.278 16.4093 122.524 17.3528C122.779 18.2963 122.822 19.278 122.652 20.298H113.803C113.914 20.672 114.084 21.012 114.313 21.318C114.551 21.6155 114.84 21.8535 115.18 22.032C115.529 22.2105 115.928 22.304 116.379 22.3125C116.821 22.321 117.229 22.219 117.603 22.0065C117.977 21.794 118.296 21.5093 118.559 21.1523L122.155 21.981C121.636 23.1115 120.863 24.038 119.834 24.7605C118.806 25.4745 117.654 25.8315 116.379 25.8315ZM113.676 17.697H119.095C118.984 17.272 118.797 16.8895 118.534 16.5495C118.27 16.2095 117.951 15.9417 117.577 15.7463C117.212 15.5507 116.812 15.453 116.379 15.453C115.954 15.453 115.554 15.5507 115.18 15.7463C114.815 15.9417 114.5 16.2095 114.237 16.5495C113.982 16.881 113.795 17.2635 113.676 17.697ZM124.464 25.5V6.375H127.983V25.5H124.464ZM131.039 12.75H134.558V25.5H131.039V12.75ZM132.824 11.2838C132.314 11.2838 131.885 11.1138 131.536 10.7738C131.188 10.4338 131.014 10.013 131.014 9.5115C131.014 9.01 131.188 8.58925 131.536 8.24925C131.885 7.90925 132.31 7.73925 132.811 7.73925C133.313 7.73925 133.734 7.90925 134.074 8.24925C134.422 8.58925 134.596 9.01 134.596 9.5115C134.596 10.013 134.426 10.4338 134.086 10.7738C133.755 11.1138 133.334 11.2838 132.824 11.2838ZM149.333 17.391V25.5H145.814V18.36C145.814 17.9095 145.704 17.5057 145.483 17.1487C145.27 16.7832 144.981 16.4943 144.616 16.2818C144.259 16.0693 143.859 15.963 143.417 15.963C142.975 15.963 142.572 16.0693 142.206 16.2818C141.841 16.4943 141.552 16.7832 141.339 17.1487C141.127 17.5057 141.02 17.9095 141.02 18.36V25.5H137.501L137.489 12.75H141.008L141.02 13.6935C141.445 13.2855 141.943 12.9668 142.512 12.7372C143.09 12.5078 143.698 12.393 144.335 12.393C145.262 12.393 146.099 12.6183 146.847 13.0688C147.604 13.5193 148.207 14.1227 148.658 14.8792C149.108 15.6272 149.333 16.4645 149.333 17.391ZM163.739 25.5H159.684L156.981 20.8463L155.426 22.695V25.5H151.907V6.375H155.426V17.2253L159.174 12.75H163.764L159.391 17.9902L163.739 25.5Z" fill="#5B5F60" fill-opacity="0.64"/>
</svg>
