<svg width="1920" height="76" viewBox="0 0 1920 76" fill="none" xmlns="http://www.w3.org/2000/svg">
<g opacity="0.12" clip-path="url(#clip0_1_697)">
<line x1="-40.9917" y1="82.75" x2="9.81515" y2="-5.24999" stroke="#07000E"/>
<line x1="-27.1752" y1="82.75" x2="23.6316" y2="-5.24999" stroke="#07000E"/>
<line x1="-13.3549" y1="82.75" x2="37.4519" y2="-5.24999" stroke="#07000E"/>
<line x1="0.461519" y1="82.75" x2="51.2683" y2="-5.24999" stroke="#07000E"/>
<line x1="14.2779" y1="82.75" x2="65.0847" y2="-5.24999" stroke="#07000E"/>
<line x1="28.0982" y1="82.75" x2="78.9051" y2="-5.24999" stroke="#07000E"/>
<line x1="41.9146" y1="82.75" x2="92.7215" y2="-5.24999" stroke="#07000E"/>
<line x1="55.731" y1="82.75" x2="106.538" y2="-5.24999" stroke="#07000E"/>
<line x1="69.5514" y1="82.75" x2="120.358" y2="-5.24999" stroke="#07000E"/>
<line x1="83.3678" y1="82.75" x2="134.175" y2="-5.24999" stroke="#07000E"/>
<line x1="97.1842" y1="82.75" x2="147.991" y2="-5.24999" stroke="#07000E"/>
<line x1="111.004" y1="82.75" x2="161.811" y2="-5.24999" stroke="#07000E"/>
<line x1="124.821" y1="82.75" x2="175.628" y2="-5.24999" stroke="#07000E"/>
<line x1="138.641" y1="82.75" x2="189.448" y2="-5.24999" stroke="#07000E"/>
<line x1="152.454" y1="82.75" x2="203.261" y2="-5.24999" stroke="#07000E"/>
<line x1="166.274" y1="82.75" x2="217.081" y2="-5.24999" stroke="#07000E"/>
<line x1="180.091" y1="82.75" x2="230.897" y2="-5.24999" stroke="#07000E"/>
<line x1="193.911" y1="82.75" x2="244.718" y2="-5.24999" stroke="#07000E"/>
<line x1="207.723" y1="82.75" x2="258.53" y2="-5.24999" stroke="#07000E"/>
<line x1="221.544" y1="82.75" x2="272.35" y2="-5.24999" stroke="#07000E"/>
<line x1="235.364" y1="82.75" x2="286.171" y2="-5.24999" stroke="#07000E"/>
<line x1="249.18" y1="82.75" x2="299.987" y2="-5.24999" stroke="#07000E"/>
<line x1="262.997" y1="82.75" x2="313.803" y2="-5.24999" stroke="#07000E"/>
<line x1="276.813" y1="82.75" x2="327.62" y2="-5.24999" stroke="#07000E"/>
<line x1="290.633" y1="82.75" x2="341.44" y2="-5.24999" stroke="#07000E"/>
<line x1="304.45" y1="82.75" x2="355.257" y2="-5.24999" stroke="#07000E"/>
<line x1="318.27" y1="82.75" x2="369.077" y2="-5.24999" stroke="#07000E"/>
<line x1="332.083" y1="82.75" x2="382.889" y2="-5.24999" stroke="#07000E"/>
<line x1="345.903" y1="82.75" x2="396.71" y2="-5.24999" stroke="#07000E"/>
<line x1="359.719" y1="82.75" x2="410.526" y2="-5.24999" stroke="#07000E"/>
<line x1="373.54" y1="82.75" x2="424.346" y2="-5.24999" stroke="#07000E"/>
<line x1="387.356" y1="82.75" x2="438.163" y2="-5.24999" stroke="#07000E"/>
<line x1="401.172" y1="82.75" x2="451.979" y2="-5.24999" stroke="#07000E"/>
<line x1="414.993" y1="82.75" x2="465.8" y2="-5.24999" stroke="#07000E"/>
<line x1="428.809" y1="82.75" x2="479.616" y2="-5.24999" stroke="#07000E"/>
<line x1="442.626" y1="82.75" x2="493.432" y2="-5.24999" stroke="#07000E"/>
<line x1="456.442" y1="82.75" x2="507.249" y2="-5.24999" stroke="#07000E"/>
<line x1="470.262" y1="82.75" x2="521.069" y2="-5.24999" stroke="#07000E"/>
<line x1="484.079" y1="82.75" x2="534.885" y2="-5.24999" stroke="#07000E"/>
<line x1="497.895" y1="82.75" x2="548.702" y2="-5.24999" stroke="#07000E"/>
<line x1="511.712" y1="82.75" x2="562.518" y2="-5.24999" stroke="#07000E"/>
<line x1="525.532" y1="82.75" x2="576.339" y2="-5.24999" stroke="#07000E"/>
<line x1="539.348" y1="82.75" x2="590.155" y2="-5.24999" stroke="#07000E"/>
<line x1="553.165" y1="82.75" x2="603.971" y2="-5.24999" stroke="#07000E"/>
<line x1="566.985" y1="82.75" x2="617.792" y2="-5.24999" stroke="#07000E"/>
<line x1="580.801" y1="82.75" x2="631.608" y2="-5.24999" stroke="#07000E"/>
<line x1="594.622" y1="82.75" x2="645.428" y2="-5.24999" stroke="#07000E"/>
<line x1="608.438" y1="82.75" x2="659.245" y2="-5.24999" stroke="#07000E"/>
<line x1="622.254" y1="82.75" x2="673.061" y2="-5.24999" stroke="#07000E"/>
<line x1="636.071" y1="82.75" x2="686.878" y2="-5.24999" stroke="#07000E"/>
<line x1="649.891" y1="82.75" x2="700.698" y2="-5.24999" stroke="#07000E"/>
<line x1="663.708" y1="82.75" x2="714.514" y2="-5.24999" stroke="#07000E"/>
<line x1="677.524" y1="82.75" x2="728.331" y2="-5.24999" stroke="#07000E"/>
<line x1="691.344" y1="82.75" x2="742.151" y2="-5.24999" stroke="#07000E"/>
<line x1="705.161" y1="82.75" x2="755.968" y2="-5.24999" stroke="#07000E"/>
<line x1="718.977" y1="82.75" x2="769.784" y2="-5.24999" stroke="#07000E"/>
<line x1="732.794" y1="82.75" x2="783.6" y2="-5.24999" stroke="#07000E"/>
<line x1="746.614" y1="82.75" x2="797.421" y2="-5.24999" stroke="#07000E"/>
<line x1="760.43" y1="82.75" x2="811.237" y2="-5.24999" stroke="#07000E"/>
<line x1="774.251" y1="82.75" x2="825.057" y2="-5.24999" stroke="#07000E"/>
<line x1="788.067" y1="82.75" x2="838.874" y2="-5.24999" stroke="#07000E"/>
<line x1="801.883" y1="82.75" x2="852.69" y2="-5.24999" stroke="#07000E"/>
<line x1="815.704" y1="82.75" x2="866.51" y2="-5.24999" stroke="#07000E"/>
<line x1="829.52" y1="82.75" x2="880.327" y2="-5.24999" stroke="#07000E"/>
<line x1="843.337" y1="82.75" x2="894.143" y2="-5.24999" stroke="#07000E"/>
<line x1="857.157" y1="82.75" x2="907.964" y2="-5.24999" stroke="#07000E"/>
<line x1="870.973" y1="82.75" x2="921.78" y2="-5.24999" stroke="#07000E"/>
<line x1="884.79" y1="82.75" x2="935.596" y2="-5.24999" stroke="#07000E"/>
<line x1="898.606" y1="82.75" x2="949.413" y2="-5.24999" stroke="#07000E"/>
<line x1="912.426" y1="82.75" x2="963.233" y2="-5.24999" stroke="#07000E"/>
<line x1="926.243" y1="82.75" x2="977.05" y2="-5.24999" stroke="#07000E"/>
<line x1="940.059" y1="82.75" x2="990.866" y2="-5.24999" stroke="#07000E"/>
<line x1="953.879" y1="82.75" x2="1004.69" y2="-5.24999" stroke="#07000E"/>
<line x1="967.696" y1="82.75" x2="1018.5" y2="-5.24999" stroke="#07000E"/>
<line x1="981.516" y1="82.75" x2="1032.32" y2="-5.24999" stroke="#07000E"/>
<line x1="995.333" y1="82.75" x2="1046.14" y2="-5.24999" stroke="#07000E"/>
<line x1="1009.15" y1="82.75" x2="1059.96" y2="-5.24999" stroke="#07000E"/>
<line x1="1022.97" y1="82.75" x2="1073.77" y2="-5.24999" stroke="#07000E"/>
<line x1="1036.79" y1="82.75" x2="1087.59" y2="-5.24999" stroke="#07000E"/>
<line x1="1050.6" y1="82.75" x2="1101.41" y2="-5.24999" stroke="#07000E"/>
<line x1="1064.42" y1="82.75" x2="1115.23" y2="-5.24999" stroke="#07000E"/>
<line x1="1078.24" y1="82.75" x2="1129.05" y2="-5.24999" stroke="#07000E"/>
<line x1="1092.06" y1="82.75" x2="1142.86" y2="-5.24999" stroke="#07000E"/>
<line x1="1105.87" y1="82.75" x2="1156.68" y2="-5.24999" stroke="#07000E"/>
<line x1="1119.69" y1="82.75" x2="1170.49" y2="-5.24999" stroke="#07000E"/>
<line x1="1133.51" y1="82.75" x2="1184.32" y2="-5.24999" stroke="#07000E"/>
<line x1="1147.32" y1="82.75" x2="1198.13" y2="-5.24999" stroke="#07000E"/>
<line x1="1161.15" y1="82.75" x2="1211.95" y2="-5.24999" stroke="#07000E"/>
<line x1="1174.96" y1="82.75" x2="1225.77" y2="-5.24999" stroke="#07000E"/>
<line x1="1188.78" y1="82.75" x2="1239.58" y2="-5.24999" stroke="#07000E"/>
<line x1="1202.59" y1="82.75" x2="1253.4" y2="-5.24999" stroke="#07000E"/>
<line x1="1216.41" y1="82.75" x2="1267.22" y2="-5.24999" stroke="#07000E"/>
<line x1="1230.23" y1="82.75" x2="1281.04" y2="-5.24999" stroke="#07000E"/>
<line x1="1244.05" y1="82.75" x2="1294.85" y2="-5.24999" stroke="#07000E"/>
<line x1="1257.87" y1="82.75" x2="1308.67" y2="-5.24999" stroke="#07000E"/>
<line x1="1271.68" y1="82.75" x2="1322.49" y2="-5.24999" stroke="#07000E"/>
<line x1="1285.5" y1="82.75" x2="1336.31" y2="-5.24999" stroke="#07000E"/>
<line x1="1299.32" y1="82.75" x2="1350.12" y2="-5.24999" stroke="#07000E"/>
<line x1="1313.14" y1="82.75" x2="1363.94" y2="-5.24999" stroke="#07000E"/>
<line x1="1326.95" y1="82.75" x2="1377.76" y2="-5.24999" stroke="#07000E"/>
<line x1="1340.77" y1="82.75" x2="1391.58" y2="-5.24999" stroke="#07000E"/>
<line x1="1354.59" y1="82.75" x2="1405.4" y2="-5.24999" stroke="#07000E"/>
<line x1="1368.41" y1="82.75" x2="1419.21" y2="-5.24999" stroke="#07000E"/>
<line x1="1382.23" y1="82.75" x2="1433.03" y2="-5.24999" stroke="#07000E"/>
<line x1="1396.04" y1="82.75" x2="1446.85" y2="-5.24999" stroke="#07000E"/>
<line x1="1409.86" y1="82.75" x2="1460.67" y2="-5.24999" stroke="#07000E"/>
<line x1="1423.68" y1="82.75" x2="1474.48" y2="-5.24999" stroke="#07000E"/>
<line x1="1437.5" y1="82.75" x2="1488.3" y2="-5.24999" stroke="#07000E"/>
<line x1="1451.31" y1="82.75" x2="1502.12" y2="-5.24999" stroke="#07000E"/>
<line x1="1465.13" y1="82.75" x2="1515.94" y2="-5.24999" stroke="#07000E"/>
<line x1="1478.95" y1="82.75" x2="1529.76" y2="-5.24999" stroke="#07000E"/>
<line x1="1492.77" y1="82.75" x2="1543.57" y2="-5.24999" stroke="#07000E"/>
<line x1="1506.58" y1="82.75" x2="1557.39" y2="-5.24999" stroke="#07000E"/>
<line x1="1520.4" y1="82.75" x2="1571.21" y2="-5.24999" stroke="#07000E"/>
<line x1="1534.22" y1="82.75" x2="1585.03" y2="-5.24999" stroke="#07000E"/>
<line x1="1548.04" y1="82.75" x2="1598.84" y2="-5.24999" stroke="#07000E"/>
<line x1="1561.86" y1="82.75" x2="1612.66" y2="-5.24999" stroke="#07000E"/>
<line x1="1575.67" y1="82.75" x2="1626.48" y2="-5.24999" stroke="#07000E"/>
<line x1="1589.49" y1="82.75" x2="1640.3" y2="-5.24999" stroke="#07000E"/>
<line x1="1603.31" y1="82.75" x2="1654.11" y2="-5.24999" stroke="#07000E"/>
<line x1="1617.13" y1="82.75" x2="1667.93" y2="-5.24999" stroke="#07000E"/>
<line x1="1630.94" y1="82.75" x2="1681.75" y2="-5.24999" stroke="#07000E"/>
<line x1="1644.76" y1="82.75" x2="1695.57" y2="-5.24999" stroke="#07000E"/>
<line x1="1658.58" y1="82.75" x2="1709.39" y2="-5.24999" stroke="#07000E"/>
<line x1="1672.4" y1="82.75" x2="1723.2" y2="-5.24999" stroke="#07000E"/>
<line x1="1686.21" y1="82.75" x2="1737.02" y2="-5.24999" stroke="#07000E"/>
<line x1="1700.03" y1="82.75" x2="1750.83" y2="-5.24999" stroke="#07000E"/>
<line x1="1713.85" y1="82.75" x2="1764.65" y2="-5.24999" stroke="#07000E"/>
<line x1="1727.66" y1="82.75" x2="1778.47" y2="-5.24999" stroke="#07000E"/>
<line x1="1741.48" y1="82.75" x2="1792.29" y2="-5.24999" stroke="#07000E"/>
<line x1="1755.3" y1="82.75" x2="1806.1" y2="-5.24999" stroke="#07000E"/>
<line x1="1769.12" y1="82.75" x2="1819.92" y2="-5.24999" stroke="#07000E"/>
<line x1="1782.94" y1="82.75" x2="1833.74" y2="-5.24999" stroke="#07000E"/>
<line x1="1796.75" y1="82.75" x2="1847.56" y2="-5.24999" stroke="#07000E"/>
<line x1="1810.57" y1="82.75" x2="1861.38" y2="-5.24999" stroke="#07000E"/>
<line x1="1824.39" y1="82.75" x2="1875.2" y2="-5.24999" stroke="#07000E"/>
<line x1="1838.21" y1="82.75" x2="1889.01" y2="-5.24999" stroke="#07000E"/>
<line x1="1852.02" y1="82.75" x2="1902.83" y2="-5.24999" stroke="#07000E"/>
<line x1="1865.84" y1="82.75" x2="1916.65" y2="-5.24999" stroke="#07000E"/>
<line x1="1879.66" y1="82.75" x2="1930.47" y2="-5.24999" stroke="#07000E"/>
<line x1="1893.48" y1="82.75" x2="1944.28" y2="-5.24999" stroke="#07000E"/>
<line x1="1907.29" y1="82.75" x2="1958.1" y2="-5.24999" stroke="#07000E"/>
</g>
<defs>
<clipPath id="clip0_1_697">
<rect width="1920" height="76" fill="white"/>
</clipPath>
</defs>
</svg>
