<svg width="675" height="601" viewBox="0 0 675 601" fill="none" xmlns="http://www.w3.org/2000/svg">
<path d="M543.571 310.916C571.331 280.086 618.828 277.596 649.658 305.355C680.489 333.115 682.978 380.613 655.218 411.443L506.992 576.064C479.232 606.895 431.736 609.384 400.905 581.624C370.075 553.864 367.586 506.368 395.346 475.537L543.571 310.916ZM247.882 401.058C275.642 370.227 323.138 367.738 353.969 395.498C384.799 423.258 387.288 470.755 359.528 501.585L315.547 550.432C287.787 581.262 240.29 583.751 209.46 555.991C178.63 528.231 176.141 480.735 203.9 449.904L247.882 401.058ZM375.475 30.6299C402.783 0.300931 449.508 -2.14828 479.837 25.1602C510.166 52.4688 512.614 99.1942 485.306 129.523L184.181 463.958C156.872 494.287 110.148 496.735 79.8184 469.427C49.4893 442.118 47.0402 395.394 74.3486 365.064L375.475 30.6299ZM464.696 161.932C492.456 131.102 539.953 128.612 570.783 156.372C601.613 184.132 604.102 231.629 576.343 262.459L464.65 386.506C436.891 417.336 389.394 419.825 358.563 392.065C327.733 364.306 325.244 316.809 353.004 285.979L464.696 161.932ZM167.521 24.8545C195.28 -5.97563 242.777 -8.46484 273.607 19.2949C304.438 47.0547 306.927 94.5514 279.167 125.382L130.941 290.003C103.182 320.833 55.6849 323.323 24.8545 295.563C-5.9759 267.804 -8.46488 220.306 19.2949 189.476L167.521 24.8545Z" fill="black"/>
</svg>
