<svg width="195" height="210" viewBox="0 0 195 210" fill="none" xmlns="http://www.w3.org/2000/svg">
<g opacity="0.1">
<path d="M192.206 148.991V86.5096L166.636 71.3024L114.216 39.0223L121.832 34.5993L171.059 63.6322C171.051 63.7667 171.043 63.8938 171.043 64.0208C171.066 66.5618 173.171 68.6344 175.736 68.6344C176.975 68.6344 178.142 68.1424 179.023 67.2444C179.896 66.355 180.373 65.1879 180.365 63.9486C180.333 61.3914 178.228 59.3188 175.664 59.3188C174.655 59.3263 173.678 59.6601 172.885 60.2717L122.071 30.2946L121.722 30.048L120.141 31.0083L110.334 36.6781L100.677 30.8576L121.283 18.9861L178.126 52.7435C178.11 52.9415 178.103 53.1321 178.103 53.3226C178.142 54.5695 178.658 55.7204 179.564 56.5786C180.429 57.3969 181.565 57.8416 182.78 57.8416H182.899C185.464 57.7619 187.497 55.6095 187.426 53.0449C187.346 50.5587 185.242 48.5347 182.732 48.5347H182.622C181.692 48.5583 180.779 48.876 180.033 49.4165L121.721 14.8259L121.3 14.5718L96.7072 28.6591L46.5344 57.3184V48.9407L96.7695 20.3288C97.5878 20.9242 98.588 21.258 99.5969 21.2343C100.836 21.2181 101.995 20.7186 102.869 19.8206C103.735 18.9238 104.21 17.748 104.187 16.5086C104.171 15.2618 103.671 14.1022 102.782 13.2365C101.892 12.3634 100.725 11.8863 99.4786 11.91C96.9052 11.9498 94.8413 14.0623 94.8725 16.627C94.8725 16.7465 94.8799 16.8736 94.8961 17.0006L42.8737 46.6202L42.5399 46.8183V59.619L32.0734 65.6625V39.3561L87.8126 8.90194L88.5275 8.47346C89.3372 9.02899 90.2987 9.33166 91.2665 9.31547C93.8399 9.28308 95.8963 7.15565 95.8565 4.59103C95.8166 2.0264 93.6892 -0.0549444 91.132 0.00110615C89.8927 0.0172985 88.7256 0.516772 87.8599 1.41483C86.9942 2.30416 86.5259 3.47998 86.5421 4.72679C86.5421 4.90117 86.5583 5.06808 86.5732 5.22751L31.701 35.2108L28.2545 37.0057V124.834L20.8695 120.593V63.9174C22.4339 63.1477 23.474 61.4874 23.474 59.7398C23.474 57.1665 21.3777 55.0789 18.8131 55.0789C16.2397 55.0789 14.1522 57.1677 14.1522 59.7398C14.1522 61.6219 15.3118 63.3295 17.0431 64.0445V122.975L28.2557 129.503V140.644L6.63265 127.938V63.9648C8.24442 63.2025 9.31685 61.5272 9.31685 59.7398C9.31685 57.1665 7.22803 55.0789 4.65594 55.0789C2.08882 55.0789 0 57.1677 0 59.7411C0 61.5521 1.14343 63.2835 2.81125 64.0134V130.139L28.3815 145.156L78.4982 174.951L71.2951 178.93L22.0677 150.12C22.0914 149.929 22.1076 149.738 22.1076 149.564C22.1076 146.991 20.0113 144.903 17.4467 144.903C14.8733 144.903 12.7858 146.992 12.7858 149.564C12.7858 152.129 14.8746 154.217 17.4467 154.217C18.3759 154.217 19.3125 153.923 20.091 153.392L70.9538 183.171L71.3586 183.392L82.5476 177.302L93.0054 183.409L70.7309 195.623L54.3566 185.443L13.6103 160.858C13.634 160.683 13.6427 160.524 13.6427 160.373C13.6427 157.8 11.5539 155.712 8.9818 155.712C6.41717 155.712 4.32835 157.801 4.32835 160.373C4.32835 162.938 6.41717 165.026 8.9818 165.026C9.94213 165.026 10.895 164.716 11.6822 164.161L52.3649 188.707L70.2563 199.833L70.5976 200.063L108.23 179.433L148.657 157.452V165.83L105.005 189.923C104.196 189.311 103.21 188.978 102.194 188.978C99.6293 188.978 97.5405 191.066 97.5405 193.638C97.5405 193.996 97.5803 194.321 97.6513 194.624C97.8257 195.489 98.2629 196.283 98.9056 196.927C99.7713 197.809 100.946 198.293 102.193 198.293C104.766 198.293 106.862 196.204 106.862 193.64C106.862 193.52 106.855 193.402 106.839 193.282L152.048 168.324L152.476 168.077V155.371L162.934 149.685V175.239L113.167 201.5C112.358 200.905 111.373 200.571 110.372 200.571C107.799 200.571 105.711 202.66 105.711 205.225C105.711 207.798 107.8 209.886 110.372 209.886C112.937 209.886 115.026 207.797 115.026 205.225C115.026 205.098 115.018 204.971 115.01 204.851L166.317 177.78L166.762 177.542V91.386L174.147 95.7928V148.959C172.424 149.674 171.272 151.381 171.272 153.255C171.272 155.828 173.368 157.916 175.942 157.916C178.506 157.916 180.595 155.827 180.595 153.255C180.595 151.492 179.546 149.832 177.974 149.07V93.4823L166.762 86.6453V75.8288L188.377 88.6856V149.03C186.757 149.776 185.686 151.452 185.686 153.255C185.686 155.828 187.774 157.916 190.339 157.916C192.912 157.916 195 155.827 195 153.255C195.001 151.452 193.858 149.721 192.206 148.991ZM175.705 62.226C176.674 62.226 177.46 63.0119 177.46 63.9735C177.46 64.9426 176.674 65.736 175.705 65.736C174.736 65.736 173.95 64.9413 173.95 63.9735C173.95 63.0119 174.736 62.226 175.705 62.226ZM182.772 51.4344C183.733 51.4344 184.52 52.2203 184.52 53.1894C184.52 54.1584 183.734 54.9369 182.772 54.9369C181.796 54.9369 181.01 54.1584 181.01 53.1894C181.01 52.2203 181.796 51.4344 182.772 51.4344ZM98.2866 15.3502C98.6117 15.0164 99.0489 14.8259 99.5097 14.8184C99.9781 14.8109 100.423 14.9853 100.764 15.3191C101.098 15.6442 101.288 16.0814 101.296 16.5497C101.303 17.5101 100.526 18.3122 99.557 18.3209C99.08 18.3284 98.6515 18.154 98.3177 17.8289C97.9764 17.4951 97.7859 17.0592 97.7859 16.5896C97.7784 16.1275 97.9528 15.6828 98.2866 15.3502ZM91.1719 2.90577C92.1173 2.90577 92.9344 3.66059 92.9506 4.62839C92.9506 5.09673 92.7762 5.54139 92.4498 5.87521C92.1247 6.20902 91.6875 6.39959 91.2192 6.40706C90.7509 6.39959 90.3137 6.23269 89.9724 5.90635C89.6386 5.58125 89.448 5.14406 89.448 4.67572C89.4331 3.71664 90.2028 2.91449 91.1719 2.90577ZM18.8131 61.4961C17.844 61.4961 17.0581 60.7101 17.0581 59.7485C17.0581 58.7795 17.844 57.9935 18.8131 57.9935C19.7821 57.9935 20.5681 58.7795 20.5681 59.7485C20.5668 60.7089 19.7809 61.4961 18.8131 61.4961ZM4.65344 61.4961C3.69311 61.4961 2.90591 60.7101 2.90591 59.7485C2.90591 58.7795 3.69187 57.9935 4.65344 57.9935C5.6225 57.9935 6.40845 58.7795 6.40845 59.7485C6.40845 60.7089 5.6225 61.4961 4.65344 61.4961ZM17.4467 151.309C16.4776 151.309 15.6917 150.523 15.6917 149.561C15.6917 148.592 16.4776 147.806 17.4467 147.806C18.407 147.806 19.1942 148.592 19.1942 149.561C19.1942 150.523 18.407 151.309 17.4467 151.309ZM8.98927 162.109C8.02022 162.109 7.22679 161.323 7.22679 160.362C7.22679 159.393 8.02146 158.607 8.98927 158.607C9.9496 158.607 10.7368 159.393 10.7368 160.362C10.7368 161.323 9.9496 162.109 8.98927 162.109ZM102.201 195.391C101.241 195.391 100.454 194.605 100.454 193.636C100.454 192.667 101.24 191.881 102.201 191.881C103.17 191.881 103.956 192.667 103.956 193.636C103.956 194.604 103.17 195.391 102.201 195.391ZM110.374 206.976C109.405 206.976 108.611 206.19 108.611 205.221C108.611 204.261 109.406 203.473 110.374 203.473C111.343 203.473 112.121 204.259 112.121 205.221C112.12 206.19 111.343 206.976 110.374 206.976ZM162.935 145.536L97.2938 181.191L32.0734 142.884V70.3969L97.2141 32.8592L162.934 73.4697V145.536H162.935ZM175.943 151.516C176.903 151.516 177.69 152.302 177.69 153.271C177.69 154.231 176.904 155.018 175.943 155.018C174.974 155.018 174.188 154.232 174.188 153.271C174.188 152.302 174.974 151.516 175.943 151.516ZM190.348 155.018C189.379 155.018 188.585 154.232 188.585 153.271C188.585 152.302 189.38 151.516 190.348 151.516C191.308 151.516 192.095 152.302 192.095 153.271C192.095 154.231 191.309 155.018 190.348 155.018Z" fill="white"/>
<path d="M97.993 82.2988L110.842 115.294H84.7949L97.993 82.2988Z" fill="white"/>
<path d="M109.444 45.8021L96.7544 38.1543L50.1166 64.797L36.5287 72.6503V140.372L83.032 168.023L83.2861 168.151L96.9923 176.147L158.489 142.684V75.9934L109.444 45.8021ZM122.419 145.978L117.21 132.661H77.8467L72.6377 145.978H54.1099L88.8438 59.1347H106.211L140.89 145.923L122.419 145.978Z" fill="white"/>
</g>
</svg>
