<svg width="193" height="52" viewBox="0 0 193 52" fill="none" xmlns="http://www.w3.org/2000/svg">
<path d="M181.154 36.81L173.747 18.9533H178.954L183.867 32.5933H182.107L187.204 18.9533H192.447L184.564 36.81H181.154ZM176.24 44.07L181.63 32.6667L184.564 36.81L181.337 44.07H176.24Z" fill="white"/>
<path d="M162.995 36.6633V17.0467C162.995 15.6289 163.301 14.3822 163.912 13.3067C164.523 12.2067 165.391 11.3389 166.515 10.7033C167.64 10.0678 168.96 9.75 170.475 9.75C171.624 9.75 172.614 9.94556 173.445 10.3367C174.277 10.7278 175.022 11.2656 175.682 11.95L172.639 15.03C172.37 14.7611 172.077 14.5533 171.759 14.4067C171.441 14.26 171.038 14.1867 170.549 14.1867C169.669 14.1867 168.984 14.4311 168.495 14.92C168.031 15.3844 167.799 16.0567 167.799 16.9367V36.6633H162.995ZM158.889 23.17V18.9533H173.042V23.17H158.889Z" fill="white"/>
<path d="M152.191 36.6633V26.5067C152.191 25.4556 151.861 24.6 151.201 23.94C150.541 23.28 149.686 22.95 148.634 22.95C147.95 22.95 147.339 23.0967 146.801 23.39C146.263 23.6833 145.836 24.0989 145.518 24.6367C145.224 25.1744 145.078 25.7978 145.078 26.5067L143.208 25.5533C143.208 24.16 143.501 22.95 144.088 21.9233C144.674 20.8722 145.481 20.0533 146.508 19.4667C147.559 18.88 148.757 18.5867 150.101 18.5867C151.446 18.5867 152.631 18.88 153.658 19.4667C154.709 20.0533 155.528 20.86 156.114 21.8867C156.701 22.9133 156.994 24.0989 156.994 25.4433V36.6633H152.191ZM140.274 36.6633V10.1533H145.078V36.6633H140.274Z" fill="white"/>
<path d="M130.588 37.03C128.779 37.03 127.153 36.6267 125.711 35.82C124.269 35.0133 123.132 33.9133 122.301 32.52C121.47 31.1267 121.054 29.5622 121.054 27.8267C121.054 26.0667 121.47 24.49 122.301 23.0967C123.132 21.7033 124.269 20.6033 125.711 19.7967C127.178 18.9656 128.803 18.55 130.588 18.55C131.981 18.55 133.264 18.8067 134.438 19.32C135.611 19.8333 136.625 20.5667 137.481 21.52L134.401 24.6367C133.936 24.1233 133.374 23.7322 132.714 23.4633C132.079 23.1944 131.37 23.06 130.588 23.06C129.708 23.06 128.913 23.2678 128.204 23.6833C127.52 24.0744 126.97 24.6244 126.554 25.3333C126.163 26.0178 125.968 26.8367 125.968 27.79C125.968 28.7189 126.163 29.55 126.554 30.2833C126.97 30.9922 127.52 31.5544 128.204 31.97C128.913 32.3611 129.708 32.5567 130.588 32.5567C131.394 32.5567 132.115 32.4222 132.751 32.1533C133.411 31.86 133.973 31.4444 134.438 30.9067L137.554 34.0233C136.65 35.0011 135.611 35.7467 134.438 36.26C133.264 36.7733 131.981 37.03 130.588 37.03Z" fill="white"/>
<path d="M110.86 37.03C109.003 37.03 107.353 36.6389 105.91 35.8567C104.468 35.05 103.319 33.95 102.464 32.5567C101.633 31.1633 101.217 29.5744 101.217 27.79C101.217 26.03 101.62 24.4656 102.427 23.0967C103.258 21.7033 104.383 20.6033 105.8 19.7967C107.218 18.9656 108.795 18.55 110.53 18.55C112.241 18.55 113.745 18.9411 115.04 19.7233C116.36 20.4811 117.387 21.5322 118.12 22.8767C118.878 24.1967 119.257 25.7 119.257 27.3867C119.257 27.7044 119.233 28.0344 119.184 28.3767C119.159 28.6944 119.098 29.0611 119 29.4767L104.114 29.5133V25.92L116.764 25.8833L114.82 27.3867C114.771 26.3356 114.576 25.4556 114.234 24.7467C113.916 24.0378 113.439 23.5 112.804 23.1333C112.193 22.7422 111.435 22.5467 110.53 22.5467C109.577 22.5467 108.746 22.7667 108.037 23.2067C107.328 23.6222 106.778 24.2211 106.387 25.0033C106.02 25.7611 105.837 26.6656 105.837 27.7167C105.837 28.7922 106.033 29.7333 106.424 30.54C106.839 31.3222 107.426 31.9333 108.184 32.3733C108.941 32.7889 109.821 32.9967 110.824 32.9967C111.728 32.9967 112.547 32.85 113.28 32.5567C114.014 32.2389 114.649 31.7744 115.187 31.1633L118.01 33.9867C117.155 34.9889 116.104 35.7467 114.857 36.26C113.635 36.7733 112.303 37.03 110.86 37.03Z" fill="white"/>
<path d="M91.1721 36.6633V11.5833H95.9754V36.6633H91.1721ZM87.0287 23.17V18.9533H100.119V23.17H87.0287Z" fill="white"/>
<path d="M79.4736 36.6633V18.9533H84.3136V36.6633H79.4736ZM81.8936 16.0933C81.1114 16.0933 80.4636 15.8367 79.9503 15.3233C79.437 14.7856 79.1803 14.1256 79.1803 13.3433C79.1803 12.5856 79.437 11.9378 79.9503 11.4C80.4636 10.8622 81.1114 10.5933 81.8936 10.5933C82.7003 10.5933 83.3481 10.8622 83.837 11.4C84.3503 11.9378 84.607 12.5856 84.607 13.3433C84.607 14.1256 84.3503 14.7856 83.837 15.3233C83.3481 15.8367 82.7003 16.0933 81.8936 16.0933Z" fill="white"/>
<path d="M51.8694 36.6633L62.246 10.8867H66.316L76.656 36.6633H71.3394L63.346 15.5067H65.1794L57.076 36.6633H51.8694ZM57.3694 31.86V27.68H71.2294V31.86H57.3694Z" fill="white"/>
<path d="M47.6198 36.9131V21.4331L41.2847 17.6655L28.2975 9.66792L30.1842 8.57211L42.3805 15.7651C42.3787 15.7985 42.3765 15.8299 42.3765 15.8614C42.3824 16.491 42.9039 17.0045 43.5393 17.0045C43.8463 17.0045 44.1355 16.8826 44.3537 16.6601C44.57 16.4397 44.6882 16.1506 44.686 15.8435C44.6783 15.21 44.1568 14.6965 43.5214 14.6965C43.2714 14.6983 43.0295 14.781 42.8329 14.9325L30.2435 7.5056L30.1571 7.4445L29.7655 7.68243L27.3356 9.08715L24.9431 7.64509L30.0485 4.70387L44.1315 13.0674C44.1275 13.1165 44.1256 13.1637 44.1256 13.2109C44.1355 13.5198 44.2633 13.8049 44.4876 14.0176C44.7021 14.2203 44.9835 14.3305 45.2844 14.3305H45.314C45.9494 14.3107 46.453 13.7775 46.4355 13.1421C46.4157 12.5261 45.8945 12.0247 45.2727 12.0247H45.2452C45.015 12.0305 44.7888 12.1092 44.604 12.2431L30.1568 3.67317L30.0525 3.61021L23.9596 7.10042L11.5291 14.2009V12.1253L23.975 5.03654C24.1778 5.18405 24.4256 5.26675 24.6755 5.26089C24.9826 5.25687 25.2696 5.13313 25.4862 4.91063C25.7007 4.68844 25.8186 4.39713 25.8127 4.09008C25.8087 3.78117 25.6849 3.49387 25.4646 3.2794C25.2443 3.06308 24.9551 2.94488 24.6462 2.95075C24.0087 2.96062 23.4973 3.484 23.505 4.11939C23.505 4.14902 23.5069 4.1805 23.5109 4.21197L10.6221 11.5504L10.5394 11.5994V14.7708L7.94631 16.2681V9.75063L21.7559 2.20549L21.933 2.09933C22.1336 2.23697 22.3719 2.31196 22.6116 2.30794C23.2492 2.29992 23.7587 1.77284 23.7488 1.13744C23.7389 0.502049 23.2119 -0.0136127 22.5783 0.000274053C22.2713 0.00428578 21.9821 0.128032 21.7676 0.350529C21.5532 0.570865 21.4371 0.862179 21.4411 1.17108C21.4411 1.21429 21.4452 1.25564 21.4489 1.29514L7.85404 8.72363L7.00016 9.16831V30.9282L5.1705 29.8775V15.8358C5.5581 15.6451 5.81577 15.2337 5.81577 14.8008C5.81577 14.1632 5.29641 13.646 4.66101 13.646C4.02346 13.646 3.50625 14.1635 3.50625 14.8008C3.50625 15.2671 3.79355 15.6901 4.2225 15.8673V30.4675L7.00047 32.0849V34.8452L1.64327 31.6973V15.8475C2.04259 15.6587 2.30829 15.2436 2.30829 14.8008C2.30829 14.1632 1.79077 13.646 1.15353 13.646C0.517513 13.646 0 14.1635 0 14.8011C0 15.2498 0.28329 15.6787 0.696498 15.8596V32.2425L7.03164 35.963L19.4482 43.3448L17.6636 44.3305L5.46737 37.1927C5.47323 37.1455 5.47724 37.0983 5.47724 37.0551C5.47724 36.4175 4.95788 35.9003 4.32248 35.9003C3.68493 35.9003 3.16772 36.4178 3.16772 37.0551C3.16772 37.6905 3.68524 38.208 4.32248 38.208C4.5527 38.208 4.78476 38.1352 4.97763 38.0034L17.5791 45.3813L17.6794 45.4362L20.4515 43.9272L23.0424 45.4402L17.5238 48.4663L13.4671 45.9441L3.37201 39.8531C3.37788 39.8099 3.38004 39.7704 3.38004 39.7331C3.38004 39.0955 2.86252 38.5783 2.22528 38.5783C1.58988 38.5783 1.07237 39.0958 1.07237 39.7331C1.07237 40.3685 1.58988 40.886 2.22528 40.886C2.4632 40.886 2.69928 40.8091 2.89431 40.6715L12.9736 46.753L17.4063 49.5093L17.4908 49.5664L26.8144 44.4552L36.8305 39.0094V41.085L26.0154 47.0542C25.8149 46.9026 25.5708 46.8199 25.3189 46.8199C24.6836 46.8199 24.166 47.3374 24.166 47.9747C24.166 48.0633 24.1759 48.1438 24.1935 48.2188C24.2367 48.4333 24.345 48.6298 24.5043 48.7894C24.7187 49.0079 25.0097 49.1279 25.3186 49.1279C25.9562 49.1279 26.4756 48.6104 26.4756 47.975C26.4756 47.9454 26.4737 47.9161 26.4697 47.8864L37.6704 41.7028L37.7766 41.6417V38.4937L40.3676 37.085V43.4161L28.0377 49.9225C27.8371 49.775 27.593 49.6923 27.3452 49.6923C26.7076 49.6923 26.1904 50.2098 26.1904 50.8452C26.1904 51.4828 26.7079 52 27.3452 52C27.9806 52 28.4981 51.4825 28.4981 50.8452C28.4981 50.8138 28.4962 50.7823 28.4941 50.7527L41.2057 44.0457L41.3159 43.9867V22.6412L43.1455 23.733V36.9051C42.7187 37.0822 42.4333 37.5053 42.4333 37.9694C42.4333 38.607 42.9527 39.1242 43.5902 39.1242C44.2256 39.1242 44.7431 38.6067 44.7431 37.9694C44.7431 37.5328 44.4833 37.1214 44.0938 36.9326V23.1606L41.3159 21.4667V18.7869L46.6712 21.9722V36.9227C46.2697 37.1075 46.0044 37.5229 46.0044 37.9694C46.0044 38.607 46.5219 39.1242 47.1573 39.1242C47.7948 39.1242 48.312 38.6067 48.312 37.9694C48.3123 37.5229 48.029 37.094 47.6198 36.9131ZM43.5316 15.4167C43.7717 15.4167 43.9664 15.6115 43.9664 15.8497C43.9664 16.0898 43.7717 16.2864 43.5316 16.2864C43.2915 16.2864 43.0968 16.0895 43.0968 15.8497C43.0968 15.6115 43.2915 15.4167 43.5316 15.4167ZM45.2825 12.7431C45.5205 12.7431 45.7155 12.9378 45.7155 13.1779C45.7155 13.418 45.5208 13.6108 45.2825 13.6108C45.0406 13.6108 44.8459 13.418 44.8459 13.1779C44.8459 12.9378 45.0406 12.7431 45.2825 12.7431ZM24.3509 3.80309C24.4314 3.72038 24.5397 3.67317 24.6539 3.67132C24.77 3.66946 24.8801 3.71267 24.9647 3.79537C25.0474 3.87591 25.0946 3.98423 25.0965 4.10026C25.0983 4.33819 24.9057 4.53692 24.6657 4.53908C24.5475 4.54093 24.4413 4.49773 24.3586 4.41719C24.274 4.33448 24.2268 4.22648 24.2268 4.11014C24.225 3.99565 24.2682 3.88548 24.3509 3.80309ZM22.5882 0.719917C22.8224 0.719917 23.0249 0.906925 23.0289 1.1467C23.0289 1.26273 22.9857 1.3729 22.9048 1.45561C22.8243 1.53831 22.716 1.58552 22.5999 1.58738C22.4839 1.58552 22.3756 1.54417 22.291 1.46332C22.2083 1.38278 22.1611 1.27446 22.1611 1.15843C22.1574 0.920812 22.3481 0.722077 22.5882 0.719917ZM4.66101 15.2359C4.42093 15.2359 4.2262 15.0412 4.2262 14.8029C4.2262 14.5629 4.42093 14.3681 4.66101 14.3681C4.9011 14.3681 5.09582 14.5629 5.09582 14.8029C5.09551 15.0409 4.90079 15.2359 4.66101 15.2359ZM1.15291 15.2359C0.914983 15.2359 0.719951 15.0412 0.719951 14.8029C0.719951 14.5629 0.914674 14.3681 1.15291 14.3681C1.393 14.3681 1.58772 14.5629 1.58772 14.8029C1.58772 15.0409 1.393 15.2359 1.15291 15.2359ZM4.32248 37.4874C4.0824 37.4874 3.88767 37.2927 3.88767 37.0545C3.88767 36.8144 4.0824 36.6197 4.32248 36.6197C4.56041 36.6197 4.75544 36.8144 4.75544 37.0545C4.75544 37.2927 4.56041 37.4874 4.32248 37.4874ZM2.22713 40.1632C1.98704 40.1632 1.79047 39.9685 1.79047 39.7303C1.79047 39.4902 1.98735 39.2955 2.22713 39.2955C2.46505 39.2955 2.66008 39.4902 2.66008 39.7303C2.66008 39.9685 2.46505 40.1632 2.22713 40.1632ZM25.3208 48.4089C25.0829 48.4089 24.8878 48.2142 24.8878 47.9741C24.8878 47.734 25.0826 47.5393 25.3208 47.5393C25.5609 47.5393 25.7556 47.734 25.7556 47.9741C25.7556 48.2139 25.5609 48.4089 25.3208 48.4089ZM27.3455 51.2791C27.1054 51.2791 26.9088 51.0844 26.9088 50.8443C26.9088 50.6064 27.1057 50.4114 27.3455 50.4114C27.5856 50.4114 27.7784 50.6061 27.7784 50.8443C27.7781 51.0844 27.5856 51.2791 27.3455 51.2791ZM40.3679 36.0571L24.1049 44.8909L7.94631 35.4001V17.4411L24.0852 8.141L40.3676 18.2024V36.0571H40.3679ZM43.5905 37.5386C43.8285 37.5386 44.0235 37.7334 44.0235 37.9735C44.0235 38.2114 43.8288 38.4064 43.5905 38.4064C43.3504 38.4064 43.1557 38.2117 43.1557 37.9735C43.1557 37.7334 43.3504 37.5386 43.5905 37.5386ZM47.1594 38.4064C46.9193 38.4064 46.7228 38.2117 46.7228 37.9735C46.7228 37.7334 46.9196 37.5386 47.1594 37.5386C47.3973 37.5386 47.5924 37.7334 47.5924 37.9735C47.5924 38.2114 47.3977 38.4064 47.1594 38.4064Z" fill="#D9D9D9"/>
<path d="M24.2782 20.3903L27.4616 28.565H21.0083L24.2782 20.3903Z" fill="#D9D9D9"/>
<path d="M27.1153 11.3482L23.9713 9.45345L12.4166 16.0543L9.05015 18V34.7783L20.5715 41.6291L20.6345 41.6605L24.0303 43.6417L39.2662 35.351V18.8282L27.1153 11.3482ZM30.3299 36.1673L29.0394 32.8678H19.2868L17.9963 36.1673H13.406L22.0114 14.6514H26.3142L34.9061 36.1537L30.3299 36.1673Z" fill="#D9D9D9"/>
</svg>
