<svg width="223" height="241" viewBox="0 0 223 241" fill="none" xmlns="http://www.w3.org/2000/svg">
<path d="M219.805 171.362V99.9084L190.563 82.5177L130.616 45.6024L139.325 40.5443L195.621 73.7461C195.613 73.8999 195.603 74.0452 195.603 74.1905C195.63 77.0963 198.037 79.4666 200.97 79.4666C202.387 79.4666 203.722 78.9039 204.729 77.8769C205.727 76.8599 206.273 75.5252 206.263 74.1079C206.227 71.1836 203.82 68.8133 200.887 68.8133C199.734 68.8219 198.617 69.2036 197.709 69.903L139.599 35.6215L139.2 35.3395L137.392 36.4377L126.177 42.9217L115.133 36.2653L138.699 22.6892L203.703 61.2938C203.685 61.5203 203.676 61.7382 203.676 61.9562C203.722 63.382 204.312 64.6982 205.347 65.6796C206.337 66.6155 207.636 67.124 209.025 67.124H209.162C212.095 67.0328 214.419 64.5714 214.338 61.6385C214.247 58.7954 211.841 56.4807 208.971 56.4807H208.844C207.782 56.5078 206.737 56.871 205.884 57.4892L139.199 17.9316L138.717 17.6411L110.593 33.7512L53.2163 66.5257V56.9451L110.665 24.2247C111.6 24.9056 112.744 25.2873 113.898 25.2603C115.315 25.2418 116.64 24.6706 117.64 23.6436C118.63 22.618 119.174 21.2733 119.147 19.856C119.128 18.4302 118.557 17.104 117.54 16.1141C116.523 15.1156 115.189 14.57 113.763 14.5971C110.82 14.6427 108.46 17.0585 108.495 19.9913C108.495 20.1281 108.504 20.2734 108.522 20.4187L49.0299 54.2914L48.6482 54.5179V69.1566L36.6788 76.0679V45.9842L100.422 11.1571L101.239 10.6671C102.165 11.3024 103.265 11.6485 104.371 11.63C107.314 11.593 109.666 9.16006 109.62 6.22718C109.575 3.2943 107.142 0.914096 104.218 0.978195C102.8 0.996713 101.466 1.5679 100.476 2.59491C99.4857 3.61195 98.9502 4.9566 98.9687 6.38244C98.9687 6.58186 98.9872 6.77273 99.0043 6.95506L36.2529 41.2437L32.3115 43.2963V143.736L23.8662 138.886V74.0723C25.6552 73.192 26.8446 71.2932 26.8446 69.2948C26.8446 66.3519 24.4473 63.9646 21.5144 63.9646C18.5716 63.9646 16.1843 66.3534 16.1843 69.2948C16.1843 71.4471 17.5104 73.4 19.4903 74.2176V141.61L32.313 149.075V161.817L7.58503 147.286V74.1264C9.42823 73.2547 10.6547 71.3388 10.6547 69.2948C10.6547 66.3519 8.26591 63.9646 5.32448 63.9646C2.38875 63.9646 0 66.3534 0 69.2962C0 71.3673 1.30762 73.3473 3.21491 74.182V149.803L32.4568 166.976L89.7698 201.049L81.5324 205.599L25.2364 172.652C25.2635 172.434 25.282 172.216 25.282 172.017C25.282 169.074 22.8847 166.687 19.9518 166.687C17.009 166.687 14.6217 169.075 14.6217 172.017C14.6217 174.95 17.0104 177.338 19.9518 177.338C21.0145 177.338 22.0856 177.002 22.9759 176.394L81.1421 210.449L81.605 210.703L94.4006 203.737L106.36 210.721L80.8871 224.689L62.1617 213.047L15.5646 184.932C15.5917 184.733 15.6017 184.55 15.6017 184.378C15.6017 181.435 13.2129 179.048 10.2715 179.048C7.33861 179.048 4.94986 181.436 4.94986 184.378C4.94986 187.311 7.33861 189.7 10.2715 189.7C11.3697 189.7 12.4594 189.345 13.3596 188.71L59.884 216.781L80.3444 229.504L80.7347 229.767L123.771 206.174L170.003 181.038V190.618L120.083 218.171C119.157 217.471 118.03 217.09 116.868 217.09C113.935 217.09 111.546 219.478 111.546 222.42C111.546 222.829 111.592 223.2 111.673 223.547C111.872 224.537 112.372 225.444 113.107 226.18C114.097 227.189 115.441 227.743 116.867 227.743C119.809 227.743 122.207 225.354 122.207 222.421C122.207 222.285 122.198 222.149 122.18 222.013L173.88 193.47L174.37 193.188V178.657L186.33 172.155V201.378L129.417 231.411C128.491 230.73 127.364 230.348 126.221 230.348C123.278 230.348 120.89 232.737 120.89 235.67C120.89 238.613 123.279 241 126.221 241C129.154 241 131.542 238.611 131.542 235.67C131.542 235.525 131.534 235.379 131.524 235.243L190.198 204.284L190.707 204.012V105.485L199.152 110.525V171.325C197.182 172.142 195.865 174.095 195.865 176.237C195.865 179.18 198.262 181.568 201.205 181.568C204.138 181.568 206.527 179.179 206.527 176.237C206.527 174.222 205.327 172.323 203.53 171.451V107.882L190.707 100.064V87.694L215.426 102.397V171.406C213.573 172.259 212.348 174.176 212.348 176.237C212.348 179.18 214.737 181.568 217.67 181.568C220.613 181.568 223 179.179 223 176.237C223.001 174.176 221.694 172.196 219.805 171.362ZM200.934 72.1379C202.043 72.1379 202.941 73.0367 202.941 74.1364C202.941 75.2446 202.043 76.1519 200.934 76.1519C199.826 76.1519 198.927 75.2432 198.927 74.1364C198.927 73.0367 199.826 72.1379 200.934 72.1379ZM209.016 59.7968C210.115 59.7968 211.015 60.6956 211.015 61.8038C211.015 62.912 210.116 63.8022 209.016 63.8022C207.9 63.8022 207.001 62.912 207.001 61.8038C207.001 60.6956 207.9 59.7968 209.016 59.7968ZM112.4 18.5313C112.771 18.1496 113.271 17.9316 113.798 17.9231C114.334 17.9145 114.842 18.114 115.233 18.4957C115.614 18.8675 115.832 19.3675 115.841 19.903C115.849 21.0013 114.961 21.9186 113.852 21.9286C113.307 21.9371 112.817 21.7377 112.435 21.3659C112.045 20.9842 111.827 20.4856 111.827 19.9486C111.818 19.4202 112.018 18.9116 112.4 18.5313ZM104.263 4.29994C105.344 4.29994 106.279 5.16314 106.297 6.26991C106.297 6.8055 106.098 7.31401 105.725 7.69576C105.353 8.0775 104.853 8.29544 104.317 8.30399C103.782 8.29544 103.282 8.10457 102.892 7.73137C102.51 7.35959 102.292 6.85962 102.292 6.32404C102.275 5.22724 103.155 4.30991 104.263 4.29994ZM21.5144 71.3032C20.4062 71.3032 19.5074 70.4044 19.5074 69.3048C19.5074 68.1966 20.4062 67.2977 21.5144 67.2977C22.6226 67.2977 23.5214 68.1966 23.5214 69.3048C23.52 70.403 22.6212 71.3032 21.5144 71.3032ZM5.32163 71.3032C4.2234 71.3032 3.32317 70.4044 3.32317 69.3048C3.32317 68.1966 4.22198 67.2977 5.32163 67.2977C6.42983 67.2977 7.32864 68.1966 7.32864 69.3048C7.32864 70.403 6.42983 71.3032 5.32163 71.3032ZM19.9518 174.012C18.8436 174.012 17.9448 173.114 17.9448 172.014C17.9448 170.906 18.8436 170.007 19.9518 170.007C21.0501 170.007 21.9503 170.906 21.9503 172.014C21.9503 173.114 21.0501 174.012 19.9518 174.012ZM10.28 186.364C9.17184 186.364 8.26448 185.465 8.26448 184.365C8.26448 183.257 9.17326 182.358 10.28 182.358C11.3783 182.358 12.2785 183.257 12.2785 184.365C12.2785 185.465 11.3783 186.364 10.28 186.364ZM116.876 224.424C115.778 224.424 114.878 223.525 114.878 222.417C114.878 221.309 115.777 220.41 116.876 220.41C117.985 220.41 118.883 221.309 118.883 222.417C118.883 223.524 117.985 224.424 116.876 224.424ZM126.222 237.673C125.114 237.673 124.207 236.774 124.207 235.666C124.207 234.567 125.115 233.667 126.222 233.667C127.33 233.667 128.221 234.566 128.221 235.666C128.219 236.774 127.33 237.673 126.222 237.673ZM186.331 167.41L111.264 208.186L36.6788 164.378V81.4821L111.173 38.5544L186.33 84.9962V167.41H186.331ZM201.206 174.249C202.305 174.249 203.205 175.148 203.205 176.256C203.205 177.354 202.306 178.254 201.206 178.254C200.098 178.254 199.199 177.356 199.199 176.256C199.199 175.148 200.098 174.249 201.206 174.249ZM217.68 178.254C216.572 178.254 215.664 177.356 215.664 176.256C215.664 175.148 216.573 174.249 217.68 174.249C218.778 174.249 219.678 175.148 219.678 176.256C219.678 177.354 218.779 178.254 217.68 178.254Z" fill="url(#paint0_linear_1_112)"/>
<defs>
<linearGradient id="paint0_linear_1_112" x1="0" y1="120.988" x2="223" y2="120.988" gradientUnits="userSpaceOnUse">
<stop stop-color="#6C1AFC"/>
<stop offset="1" stop-color="#EC736C"/>
</linearGradient>
</defs>
</svg>
